<svg width="2048" height="2048" xmlns="http://www.w3.org/2000/svg" xmlns:svg="http://www.w3.org/2000/svg"><path d="m1706.747314,1109.385742l0,-170.674683q0,-34.668335 -25.334473,-60.002869t-60.002808,-25.334534l-669.36499,0l252.011841,-252.011902q25.334595,-25.334534 25.334595,-60.002869t-25.334595,-60.002808l-121.339111,-121.33905q-24.000977,-24.00116 -60.002747,-24.00116t-60.002869,24.00116l-482.689453,482.689453l-121.339081,121.33905q-24.00116,24.00116 -24.00116,60.00293t24.00116,60.002808l121.339081,121.339111l482.689453,482.689331q24.00116,24.001221 60.002869,24.001221t60.002747,-24.001221l121.339111,-121.338989q24.001099,-24.001221 24.001099,-60.00293t-24.001099,-60.002686l-252.011841,-252.011963l669.36499,0q34.668335,0 60.002808,-25.334473t25.334473,-60.00293zm341.349609,-85.33728q0,278.67981 -137.339966,514.02417t-372.684326,372.684326t-514.02417,137.339966t-514.024353,-137.339966t-372.68428,-372.684326t-137.339828,-514.02417t137.339828,-514.024353t372.68428,-372.68428t514.024353,-137.339828t514.02417,137.339828t372.684326,372.68428t137.339966,514.024353z"/></svg>