<svg width="2048" height="2048" xmlns="http://www.w3.org/2000/svg" xmlns:svg="http://www.w3.org/2000/svg"><path d="m1713.127441,1023.876953q0,-35.995667 -23.99707,-59.992798l-121.318726,-121.318787l-482.608765,-482.608643q-23.99707,-23.997101 -59.992798,-23.997101t-59.992798,23.997101l-121.318726,121.318756q-23.99707,23.997101 -23.99707,59.992767t23.99707,59.992798l251.969727,251.969727l-669.252899,0q-34.662476,0 -59.992767,25.330261t-25.330292,59.992859l0,170.646179q0,34.662476 25.330292,59.992798t59.992767,25.3302l669.252899,0l-251.969727,251.969849q-25.330261,25.3302 -25.330261,59.992676t25.330261,59.992798l121.318726,121.318726q23.997192,23.997192 59.992798,23.997192t59.992798,-23.997192l482.608765,-482.608643l121.318726,-121.318726q23.99707,-23.997192 23.99707,-59.992798zm334.626465,0q0,278.633179 -137.316895,513.938232t-372.621826,372.621826t-513.938232,137.316895t-513.938232,-137.316895t-372.621887,-372.621826t-137.316833,-513.938232t137.316833,-513.938232t372.621887,-372.621887t513.938232,-137.316833t513.938232,137.316833t372.621826,372.621887t137.316895,513.938232z"/></svg>