<?xml version="1.0" encoding="utf-8"?>
<!-- Generator: Adobe Illustrator 22.0.0, SVG Export Plug-In . SVG Version: 6.00 Build 0)  -->
<svg version="1.1" id="Layer_1" xmlns="http://www.w3.org/2000/svg" xmlns:xlink="http://www.w3.org/1999/xlink" x="0px" y="0px"
	 viewBox="0 0 1920 1080" style="enable-background:new 0 0 1920 1080;" xml:space="preserve">
<g>
	<path d="M1008,466c-7.6-11.1-12.1-24.4-12.1-38.9c0-37.9,30.7-68.6,68.6-68.6c37.9,0,68.6,30.7,68.6,68.6
		c0,14.4-4.5,27.8-12.1,38.9c4.7-8.9,7.4-19,7.4-29.7c0-35.2-28.6-63.9-63.9-63.9c-35.3,0-63.9,28.6-63.9,63.9
		C1000.6,447,1003.3,457.1,1008,466L1008,466z M1102,429.1c0-20.7-16.8-37.5-37.5-37.5c-20.7,0-37.5,16.8-37.5,37.5
		c0,6.2,1.6,12,4.3,17.1c-0.9-3.1-1.6-6.4-1.6-9.9c0-19.2,15.6-34.8,34.8-34.8c19.2,0,34.8,15.6,34.8,34.8c0,3.5-0.7,6.7-1.6,9.9
		C1100.4,441,1102,435.3,1102,429.1L1102,429.1z M1064.5,417.7c-6.3,0-11.4,5.1-11.4,11.4c0,6.3,5.1,11.4,11.4,11.4
		c6.3,0,11.4-5.1,11.4-11.4C1075.9,422.8,1070.8,417.7,1064.5,417.7L1064.5,417.7z M1038,510.6l13.5-64.5h26.1l13.5,64.5h-7.4
		l-2.2-10.9h-33.8l-2.2,10.9H1038z M1054.3,468.1h20.5l-3.1-14.8h-14.3L1054.3,468.1z M1049.1,492.5h30.7l-3.6-17.1h-23.6
		L1049.1,492.5z M1049.1,492.5"/>
</g>
</svg>
