<svg width="2297" height="2048" xmlns="http://www.w3.org/2000/svg"><path d="m1949.54541,957.119629c35.11853,0 63.59314,28.149841 63.59314,62.89386c0,34.76886 -28.474609,62.943787 -63.59314,62.943787l-99.910767,0c-35.093628,0 -63.568115,-28.174927 -63.568115,-62.943787c0,-34.719116 28.474487,-62.89386 63.59314,-62.89386l99.910645,0l-0.024902,0zm-262.940063,-315.967712c-12.389038,12.289063 -28.649536,18.433533 -44.959839,18.433533c-16.235352,0 -32.520874,-6.14447 -44.959839,-18.433533c-24.852783,-24.578003 -24.852783,-64.392456 0,-88.995422l70.586792,-69.812653c24.802979,-24.602997 65.116943,-24.578064 89.919678,0c24.877808,24.578033 24.877808,64.392487 0,88.970551l-70.586792,69.837524zm70.611938,916.580994c-12.388916,12.28894 -28.674438,18.433472 -44.959839,18.433472c-16.285522,0 -32.546021,-6.144531 -44.959961,-18.433472l-70.636841,-69.862671c-24.877686,-24.577881 -24.877686,-64.392334 0,-88.92041c24.827759,-24.603149 65.066772,-24.628052 89.919678,0l70.611816,69.837524c24.852905,24.552979 24.852905,64.367432 0,88.920532l0.025146,0.025024zm-495.057617,490.686523c-536.595581,0 -979.125122,-406.187012 -1030.154495,-924.049316l-76.631516,75.782349c-35.543251,35.143555 -93.166748,35.143555 -128.734962,0c-35.51826,-35.218628 -35.51826,-92.167603 0,-127.38623l226.947227,-224.499329c35.543228,-35.143555 93.166733,-35.143555 128.734909,0l226.947174,224.549377c35.543274,35.168579 35.543274,92.16748 0,127.336182c-17.784119,17.609131 -41.063293,26.35144 -64.367432,26.35144c-23.279236,0 -46.533386,-8.74231 -64.317505,-26.376465l-63.693115,-63.043701c55.950012,412.231689 413.580444,731.221558 845.24469,731.221558c470.454712,0 853.237427,-378.661499 853.237427,-844.095581c0,-465.459045 -382.782715,-844.120651 -853.237427,-844.120651c-50.155151,0 -90.918701,-40.313965 -90.918701,-90.044525c0,-49.705589 40.713623,-90.04454 90.918701,-90.04454c570.839844,0 1035.249878,459.489349 1035.27478,1024.234619c0,564.745483 -464.434937,1024.209717 -1035.224731,1024.209717l-0.025024,-0.024902zm15.186401,-429.716064l0,98.861694c0,34.718994 -28.474609,62.943604 -63.59314,62.943604c-35.143677,0 -63.618286,-28.224609 -63.618286,-62.943604l0,-98.886597c0,-34.718994 28.474609,-62.868774 63.593262,-62.868774s63.568237,28.14978 63.568237,62.893677l0.049927,0zm-28.299805,-1256.152496c53.277344,0 96.413818,42.711792 96.413818,95.464722l0,642.775543c0,25.302368 -10.115845,49.555786 -28.224731,67.489624l-329.705444,326.458252c-18.83313,18.608276 -43.536072,27.974976 -68.238953,27.974976c-24.727966,0 -49.38092,-9.31665 -68.189087,-27.974976c-37.716309,-37.266602 -37.716309,-97.712524 -0.049866,-134.97937l301.580566,-298.483154l0,-603.235901c0,-52.702942 43.211304,-95.414734 96.413696,-95.414734l0,-0.074982z"/></svg>