<svg width="100" height="100" xmlns="http://www.w3.org/2000/svg" xmlns:svg="http://www.w3.org/2000/svg"><path d="m22.01101,66.879708c-6.131463,0 -11.013924,4.904247 -11.013924,11.063063s4.996007,11.063054 11.013924,11.063054s11.013924,-4.904247 11.013924,-11.063054s-4.996005,-11.063063 -11.013924,-11.063063zm0,18.704553c-4.201187,0 -7.607555,-3.421565 -7.607555,-7.64149s3.406368,-7.641494 7.607555,-7.641494s7.607555,3.421565 7.607555,7.641494s-3.406367,7.64149 -7.607555,7.64149z"/><path d="m50.624504,66.879708c-6.131464,0 -11.013925,4.904247 -11.013925,11.063063s4.996005,11.063054 11.013925,11.063054s11.013923,-4.904247 11.013923,-11.063054s-4.99601,-11.063063 -11.013923,-11.063063zm0,18.704553c-4.20119,0 -7.607558,-3.421565 -7.607558,-7.64149s3.406367,-7.641494 7.607558,-7.641494s7.607552,3.421565 7.607552,7.641494s-3.406365,7.64149 -7.607552,7.64149z"/>
<path d="m77.988995,66.879708c-6.131459,0 -11.013928,4.904247 -11.013928,11.063063s4.99601,11.063054 11.013928,11.063054s11.013923,-4.904247 11.013923,-11.063054s-4.882464,-11.063063 -11.013923,-11.063063zm0,18.704553c-4.201188,0 -7.607553,-3.421565 -7.607553,-7.64149s3.406365,-7.641494 7.607553,-7.641494s7.607552,3.421565 7.607552,7.641494s-3.406365,7.64149 -7.607552,7.64149z"/><path d="m22.01101,38.936939c-6.131463,0 -11.013924,4.904245 -11.013924,11.063059s4.996007,11.063059 11.013924,11.063059s11.013924,-4.904243 11.013924,-11.063059s-4.996005,-11.063059 -11.013924,-11.063059zm0,18.704549c-4.201187,0 -7.607555,-3.421565 -7.607555,-7.64149s3.406368,-7.641492 7.607555,-7.641492s7.607555,3.421562 7.607555,7.641492s-3.406367,7.64149 -7.607555,7.64149z"/><path d="m50.624504,38.936939c-6.131464,0 -11.013925,4.904245 -11.013925,11.063059s4.996005,11.063059 11.013925,11.063059s11.013923,-4.904243 11.013923,-11.063059s-4.99601,-11.063059 -11.013923,-11.063059zm0,18.704549c-4.20119,0 -7.607558,-3.421565 -7.607558,-7.64149s3.406367,-7.641492 7.607558,-7.641492s7.607552,3.421562 7.607552,7.641492s-3.406365,7.64149 -7.607552,7.64149z"/><path d="m77.988995,38.936939c-6.131459,0 -11.013928,4.904245 -11.013928,11.063059s4.99601,11.063059 11.013928,11.063059s11.013923,-4.904243 11.013923,-11.063059s-4.882464,-11.063059 -11.013923,-11.063059zm0,18.704549c-4.201188,0 -7.607553,-3.421565 -7.607553,-7.64149s3.406365,-7.641492 7.607553,-7.641492s7.607552,3.421562 7.607552,7.641492s-3.406365,7.64149 -7.607552,7.64149z"/><path d="m22.01101,10.994171c-6.131463,0 -11.013924,4.90424 -11.013924,11.063055s4.996007,11.063057 11.013924,11.063057s11.013924,-4.904241 11.013924,-11.063057s-4.996005,-11.063055 -11.013924,-11.063055zm0,18.704549c-4.201187,0 -7.607555,-3.421564 -7.607555,-7.641493s3.406368,-7.641492 7.607555,-7.641492s7.607555,3.421564 7.607555,7.641492s-3.406367,7.641493 -7.607555,7.641493z" /><path d="m50.624504,10.994171c-6.131464,0 -11.013925,4.90424 -11.013925,11.063055s4.996005,11.063057 11.013925,11.063057s11.013923,-4.904241 11.013923,-11.063057s-4.99601,-11.063055 -11.013923,-11.063055zm0,18.704549c-4.20119,0 -7.607558,-3.421564 -7.607558,-7.641493s3.406367,-7.641492 7.607558,-7.641492s7.607552,3.421564 7.607552,7.641492s-3.406365,7.641493 -7.607552,7.641493z"/><path d="m77.988995,33.120284c6.131458,0 11.013923,-4.904241 11.013923,-11.063057s-4.996005,-11.063055 -11.013923,-11.063055s-11.013928,4.90424 -11.013928,11.063055s4.99601,11.063057 11.013928,11.063057zm0,-18.704549c4.201188,0 7.607552,3.421564 7.607552,7.641492s-3.406365,7.641493 -7.607552,7.641493s-7.607553,-3.421564 -7.607553,-7.641493s3.406365,-7.641492 7.607553,-7.641492z"/></svg>