<svg width="2048" height="2048" xmlns="http://www.w3.org/2000/svg" xmlns:svg="http://www.w3.org/2000/svg" preserveAspectRatio="xMidYMid"><path d="m1024.064575,2048.12915c-565.15564,0 -1024.064575,-458.908936 -1024.064575,-1024.064575s458.908936,-1024.064575 1024.064575,-1024.064575s1024.064575,458.908936 1024.064575,1024.064575s-458.908936,1024.064575 -1024.064575,1024.064575zm788.913818,-951.996094l0,53.123413l-34.114258,45.442871c-11.3927,-41.602539 -22.7854,-87.173462 -37.954346,-136.520508c-15.169067,-22.721558 -30.337891,-49.283264 -49.283081,-75.844727c-41.730713,-7.552429 -87.237549,-18.945251 -136.584717,-30.337891c-11.3927,-15.169006 -26.497681,-26.561768 -41.730591,-41.730652c-7.55249,3.84021 -15.168945,7.680481 -22.721436,11.392639l34.050171,79.620972c19.009155,-7.552429 34.178101,-18.94519 49.283081,-26.497742c22.785522,18.945251 41.730591,34.114136 60.803833,53.123352c-60.803833,37.890503 -121.479614,83.397339 -189.708008,125.12793c-30.337769,-72.068481 -64.515991,-144.137207 -102.406372,-216.205566c-7.68042,0 -15.168945,3.840149 -22.7854,3.840149c37.954346,87.173523 75.844727,174.411072 106.246704,257.93634c34.114014,-19.009277 68.228271,-34.177979 102.406494,-53.123291c-7.680542,41.602661 -22.785522,79.620972 -34.178223,117.511353c-34.114258,30.337891 -68.228271,64.516113 -106.246704,94.853882c3.84021,45.442993 3.84021,87.237549 3.84021,125.12793c-18.945313,15.169067 -41.730713,30.338013 -60.675781,41.730713c-41.730713,56.963623 -83.461182,102.406494 -121.351685,140.36084c-34.178223,3.84021 -68.292236,7.55249 -98.566162,11.3927c-22.849487,-37.954468 -53.123291,-91.077759 -83.525269,-151.689453l22.721436,-91.077759c-18.94519,-56.963745 -37.954468,-113.799194 -60.675842,-178.251221c-72.068604,3.840088 -140.36084,7.552368 -208.653198,11.392456c-41.6026,-37.954224 -79.620911,-75.908813 -117.575378,-113.799072c7.680481,-60.675903 11.392578,-125.191772 19.009155,-185.867737c37.890381,-45.442871 75.844849,-90.885742 113.735229,-136.456604c72.06842,-11.392761 147.977234,-26.561646 219.98175,-37.954407c7.680481,18.945251 11.520691,37.954407 15.361023,56.963623c30.273926,22.721375 60.611816,41.6026 90.885742,60.611755c11.520752,-18.945129 22.785522,-34.114136 34.178101,-49.28302c45.442993,15.168884 91.013916,26.561646 136.520508,37.890381c11.392822,-3.840271 22.785522,-11.328735 34.178223,-18.945251c7.680542,-15.168945 11.520752,-34.114136 15.233032,-49.283081c-30.338013,-3.840271 -60.675903,-11.392761 -91.013794,-15.168945c-7.68042,-18.94519 -19.009155,-37.890442 -30.337891,-53.123352c-7.680542,-3.712219 -15.169067,-7.488464 -22.785522,-11.328735c-7.55249,22.785461 -11.3927,41.730652 -18.94519,64.516113c-11.3927,-18.945251 -26.561646,-37.890442 -41.730591,-53.123352c3.84021,-15.10498 3.84021,-26.497803 3.84021,-41.602661c-19.009155,-15.233032 -37.954346,-26.625671 -56.963623,-41.794678c-11.3927,-3.840149 -22.721313,-11.328735 -34.114014,-15.168945c0,15.168945 3.84021,26.561646 3.84021,41.73053l68.228271,45.442871c-11.328735,15.232971 -22.721436,26.625671 -34.114258,41.794678c-15.169067,-22.721375 -34.114014,-45.442871 -49.283081,-64.452026c-11.3927,-11.3927 -22.785461,-26.561768 -34.114197,-37.954407c-26.561646,11.392639 -56.963562,22.785461 -83.461243,37.954407c-18.94519,26.561646 -41.730652,56.963501 -60.675781,87.237488c-30.337952,-3.84021 -56.963623,-7.552429 -87.237549,-11.328674l0,-102.406494c37.890442,0 72.004578,3.840271 109.894958,3.840271c-11.328735,-19.009216 -22.721436,-37.954407 -34.114136,-53.123413c-7.55249,-15.232971 -11.392761,-30.401855 -18.945251,-41.730591c26.561707,-11.328735 56.963623,-18.94519 83.461243,-26.497681c15.169006,-15.168945 30.337952,-34.114197 45.442871,-49.283081c11.392761,-3.840271 22.785461,-3.840271 34.178223,-3.840271c-3.840271,-7.55249 -3.840271,-18.94519 -7.55249,-26.561584l22.721375,-22.65744c7.680603,11.392731 11.392761,22.721436 18.94519,37.954376c34.114136,0 68.228271,3.712219 102.406494,3.712219c7.55249,-19.009094 15.10498,-37.954285 22.721436,-53.12326c11.392578,3.84024 26.561768,7.680481 37.890381,11.392731c-3.84021,-11.392731 -11.328613,-22.785431 -15.168945,-34.114166c15.168945,-3.84021 34.178101,-7.68045 53.123413,-11.3927c-7.68042,-7.680511 -11.3927,-11.392731 -18.945313,-15.168945c-15.168945,0 -34.178101,3.84024 -49.282959,7.55246c-3.84021,-7.55246 -11.3927,-18.94519 -19.009155,-26.561676l-3.840332,0l0,-3.712219c-3.712158,-3.84024 -3.712158,-7.55249 -7.552368,-11.392731c7.552368,-3.84024 11.328613,-3.84024 18.94519,-7.55246c7.55249,-11.392731 11.328613,-15.168976 15.168823,-22.785461l-19.009155,0c-7.55249,7.680481 -18.94519,11.392731 -26.497681,19.009216c-7.68042,7.55246 -15.168945,18.94519 -22.7854,30.337891c11.3927,3.84024 18.94519,11.392731 30.337891,19.009216c-7.55249,18.94519 -18.94519,37.954376 -26.561646,56.963562c-15.169067,7.488495 -30.338013,11.328735 -45.442871,15.10498c-11.520752,-18.945221 -19.009155,-37.954407 -26.625732,-56.963593c-19.009094,7.680481 -34.178101,15.232941 -53.12323,22.849426c-7.680481,-3.84024 -15.169006,-7.680481 -22.785461,-11.3927c0,-18.945221 0,-34.178162 3.840149,-49.283112c15.10498,-7.680481 26.497803,-11.392731 41.602722,-19.009216c11.52063,-15.168945 22.849365,-26.561646 34.242065,-37.890381c26.433594,-7.680481 52.995361,-11.3927 79.557007,-15.168945c64.452026,0 128.968262,7.55246 197.260498,11.328705c94.726074,0 208.653198,-3.84024 257.936401,-7.55246c-151.689575,-117.575439 -341.397705,-189.643967 -550.050781,-189.643967c-212.30127,0 -405.785583,75.844772 -557.475159,197.132431c11.3927,0 19.009186,3.84024 30.337921,3.84024c7.680481,15.232941 15.232971,30.401917 22.785431,49.283112c0,11.520721 3.840271,19.009186 7.68042,30.401917c-15.23288,15.168945 -30.465912,30.337891 -45.634888,49.283112c0,7.68045 -3.84024,19.009186 -7.55246,26.561646c-11.520721,3.84024 -22.849457,11.3927 -34.178162,19.009216c-3.84024,26.433716 -11.392731,52.995361 -19.009186,79.557068c-15.232971,-3.840271 -30.401917,-7.680603 -41.794647,-7.680603c-7.55246,-52.995239 -15.168945,-102.406372 -18.94519,-144.009064c-41.602631,49.283081 -79.557007,98.566193 -109.894943,155.529755c7.552475,-3.840088 11.32872,-7.68042 15.168961,-11.520691c11.328735,60.803894 26.497681,125.255981 45.442871,197.324402c-37.890381,26.561707 -72.004547,53.123352 -102.406464,75.844849c-22.72142,22.849304 -41.602615,41.794617 -56.835571,60.803833c-3.84024,34.114136 -7.680481,68.228271 -7.680481,106.118652c0,75.908813 7.680481,151.689453 26.625671,220.045898c15.168961,3.84021 34.114151,11.328735 53.123337,15.168945c30.337921,30.337769 60.675858,64.452026 98.566238,98.566162c7.680481,22.7854 19.009186,45.442871 26.561676,68.292358c45.442871,26.561646 98.566193,56.963501 151.689545,83.461182c-15.10495,49.283081 -30.273895,94.726074 -37.890381,132.744507l-60.611816,0c159.370026,159.369995 383.064178,261.776611 629.607697,261.776611c481.694458,0 872.375122,-383.192261 868.53479,-857.270142c0,-11.3927 -3.84021,-26.561646 -7.55249,-37.954346c-18.94519,22.849365 -45.442871,49.411133 -72.068604,79.748901l0.192139,-0.512085l0.000122,0zm-269.329102,-417.306335c0,-11.264648 -3.84021,-22.65741 -3.84021,-34.05011c-22.657349,11.392639 -49.283081,22.785461 -72.004517,34.114136c11.3927,22.785461 22.7854,45.570862 34.178101,72.068481c0,15.169006 -3.84021,34.178162 -7.68042,49.283142c22.849487,3.840149 45.570801,3.840149 68.356323,7.680481c-7.680542,-26.625732 -11.392822,-53.123352 -19.009277,-79.685059c-7.552368,-11.3927 -18.945068,-26.561646 -26.497559,-37.954407c7.55249,-3.840149 18.94519,-7.55249 26.497559,-11.392639l0,-0.064026zm-125.127808,34.242188c-45.442993,-22.721375 -91.013794,-49.28302 -136.52063,-72.004578c-11.392822,22.721497 -22.785522,45.442871 -37.954346,68.228333c3.84021,11.520752 11.3927,22.849426 18.94519,34.242188c26.561768,-3.840149 53.123413,-7.680481 79.685181,-11.392639c18.945068,7.68042 37.890259,11.392639 56.963501,18.94519c3.71228,-11.328735 11.264771,-26.49762 18.881104,-37.890442l0,-0.127991l0,-0.000061zm-11.3927,857.206116c3.84021,-26.561768 11.3927,-53.123291 15.168945,-83.397217c22.785278,-19.009277 45.442749,-34.178223 72.068481,-49.283081c3.840332,15.104858 3.840332,30.273926 3.840332,45.442749c-19.009277,34.178223 -37.954468,68.292358 -56.963623,98.566284l-34.114136,-11.328735zm-580.196655,-1160.649261c3.712219,-7.680481 3.712219,-11.3927 3.712219,-18.94519c15.169006,-7.680511 26.561707,-11.3927 41.730652,-15.168945c15.168945,18.94519 34.114197,45.442871 53.123352,75.844788c-7.680481,3.84024 -11.392761,11.3927 -19.009155,18.94519c-22.785461,7.680481 -41.730713,15.168945 -64.452087,22.785431c3.840149,-22.785431 3.840149,-45.442871 7.55249,-64.516052c-7.55249,11.3927 -18.945251,26.561646 -26.561707,45.442841l-45.570862,0c0,-11.264709 3.840149,-22.65741 7.680481,-34.05014c15.10498,-11.3927 30.273865,-22.785431 41.6026,-30.337921l0.192017,0z" fill-rule="evenodd"/></svg>