<svg width="1870" height="2048" xmlns="http://www.w3.org/2000/svg" xmlns:svg="http://www.w3.org/2000/svg"><path d="m1870.011597,436.336029c0,-13.357239 -8.904907,-26.714447 -17.809814,-35.619263l-449.693115,-382.907131c-4.452393,-4.45241 -8.904907,-4.45241 -13.357178,-8.904818c-8.904785,-4.452409 -17.809814,-8.904818 -31.166992,-8.904818l-1313.460411,0c-26.714497,0 -44.524086,17.809635 -44.524086,44.524086l0,1959.059776c0,22.261963 17.809635,44.524048 44.524086,44.524048l1780.963341,0c22.262085,0 44.52417,-17.809692 44.52417,-44.524048l0,-1567.247864l0,0.000031zm-1780.963425,1522.723663l0,-1870.011475l1246.674362,0l0,356.192657c0,22.262054 22.261963,44.524109 44.52417,44.524109l400.716675,0l0,1469.294708l-1691.915207,0zm311.668594,-1246.674255l0,115.762512l707.932892,730.194946l405.169189,0l0,-75.690918l-743.552246,-770.266602l-369.549835,0l0,0.000061zm997.339508,578.813171l71.238525,-93.50061l0,-84.595825l-222.620483,0l151.381958,178.096436zm-440.788452,-463.050659l204.810791,213.715698l276.049316,-218.168091l0,-111.310181l-365.097534,0l-115.762573,115.762573zm-556.551056,569.908325l0,71.238525l534.289032,0l-302.763794,-311.668579l-231.525238,240.430054z"/></svg>