<svg width="2731" height="2048" xmlns="http://www.w3.org/2000/svg" xmlns:svg="http://www.w3.org/2000/svg"><path d="m1365.581543,0c-754.128723,0 -1365.581543,1010.858154 -1365.581543,1010.858154s611.45282,1037.514404 1365.581543,1037.514404s1365.581543,-1037.514404 1365.581543,-1037.514404s-611.452881,-1010.858154 -1365.581543,-1010.858154zm0,1706.976929c-377.091614,0 -682.790771,-305.699097 -682.790771,-682.790649s305.699158,-682.790894 682.790771,-682.790894s682.791016,305.699158 682.791016,682.790894s-305.699341,682.790649 -682.791016,682.790649z"/><path d="m1706.976929,1025.524414c0,188.696045 -152.863159,341.395386 -341.395386,341.395386s-341.395264,-152.699341 -341.395264,-341.395386s152.863159,-341.395325 341.395264,-341.395325s341.395386,152.69928 341.395386,341.395325z"/></svg>