<svg xmlns="http://www.w3.org/2000/svg" xmlns:xlink="http://www.w3.org/1999/xlink" version="1.1" x="0px" y="0px" viewBox="0 0 100 125" style="enable-background:new 0 0 100 100;" xml:space="preserve"><style type="text/css">
	.st0{fill-rule:evenodd;clip-rule:evenodd;}
</style><path class="st0" d="M84.6,30.5H48.8c-2.2,8.6-10.1,15-19.4,15c-11.1,0-20-9-20-20s9-20,20-20c9.3,0,17.2,6.4,19.4,15h35.7  c2.8,0,5,2.2,5,5S87.4,30.5,84.6,30.5z M29.5,15.4c-5.5,0-10,4.5-10,10s4.5,10,10,10s10-4.5,10-10S35,15.4,29.5,15.4z M14.4,70.5  h35.7c2.2-8.6,10.1-15,19.4-15c11.1,0,20,9,20,20s-9,20-20,20c-9.3,0-17.2-6.4-19.4-15H14.4c-2.8,0-5-2.2-5-5S11.6,70.5,14.4,70.5z   M69.5,85.6c5.5,0,10-4.5,10-10s-4.5-10-10-10s-10,4.5-10,10S64,85.6,69.5,85.6z"/><text x="0" y="115" fill="#000000" font-size="5px" font-weight="bold" font-family="'Helvetica Neue', Helvetica, Arial-Unicode, Arial, Sans-serif">Created by Rohith M S</text><text x="0" y="120" fill="#000000" font-size="5px" font-weight="bold" font-family="'Helvetica Neue', Helvetica, Arial-Unicode, Arial, Sans-serif">from the Noun Project</text></svg>