<svg width="2048" height="2048" xmlns="http://www.w3.org/2000/svg" xmlns:svg="http://www.w3.org/2000/svg" preserveAspectRatio="xMidYMid"><path d="m1956.568481,1080.034424c-114.341064,-30.603394 -140.245483,-298.925171 -46.387085,-353.143738c30.723755,-17.831909 54.579956,-43.133911 70.243164,-72.291504c-24.338013,-89.039001 -107.59375,-217.356323 -154.58313,-274.3461c-34.338501,-1.566315 -69.399902,6.265259 -101.328613,24.699615c-102.29248,59.158478 -313.865356,-99.039337 -282.298096,-216.87442c9.879761,-36.748123 4.578491,-81.327881 -3.373657,-107.473267c-58.194702,-30.121441 -195.90979,-70.604671 -298.202271,-80.604991c-22.048828,16.02461 -47.230469,54.941508 -57.110352,91.930629c-33.374512,124.582291 -297.358826,142.655167 -353.987122,44.459274c-18.91626,-32.772141 -53.736633,-63.375511 -77.833801,-73.375843c-66.146667,20.12112 -209.8862,103.497257 -268.080811,151.691563c4.096497,34.097488 4.819427,73.73732 24.338074,107.473343c56.628326,98.195923 -96.629547,316.516144 -217.59729,284.105377c-39.880798,-10.723206 -81.689346,-7.71106 -115.786812,6.385742c-28.073181,62.170654 -70.484181,226.392883 -74.580691,292.53949c8.07255,18.072876 55.905402,49.76062 94.219866,60.001831c164.704094,44.218445 166.029472,286.033325 46.627998,354.951172c-33.736015,19.518799 -62.532127,46.628052 -74.580696,80.725464c20.000641,64.218872 100.605614,205.307739 152.775948,265.550659c34.097473,3.976074 73.616806,-4.819458 107.473312,-24.338257c106.629913,-61.688721 319.769226,83.255615 283.744019,217.958862c-9.397888,34.940796 -4.21698,71.809448 1.807251,107.9552c80.24353,34.097656 225.308411,82.171509 305.551941,80.123169c26.024902,-24.09729 42.049561,-57.592285 51.206482,-91.930786c31.567322,-117.835083 291.936951,-155.426514 353.505188,-48.676147c17.229492,29.76001 41.206299,58.074097 69.279297,74.098755c84.219482,-23.976807 232.296509,-106.87085 282.418701,-159.04126c2.04834,-38.19397 -12.289551,-70.002197 -30.12146,-100.967163c-66.508179,-115.184326 88.797974,-316.877441 216.512939,-282.539063c35.061401,9.277344 73.134888,6.144775 105.184082,-1.927734c28.073242,-70.243164 74.580688,-195.668945 82.653198,-300.009644c-28.07312,-32.169678 -54.700562,-47.230469 -91.689575,-57.110229zm-389.169189,77.83374c-78.074707,291.4552 -377.240845,464.352173 -668.454956,386.277466c-291.093628,-78.074829 -463.870209,-377.7229 -385.795471,-669.057495c77.954346,-291.455078 377.240967,-464.352142 668.334656,-386.277344c291.093506,78.074707 463.870117,377.602417 385.915771,669.057373z"/></svg>