<svg width="100" height="100" xmlns="http://www.w3.org/2000/svg" xmlns:svg="http://www.w3.org/2000/svg"><path d="m6.5625,17.296483l0,17.655886l86.874998,0l0,-17.655886l-86.874998,0zm57.481951,2.507939l0,12.640008l-39.625429,0l0,-12.640008l39.625429,0zm-54.974013,0l12.439374,0l0,12.640008l-12.439374,0l0,-12.640008zm81.658485,12.640008l-23.875576,0l0,-12.640008l23.975898,0l0,12.640008l-0.100322,0z"/><path d="m6.5625,58.125721l86.874998,0l0,-17.655888l-86.874998,0l0,17.655888zm34.910505,-2.507938l0,-12.640014l33.706689,0l0,12.640014l-33.706689,0zm49.255919,0l-12.740326,0l0,-12.640014l12.840648,0l0,12.640014l-0.100322,0zm-81.658485,-12.640014l29.493354,0l0,12.640014l-29.493354,0l0,-12.640014z"/><path d="m6.5625,82.703516l86.874998,0l0,-17.655888l-86.874998,0l0,17.655888zm25.881925,-2.507942l0,-12.640004l49.155597,0l0,12.640004l-49.155597,0zm58.284499,0l-6.420328,0l0,-12.640004l6.420328,0l0,12.640004zm-81.658485,-12.640004l20.565098,0l0,12.640004l-20.565098,0l0,-12.640004z"/></svg>