<svg width="1708" height="2048" xmlns="http://www.w3.org/2000/svg" xmlns:svg="http://www.w3.org/2000/svg"><path d="m16.000086,0c-8.832048,0 -16.000086,7.232038 -16.000086,16.000086l0,1008.005407l1664.008789,0l0,-512.002747l-496.002686,0c-8.832031,0 -16,-7.232056 -16,-16.000122l0,-496.002625l-1136.006018,0zm1200.006262,0l0,448.00238l448.002441,0l-448.002441,-448.00238zm-1040.005417,1228.038452l0,372.033936l96.000534,0l0,-164.032837l142.016724,0l0,164.032837l96.000488,0l0,-372.033936l-96.000488,0l0,136.000732l-142.016724,0l0,-136.000732l-96.000534,0zm392.002121,0l0,72.000488l116.032593,0l0,300.033447l96.000488,0l0,-300.033447l116.032593,0l0,-72.000488l-328.001709,0l-0.063965,0zm385.986023,0l0,372.033936l89.984436,0l0,-249.985229l68.032349,161.984863l68.032349,0l68.032349,-161.984863l0,249.985229l96.000488,0l0,-372.033936l-112.000488,0l-84.032471,185.985107l-84.032471,-185.985107l-110.016541,0zm484.034485,0l0,372.033936l270.017456,0l0,-72.000244l-174.016846,0l0,-300.033691l-96.00061,0zm-1438.02356,564.035034l0,240.065308c0,8.832031 7.168037,16.000122 16.000086,16.000122l1632.008703,0c8.832031,0 16,-7.168091 16,-16.000122l0,-240.065308l-1664.008789,0z"/></svg>