<svg width="1874" height="2048" xmlns="http://www.w3.org/2000/svg" xmlns:svg="http://www.w3.org/2000/svg"><path d="m1431.449951,712.513977l-1033.468964,0c-19.256989,0 -38.513977,19.257019 -38.513977,38.514038l0,680.421936c0,19.25 19.256989,38.51001 38.513977,38.51001l1039.889008,0c19.25,0 38.51001,-19.26001 38.51001,-38.51001l0,-680.421936c-6.420044,-19.257019 -19.26001,-38.514038 -44.930054,-38.514038zm-6.419922,44.933044l0,449.333008l-141.219971,-128.380005c-12.840088,-12.839966 -38.52002,-19.26001 -51.350098,0l-154.059937,160.47998l-237.505005,-243.927979c-6.419006,-6.419006 -19.257019,-19.257019 -25.676025,-19.257019c-6.419006,0 -19.257019,6.419006 -25.675964,19.257019l-391.562042,391.557983l0,-622.643982l1027.049042,0l0,-6.419006zm-847.31604,83.447998c51.35199,0 89.867004,38.513977 89.867004,96.286011c0,51.35199 -38.515015,96.28894 -89.867004,96.28894s-89.867004,-44.936951 -89.867004,-96.28894s44.934021,-96.286011 89.867004,-96.286011zm1296.645996,-404.400024c0,-12.837982 -6.420044,-25.675995 -19.26001,-38.514008l-449.329956,-385.142887c-19.26001,-10.24655 -32.089966,-12.8381 -44.930054,-12.8381l-1315.906666,0c-25.676201,0 -44.9333,12.8381 -44.9333,38.514301l0,1964.225689c0,19.26001 19.257099,44.940063 44.9333,44.940063l1784.496754,0c19.259888,0 44.929932,-19.26001 44.929932,-44.940063l0,-1566.244995zm-1784.493385,1527.734985l0,-1880.782379l1251.713356,0l0,359.4664c0,19.256989 19.26001,44.932983 44.930054,44.932983l404.400024,0l0,1476.382996l-1701.043434,0z"/></svg>