<?xml version="1.0" encoding="utf-8"?>
<!-- Generator: Adobe Illustrator 22.0.0, SVG Export Plug-In . SVG Version: 6.00 Build 0)  -->
<svg version="1.1" id="Layer_1" xmlns="http://www.w3.org/2000/svg" xmlns:xlink="http://www.w3.org/1999/xlink" x="0px" y="0px"
	 viewBox="0 0 1920 1080" style="enable-background:new 0 0 1920 1080;" xml:space="preserve">
<g>
	<path d="M960.1,533.5c13.9-15.6,22.3-36.2,22.3-58.7c0-23.4-9.1-44.7-24-60.6c0,0,0,0,0,0c-15.5-16.5-37.2-27-61.4-27.9l-1.7,0
		c-0.4,0-0.9,0-1.3,0c-0.4,0-0.9,0-1.3,0l-1.7,0c-24.2,0.8-45.9,11.4-61.4,27.9c0,0,0,0,0,0c0,0,0,0,0,0c-14.9,15.8-24,37.2-24,60.6
		c0,22.5,8.5,43.1,22.3,58.7c0,0,0,0.1,0,0.1c0.1,0.1,0.1,0.1,0.2,0.2c15.6,17.4,38,28.7,62.9,29.5l1.7,0.1c0.4,0,0.9,0,1.3,0
		c0.4,0,0.9,0,1.3,0l1.7,0h0c25-0.9,47.4-12.1,63-29.6C959.9,533.7,960,533.7,960.1,533.5C960.1,533.6,960.1,533.6,960.1,533.5
		L960.1,533.5z M811.5,477.9h36.7c0.3,12.9,2.9,25.5,7.4,37.3c-8.7,3.1-17,7.4-24.8,12.6C819.3,514.2,812.2,496.9,811.5,477.9
		L811.5,477.9z M832.4,420c7.6,4.9,15.7,8.9,24.1,11.9c-5.2,12.5-8,26.1-8.4,40h-36.7C812.2,451.9,820,433.8,832.4,420L832.4,420z
		 M976.2,471.8h-36.7c-0.4-13.9-3.2-27.4-8.4-40c8.4-3,16.5-6.9,24.1-11.9C967.7,433.8,975.5,451.9,976.2,471.8L976.2,471.8z
		 M890.8,432c-8.8-0.2-17.5-1.6-25.9-3.9c6.2-12.7,14.9-24.2,25.9-33.7V432z M890.8,438.1v33.7h-36.5c0.4-13.3,3.2-26.2,8.1-38.1
		C871.5,436.4,881.1,437.8,890.8,438.1L890.8,438.1z M896.9,438.1c9.7-0.3,19.2-1.7,28.4-4.4c5,11.9,7.8,24.8,8.1,38.1h-36.6V438.1z
		 M896.9,432v-37.6c10.9,9.5,19.7,21,25.9,33.7C914.4,430.4,905.7,431.7,896.9,432L896.9,432z M928.7,426.2
		c-5.9-12.3-14-23.5-24.1-33.1c17.9,2.3,34,10.4,46.4,22.4C943.9,419.9,936.5,423.5,928.7,426.2L928.7,426.2z M859,426.2
		c-7.8-2.7-15.3-6.3-22.3-10.7c12.4-11.9,28.5-20,46.4-22.4C873,402.7,864.9,413.9,859,426.2L859,426.2z M854.2,477.9h36.5v30.7
		c-10.1,0.3-20,1.8-29.5,4.7C857,502.1,854.6,490.2,854.2,477.9L854.2,477.9z M890.8,514.7v40.7c-11.7-10.2-20.9-22.6-27.1-36.4
		C872.4,516.4,881.5,514.9,890.8,514.7L890.8,514.7z M896.9,555.3v-40.7c9.3,0.3,18.4,1.7,27.1,4.3
		C917.8,532.7,908.6,545.1,896.9,555.3L896.9,555.3z M896.9,508.6v-30.7h36.6c-0.3,12.3-2.8,24.2-7.1,35.4
		C916.9,510.4,907,508.8,896.9,508.6L896.9,508.6z M939.6,477.9h36.7c-0.7,19-7.8,36.3-19.3,49.9c-7.8-5.3-16.1-9.5-24.8-12.6
		C936.7,503.4,939.2,490.8,939.6,477.9L939.6,477.9z M834.9,532.4c7.2-4.8,14.9-8.7,22.9-11.5c5.9,13.3,14.5,25.4,25.3,35.7
		C864.3,554.1,847.5,545.3,834.9,532.4L834.9,532.4z M904.6,556.6c10.8-10.3,19.3-22.4,25.3-35.7c8,2.9,15.7,6.7,23,11.5
		C940.2,545.3,923.4,554.1,904.6,556.6L904.6,556.6z M904.6,556.6"/>
</g>
</svg>
