<svg width="100" height="100" xmlns="http://www.w3.org/2000/svg" xmlns:svg="http://www.w3.org/2000/svg"><path d="m5.230686,39.899285l0,6.102516l6.312947,-5.471219l0,25.146571l5.786869,0l0,-31.354307l-5.786869,0l-6.312947,5.576439zm40.928942,3.261688c0,-5.576436 -3.998196,-9.048555 -9.469421,-9.048555c-5.366002,0 -9.574636,3.472119 -9.574636,9.15377l5.681652,0c0,-3.051254 1.893883,-3.998199 3.787765,-3.998199c2.419965,0 3.787773,1.578237 3.787773,3.892985c0,1.47302 -0.52608,2.419965 -1.578239,3.787768l-11.678953,13.572834l0,5.155578l19.04406,0l0,-5.155578l-12.099817,0l8.732909,-10.100712c2.209536,-2.525177 3.366908,-4.208628 3.366908,-7.25989l0,0zm19.991001,6.312947c2.104314,-1.052157 3.577336,-3.051259 3.577336,-6.418161c0,-5.260787 -3.998204,-8.943341 -9.57464,-8.943341c-5.260793,0 -9.469421,3.366902 -9.574635,8.943341l5.68165,0c0.10522,-2.419965 1.683451,-3.78777 3.892985,-3.78777c2.104319,0 3.787765,1.367805 3.787765,3.998199c0,2.209534 -1.157374,3.892987 -3.998199,3.892987l-0.841726,0l0,4.945144l0.841726,0c2.840825,0 4.419067,1.683446 4.419067,4.313842c0,2.840825 -1.788671,4.313848 -4.208633,4.313848c-2.209534,0 -4.208633,-1.262588 -4.313848,-4.103419l-5.68165,0c0.105214,6.523387 4.839925,9.258992 9.995498,9.258992c5.366007,0 9.890283,-3.051259 9.890283,-9.364206c0.105214,-3.682545 -1.683451,-5.892079 -3.892979,-7.049456l0,0zm25.77786,6.31295l0,-5.78687l-5.471216,0l0,5.78687l-6.628596,0l10.732004,-21.464023l-6.207722,0l-10.732014,21.464023l0,5.471216l12.836323,0l0,4.419067l5.471222,0l0,-4.419067l2.840825,0l0,-5.471216l-2.840825,0l0,0z"/></svg>