<svg width="2050" height="2048" xmlns="http://www.w3.org/2000/svg" xmlns:svg="http://www.w3.org/2000/svg" preserveAspectRatio="xMidYMid"><path d="m1991.647217,1065.506836l-927.501709,924.429321c-39.046021,38.917969 -87.949463,58.376831 -136.724976,58.376831c-48.903442,0 -97.742859,-19.458862 -136.78894,-58.376831l-732.207985,-729.839478c-78.091938,-77.835938 -78.091938,-199.454468 0,-277.290405l927.50193,-924.429356c34.373169,-38.917944 83.020752,-58.376919 136.78894,-58.376919l732.271851,0c107.280396,0 195.229736,87.565384 195.229736,199.454483l0,729.839523c0,48.647461 -19.522949,97.294861 -58.56897,136.21283l0.000122,0zm-136.660767,-870.917023l-732.271851,0l-927.502014,924.42923l732.272095,729.839722l927.501648,-924.429382l0,-729.839569l0.000122,0zm-1015.515198,1269.953888c-14.72229,0 -24.451782,-4.928711 -34.181213,-14.722168c-19.522888,-19.39502 -19.522888,-48.647461 0,-68.04248l395.452393,-398.972961c19.523071,-19.458984 48.775391,-19.458984 68.298462,0c19.522949,19.458984 19.522949,48.6474 0,68.106384l-395.324463,398.909058c-4.928772,9.793457 -19.52301,14.722168 -34.181152,14.722168l-0.064026,0zm620.062805,-1124.011658c136.660767,0 248.998047,112.01712 244.069092,243.237183c0,136.34082 -107.408203,248.229919 -244.069092,248.229919c-131.860107,0 -244.133301,-112.01709 -244.133301,-248.165894c0,-131.220093 107.408325,-243.237183 244.133301,-243.237183l0,-0.064026zm0,389.179382c78.092041,0 146.454346,-63.177612 146.454346,-145.942261c0,-77.771912 -63.497559,-145.942322 -146.454346,-145.942322c-78.091919,0 -146.454468,68.17041 -146.454468,145.942322c0,77.899841 63.369751,145.942261 146.454468,145.942261zm-795.769653,510.98999c-9.729492,9.729614 -19.52301,14.594238 -34.181274,14.594238c-14.594177,0 -24.323669,-4.864502 -34.117188,-14.594238c-19.522827,-19.458862 -19.522827,-48.647339 0,-68.106445l395.388428,-398.972778c19.52301,-19.459045 48.839355,-19.459045 68.362427,0c19.522949,19.459045 19.522949,48.6474 0,68.170471l-395.452332,398.908752l-0.000061,0z"/></svg>