<svg xmlns="http://www.w3.org/2000/svg" height="2048" width="2297.856" enable-background="new 711.7 -252 72.5 72.5" viewBox="711.7 -252 2297.856 2048"><path d="M1588.244 1202.08l-225.28-593.92h-65.536l-233.472 593.92c-12.288 4.096-20.48 4.096-32.768 12.288-12.288 4.096-20.48 8.192-32.768 16.384v36.864h221.184v-36.864c-24.576-12.288-49.152-24.576-77.824-28.672l53.248-147.456h200.704l53.248 147.456-36.864 12.288c-12.288 4.096-24.576 8.192-36.864 16.384v36.864h282.624v-36.864c-8.192-4.096-20.48-12.288-32.768-16.384-16.384-8.192-24.576-8.192-36.864-12.288zm-372.736-204.8l61.44-172.032 20.48-81.92 16.384 77.824 57.344 176.128h-155.648zM2915.348-252h-1126.4c-49.152 0-90.112 40.96-90.112 90.112l-4.096 442.368H752.66c-24.576 0-40.96 28.672-40.96 53.248v1171.456c0 24.576 20.48 45.056 45.056 45.056h405.504v200.704c0 16.384 8.192 32.768 24.576 40.96 8.192 4.096 12.288 4.096 20.48 4.096s20.48-4.096 28.672-8.192l303.104-237.568h434.176c24.576 0 45.056-20.48 45.056-45.056v-495.616h98.304c16.384 0 40.96 8.192 53.248 16.384l237.568 188.416c16.384 12.288 28.672 16.384 45.056 16.384 28.672 0 61.44-24.576 61.44-69.632v-155.648h405.504c49.152 0 90.112-40.96 90.112-90.112V-165.984C3005.46-211.04 2964.5-252 2915.348-252zM1940.5 1468.32h-409.6c-8.192 0-28.672-4.096-36.864 0l-249.856 204.8v-163.84c0-24.576-16.384-40.96-40.96-40.96h-409.6V362.4h901.12l8.192 557.056c0 49.152 40.96 90.112 90.112 90.112l147.456 8.192v450.56zm983.04-540.672h-413.696c-49.152 0-90.112 32.768-90.112 81.92v106.496L2219.028 956.32c-28.672-20.48-81.92-20.48-118.784-20.48h-327.68V-170.08h1146.88V927.648zM1981.46 812.96h49.152V772h196.608V522.144h-245.76V812.96zm40.96-245.76h163.84v163.84h-163.84V567.2zm-81.92-409.6h327.68v40.96H1940.5V157.6zm40.96-122.88h245.76v40.96h-245.76V34.72zm368.64 778.24h57.344V772h258.048v36.864h57.344V485.28h-368.64v327.68zm40.96-286.72h286.72v204.8h-286.72v-204.8zM2759.7 362.4l-86.016-8.192 4.096-155.648-200.704-20.48 36.864-102.4h204.8l8.192-40.96h-430.08l8.192 40.96h122.88c-4.096 28.672 4.096 90.112 0 122.88h-122.88v40.96h81.92c-8.192 45.056 8.192 86.016 0 122.88l-122.88-8.192v49.152h491.52v-49.152l4.096 8.192zm-163.84 0h-163.84c8.192-36.864 32.768-77.824 40.96-122.88h122.88V362.4zm-614.4-81.92h245.76v40.96h-245.76v-40.96zm0 122.88h245.76v40.96h-245.76v-40.96z"/></svg>