<svg width="2654" height="2048" xmlns="http://www.w3.org/2000/svg" xmlns:svg="http://www.w3.org/2000/svg"><path d="m2397.133057,2047.710693l-171.564941,-492.026733l-686.108032,0l-171.337524,492.026733l-257.385376,0l600.287842,-1639.078369l343.053833,0l600.287842,1639.078369l-257.233643,0zm-514.543213,-1392.91333l-257.30957,654.797485l514.543213,4.017944l-257.157837,-658.81543l-0.075806,0zm-620.757324,551.615845l-89.838501,242.071167c-167.395142,-158.752563 -314.396667,-333.350098 -400.141174,-547.673645c-89.838501,281.721375 -294.154785,535.695129 -686.108276,738.116028l-85.668755,-246.089233c412.423027,-202.420776 514.467461,-408.784058 600.212029,-734.173645c8.187805,-35.632202 12.281677,-83.394409 12.281677,-83.394409l-612.569511,0l0,-245.861755l600.287834,0l0,-329.407715l257.309509,0l0,325.465454l596.193909,0l0,245.937561l-600.287842,0c85.668762,329.407715 236.839966,472.315369 408.329102,635.010193z"/></svg>