<svg width="100" height="100" xmlns="http://www.w3.org/2000/svg" xmlns:svg="http://www.w3.org/2000/svg"><path d="m26.581152,35.28817c-3.00243,0 -5.404373,2.401944 -5.404373,5.704641s2.401942,5.704593 5.404373,5.704593s5.404371,-2.401945 5.404371,-5.704593s-2.401944,-5.704641 -5.404371,-5.704641zm0,8.106535c-1.501192,0 -2.702162,-1.200922 -2.702162,-2.702162s1.20097,-2.702162 2.702162,-2.702162s2.702211,1.200973 2.702211,2.702162s-1.50124,2.702162 -2.702211,2.702162zm65.452856,-18.014527c-3.002187,0 -5.404227,2.401938 -5.404227,5.704591s2.402041,5.70464 5.404227,5.70464s5.404227,-2.401942 5.404227,-5.70464s-2.401553,-5.704591 -5.404227,-5.704591zm0,8.406802c-1.501337,0 -2.702111,-1.200972 -2.702111,-2.702211s1.200774,-2.702167 2.702111,-2.702167s2.702117,1.200972 2.702117,2.702167s-1.200774,2.702211 -2.702117,2.702211zm-37.83056,29.423759c-3.002378,0 -5.404321,2.401944 -5.404321,5.704591s2.401944,5.704491 5.404321,5.704491s5.404227,-2.401797 5.404227,-5.704491s-2.101483,-5.704591 -5.404227,-5.704591zm0,8.406802c-1.501331,0 -2.702108,-1.200973 -2.702108,-2.702211s1.200777,-2.702164 2.702108,-2.702164s2.702111,1.200973 2.702111,2.702164c0.300563,1.20097 -1.200774,2.702211 -2.702111,2.702211zm-21.317171,-26.421378l-1.801457,2.101727l16.813553,16.813556l1.80146,-2.101683l-16.813556,-16.8136zm26.121252,16.8136l1.801407,2.101683l26.721548,-26.72155l-2.10197,-1.801457l-26.420985,26.421325l0,0zm-56.445765,0l2.101696,2.101683l16.513319,-16.813556l-1.80141,-2.101727l-16.813605,16.8136z"/></svg>