<svg width="2048" height="2048" xmlns="http://www.w3.org/2000/svg" xmlns:svg="http://www.w3.org/2000/svg"><path d="M568.423 2048.2L0 1479.778 923.1 554.33l300.653 300.653c39.93 39.93 39.93 105.698 0 145.63-39.93 39.93-105.7 39.93-145.63 0L925.45 847.935l-634.19 631.842 277.165 277.164 244.28-244.28c39.93-39.93 105.7-39.93 145.63 0 39.93 39.93 39.93 105.698 0 145.628l-389.91 389.91zM1125.1 1493.87l-251.327-251.327c-39.93-39.93-39.93-105.698 0-145.628 39.93-39.93 105.7-39.93 145.63 0l105.698 105.698 631.842-631.842-277.164-279.512-265.42 265.42c-39.93 39.93-105.7 39.93-145.63 0-39.93-39.93-39.93-105.698 0-145.63L1479.778 0 2048.2 570.77l-923.1 923.1z"/></svg>