<svg width="1775" height="2048" xmlns="http://www.w3.org/2000/svg" xmlns:svg="http://www.w3.org/2000/svg"><path d="m1690.642334,800.665344l-84.395386,0l0,-140.659302c0,-364.758148 -341.952271,-660.006042 -718.591431,-660.006042c-376.639038,0 -718.591263,295.38446 -718.591263,659.869446l0,140.659302l-84.668701,0c-46.43121,0 -84.395554,36.871826 -84.395554,81.937378l0,810.224792c0,182.99353 204.843582,355.744873 394.392212,355.744873l1022.852295,0c189.275513,0 358.066528,-172.614868 358.066528,-355.744873l0,-810.224792c0,-45.065552 -38.237427,-81.937378 -84.668701,-81.937378l0,0.136597zm-1204.480225,-140.795898c0,-215.768555 178.623657,-390.56839 401.493408,-390.56839s401.493408,174.799835 401.493408,390.56839l0,140.659302l-802.986816,0l0,-140.659302z"/></svg>