<svg width="100" height="100" xmlns="http://www.w3.org/2000/svg" xmlns:svg="http://www.w3.org/2000/svg"><path d="m36.107074,15.203943"/><path d="m63.892934,8.321204"/><path d="m36.107074,15.203943"/><path d="m93.46321,93.973043l-29.570281,-7.392572l-27.785856,7.010196l-29.570281,-7.392568l0,-80.17114l29.570281,7.392571l27.785856,-7.010197l29.570281,7.392569l0,80.17114l0,0l0,0.000001zm-83.357587,-10.451572l26.00145,6.500365l27.785861,-7.010196l26.001445,6.50036l0,-72.906018l-26.001445,-6.500364l-27.785861,7.010196l-26.00145,-6.500362l0,72.906017l0,0l0,0.000001z"/><path d="m34.322661,15.203943l3.441371,0l0,76.602303l-3.441371,0l0,-76.602303z"/><path d="m62.108524,8.321204l3.441366,0l0,76.602309l-3.441366,0l0,-76.602309z"/><path d="m8.703583,44.90168l27.785869,7.010194l-0.89221,3.313912l-27.658409,-7.010196l0.76475,-3.31391z"/><path d="m63.510563,44.90168l0.892207,3.31391l-27.785863,7.010196l-0.892205,-3.313912l27.785861,-7.010194z"/><path d="m64.275311,44.90168l27.785861,6.882729l-0.892197,3.313912l-27.658413,-6.882731l0.764749,-3.31391l0,0z"/></svg>