<svg xmlns="http://www.w3.org/2000/svg" viewBox="0 0 2978.8149 2048" height="2048" width="2978.815" preserveAspectRatio="xMidYMid"><path d="M2925.29 1619.782c-39.1 93.09-102.4 176.873-175.478 242.036-73.17 65.164-160.86 116.364-258.327 148.946-112.08 37.236-233.937 46.545-350.953 27.927-107.054-13.963-209.454-55.854-297.24-111.708-117.014-74.473-209.453-186.182-258.326-311.855-39.098-97.745-58.46-200.145-53.62-302.545 5.026-102.4 34.257-200.146 87.877-288.582 43.753-83.782 107.055-153.6 185.25-214.11 116.83-88.436 263.076-139.635 414.256-148.944 150.992-9.31 306.92 32.58 433.616 111.71 82.85 51.2 156.02 121.017 209.455 204.8 58.648 88.435 97.56 190.835 112.175 297.89 14.71 116.363-4.84 237.38-48.686 344.436zm-297.334-516.655V912.29c-19.55 4.655-38.912 9.31-63.3 9.31-190.093 23.273-380.185 41.89-570.183 65.164v530.618c-53.62-18.618-112.082-18.618-160.86 4.654-29.232 13.964-53.622 37.237-68.237 69.82-9.774 27.926-4.84 65.162 9.774 88.435 14.523 23.274 43.753 41.892 72.984 51.2 34.164 13.965 68.235 13.965 102.4 9.31 43.753-4.654 82.85-27.927 107.054-60.51 14.71-18.617 19.55-46.545 19.55-69.817v-460.8l131.63-13.964c112.08-13.964 219.322-23.274 331.404-37.237v349.09c-39.098-13.963-77.917-18.617-116.922-9.308-39.1 9.31-78.01 27.927-97.467 60.51-14.615 23.27-19.55 51.2-14.615 79.126 4.84 27.928 24.204 46.546 48.687 65.165 34.257 23.272 78.196 32.58 117.108 32.58 43.753 0 92.532-18.617 121.763-51.2 19.55-23.27 34.164-51.2 29.23-83.78v-437.528zM975.872 423.564c-34.07-32.582-48.687-88.437-34.07-130.328 9.68-60.51 63.3-102.4 126.602-107.054 39.1-4.655 78.01 9.31 107.334 32.582 29.23 27.927 48.687 65.163 48.687 107.054 0 41.89-19.55 83.782-53.62 111.71-29.23 23.272-73.077 32.58-112.082 27.927-34.07-4.655-63.302-18.62-82.85-41.89zm699.764 228.072s-451.025-1.675-558.545 0c113.944-112.08 138.706-136.843 186.183-186.18 58.46 27.926 127.72 65.162 186.182 93.09 53.62-74.473 127.72-200.146 186.18-279.273 1.863-1.862 1.398-.93.56.93 53.62 83.596 132.19 199.494 185.623 278.342 19.55 32.582-19.55 60.51 0 93.09-46.825 2.794-186.182 0-186.182 0zM2141.09 93.09c-425.425-.93-877.846.932-1303.272 0-1.303 238.965 0 353.746 0 558.546v186.182c146.153 0 603.602-.93 744.727 0 0 35.84-2.327 59.113 0 93.09H744.727V744.73c1.304-113.013-.65-199.96 0-279.273.93-124.37 4.19-281.694 0-465.455 410.997 2.048 664.856 0 991.42 0h498.035v558.545c-68.887-75.962-49.06-42.82-93.09-93.09 1.86-170.636 2.792-189.16 0-372.364zM650.706 558.546h.93c-.93 24.95-.93 18.34-.93 0zm-278.34 0v558.546H1024c-5.586-65.628 0-79.126 0-93.09h372.364v930.91H0V372.363h651.636v93.09c-.186 25.414-.93 69.26-.93 93.09-159.65-4.002-156.766 0-278.342 0zm920.295 605.09h-87.784c-19.55 4.656-34.072 32.583-24.204 55.856 4.654 13.965 19.363 27.928 33.978 27.928h73.17c19.55 0 38.912-18.618 38.912-41.89 0-23.273-14.616-41.892-34.072-41.892zM1180.58 1382.4c0 18.618 19.548 37.236 34.07 37.236h73.17c19.55 0 38.912-18.618 34.07-41.89 0-23.273-14.614-41.892-34.07-41.892h-82.758c-19.55 4.655-29.23 27.928-24.39 46.546zm112.08 130.327h-68.235c-9.775-4.654-14.616-4.654-19.55 0-14.522 4.655-29.137 27.928-24.203 46.546 0 18.618 19.363 37.236 33.978 37.236h73.17c19.55 0 38.912-18.62 38.912-41.892 0-23.273-14.616-41.89-34.072-41.89zm-82.85 256h73.076c19.55 0 39.098-18.618 34.257-41.89 0-23.273-14.615-41.892-34.164-41.892h-68.144c0-4.654-4.84-4.654-9.68 0-14.616 4.655-29.232 23.273-29.232 41.89 0 23.274 14.616 41.892 34.072 41.892zm-837.446 0H1024v-558.545H372.364v558.545zm-278.62 4.655h92.624c24.39 0 43.753-18.618 43.753-41.89 0-23.274-19.362-41.892-43.752-46.546H98.676c0 4.654-9.774 4.654-14.615 4.654-19.548 4.655-34.163 18.618-34.163 37.236-4.84 23.273 19.55 46.546 43.752 46.546zm0-172.218h92.624c24.39 0 43.753-18.618 43.753-41.89 0-23.274-19.362-41.892-43.752-41.892h-82.85c-4.842-4.655-9.775-4.655-19.55 0-19.55 4.654-38.912 27.927-34.07 46.545 4.933 18.618 19.548 37.237 43.75 37.237zm0-176.873h92.624c24.39 0 43.753-18.617 43.753-41.89s-19.362-41.89-43.752-46.546H98.676c0 4.655-9.774 4.655-14.615 4.655-19.548 4.654-34.163 18.617-34.163 37.236-4.84 23.272 19.55 46.545 43.752 46.545zm-43.754-204.8c4.84 18.62 24.203 32.583 43.753 32.583h92.625c24.39 0 43.753-18.618 43.753-41.89 0-23.274-19.362-41.892-43.752-41.892H84.06c-24.39 4.655-39.097 27.928-34.163 51.2zm180.224-176.872c0-23.273-19.55-41.89-43.753-41.89H98.677c-4.933-9.31-9.774-9.31-14.615-4.655-19.548 4.654-29.23 18.618-34.163 37.236-4.84 18.617 9.774 37.236 24.39 46.544 9.774 4.655 19.55 4.655 29.23 4.655h82.85c24.39 0 43.754-23.274 43.754-41.892zM186.46 646.982H83.97c-19.55 4.654-34.164 23.273-34.164 46.545 0 23.273 24.39 41.89 43.752 37.237h92.72c24.39 0 43.752-23.273 43.752-41.89 0-23.274-19.363-41.892-43.753-41.892zm4.656 172.218h-92.44c-4.933 0-14.615 0-19.55 4.655-19.548 4.654-29.23 27.927-29.23 46.545 0 18.618 19.55 37.236 43.753 37.236h87.877c9.682 0 19.55 0 29.23-4.654 14.616-9.31 24.39-27.928 24.39-46.546-4.933-18.618-19.548-37.236-43.938-37.236z"/></svg>