<svg width="36" height="36" xmlns="http://www.w3.org/2000/svg" xmlns:svg="http://www.w3.org/2000/svg"><path d="M26.7,17.9c0,4.6-3.7,8.4-8.4,8.4S10,22.5,10,17.9l0,0H8.5l2-2.6l2,2.6H11c0,4.1,3.3,7.3,7.4,7.3 s7.3-3.3,7.3-7.4c0-4.1-3.3-7.3-7.3-7.3h-0.1v-1h0.1C23,9.6,26.7,13.3,26.7,17.9z"/><path d="M18.5,17.6L18.5,17.6c0.2,0.2,0.2,0.6,0,0.8l0,0c-0.2,0.2-0.6,0.2-0.8,0l0,0 c-0.2-0.2-0.2-0.6,0-0.8l0,0C18,17.4,18.3,17.4,18.5,17.6z"/><path d="M18.1,16.9c-0.2,0-0.4-0.2-0.4-0.4v-2.3c0-0.2,0.2-0.4,0.4-0.4c0.2,0,0.4,0.2,0.4,0.4l0,0v2.3 C18.5,16.7,18.3,16.9,18.1,16.9L18.1,16.9z"/><path d="M21.1,21.5c-0.1,0-0.2,0-0.3-0.1l-2.1-2.1c-0.2-0.2-0.1-0.4,0-0.6c0.2-0.2,0.4-0.1,0.6,0l2.1,2.1 c0.2,0.1,0.2,0.4,0,0.6C21.3,21.4,21.2,21.5,21.1,21.5z"/></svg>