<?xml version="1.0" encoding="utf-8"?>
<!-- Generator: Adobe Illustrator 22.0.0, SVG Export Plug-In . SVG Version: 6.00 Build 0)  -->
<svg version="1.1" id="Layer_1" xmlns="http://www.w3.org/2000/svg" xmlns:xlink="http://www.w3.org/1999/xlink" x="0px" y="0px"
	 viewBox="0 0 1920 1080" style="enable-background:new 0 0 1920 1080;" xml:space="preserve">
<g>
	<path d="M1093.1,446.7c-1.8-23.8-21.8-42.7-46.1-42.7H847.3c-25.5,0-46.3,20.8-46.3,46.3v179.5c0,25.5,20.8,46.3,46.3,46.3h223.9
		c25.5,0,46.3-20.8,46.3-46.3V487.4C1117.5,469.8,1107.6,454.5,1093.1,446.7L1093.1,446.7z M1068.2,629.7c0,11.7-9.5,21.2-21.2,21.2
		H847.3c-11.7,0-21.2-9.5-21.2-21.2V450.3c0-11.7,9.5-21.2,21.2-21.2H1047c11.7,0,21.2,9.5,21.2,21.2V629.7z M1068.2,629.7"/>
	<path d="M851.3,497.9h0.5c3.6,0,6.5-2.9,6.5-6.5v-23l19.5,26.8c1.2,1.7,3.2,2.7,5.3,2.7h0.6c0,0,0,0,0.1,0c0,0,0.1,0,0.1,0h0.5
		c3.6,0,6.5-2.9,6.5-6.5v-42.9c0-3.6-2.9-6.5-6.5-6.5h-0.5c-3.6,0-6.5,2.9-6.5,6.5v23l-19.5-26.8c-1.2-1.7-3.2-2.7-5.3-2.7H852
		c0,0,0,0-0.1,0c0,0-0.1,0-0.1,0h-0.5c-3.6,0-6.5,2.9-6.5,6.5v42.9C844.8,495,847.7,497.9,851.3,497.9L851.3,497.9z M851.3,497.9"/>
	<path d="M930.9,484.8h-20.4v-8.8h16.6c3.6,0,6.5-2.9,6.5-6.5V469c0-3.6-2.9-6.5-6.5-6.5h-16.6v-6.9h19.5c3.6,0,6.5-2.9,6.5-6.5
		v-0.5c0-3.6-2.9-6.5-6.5-6.5h-26.5c-3.6,0-6.5,2.9-6.5,6.5v42.9c0,3.6,2.9,6.5,6.5,6.5h27.4c3.6,0,6.5-2.9,6.5-6.5
		C937.5,487.8,934.5,484.8,930.9,484.8L930.9,484.8z M930.9,484.8"/>
	<path d="M960.2,497.9h0.4c0,0,0,0,0,0s0,0,0,0h0.3c2.8,0,5.3-1.8,6.2-4.4l8.2-24.2l8.1,24.2c0.9,2.7,3.4,4.4,6.2,4.4h0.4
		c0,0,0,0,0,0c0,0,0,0,0,0h0.3c2.8,0,5.3-1.8,6.2-4.4l14.5-42.9c0.7-2,0.3-4.2-0.9-5.9c-1.2-1.7-3.2-2.7-5.3-2.7h-0.7
		c-2.8,0-5.3,1.8-6.2,4.5l-8,24.3l-8.1-24.3c-0.9-2.7-3.4-4.5-6.2-4.5h-0.9c-2.8,0-5.3,1.8-6.2,4.5l-8.1,24.3l-8.1-24.3
		c-0.9-2.7-3.4-4.5-6.2-4.5h-0.7c-2.1,0-4.1,1-5.3,2.7c-1.2,1.7-1.6,3.9-0.9,5.9l14.5,42.9C954.9,496.1,957.4,497.9,960.2,497.9
		L960.2,497.9z M960.2,497.9"/>
	<path d="M1032.6,497.9c14.5,0,20.9-8.4,20.9-16.7c0.1-12.9-11.2-16.3-17.9-18.4c-7.5-2.3-8.2-3.2-8.2-5c0-1.1,2.6-2.3,6.5-2.3
		c2.6,0,5.7,0.8,7.5,1.9c3.1,1.8,7,0.9,8.9-2.1l0.2-0.4c0.9-1.5,1.2-3.3,0.8-5c-0.4-1.7-1.5-3.2-3-4.1c-4-2.4-9.4-3.9-14.5-3.9
		c-13.9,0-20.1,7.9-20.1,15.8c0,12.6,10.7,15.8,17.7,18c7.7,2.3,8.4,3.3,8.3,5.4c0,2.2-3.8,3.2-7.4,3.2c-3.5,0-7.2-1.5-9.4-3.7
		c-1.2-1.2-2.9-1.9-4.6-1.9h0c-1.7,0-3.4,0.7-4.6,1.9l-0.4,0.4c-1.2,1.2-1.9,2.9-1.9,4.7c0,1.7,0.7,3.4,2,4.6
		C1018.5,495,1025.7,497.9,1032.6,497.9L1032.6,497.9z M1032.6,497.9"/>
	<path d="M918.9,516.9h-62.1c-6.9,0-12.5,5.6-12.5,12.5c0,6.9,5.6,12.5,12.5,12.5h62.1c6.9,0,12.5-5.6,12.5-12.5
		C931.4,522.5,925.8,516.9,918.9,516.9L918.9,516.9z M918.9,516.9"/>
	<path d="M918.9,558.6h-62.1c-6.9,0-12.5,5.6-12.5,12.5c0,6.9,5.6,12.5,12.5,12.5h62.1c6.9,0,12.5-5.6,12.5-12.5
		C931.4,564.3,925.8,558.6,918.9,558.6L918.9,558.6z M918.9,558.6"/>
	<path d="M918.9,600.4h-62.1c-6.9,0-12.5,5.6-12.5,12.5c0,6.9,5.6,12.5,12.5,12.5h62.1c6.9,0,12.5-5.6,12.5-12.5
		C931.4,606,925.8,600.4,918.9,600.4L918.9,600.4z M918.9,600.4"/>
	<path d="M1046.3,515.1h-95.7c-4,0-7.3,3.3-7.3,7.3V620c0,4,3.2,7.3,7.3,7.3h95.7c4,0,7.3-3.2,7.3-7.3v-97.6
		C1053.5,518.4,1050.3,515.1,1046.3,515.1L1046.3,515.1z M1046.3,515.1"/>
</g>
</svg>
