<svg width="36" height="36" xmlns="http://www.w3.org/2000/svg" xmlns:svg="http://www.w3.org/2000/svg"><path d="M18.3,17.6L18.3,17.6c0.2,0.2,0.2,0.6,0,0.8l0,0c-0.2,0.2-0.6,0.2-0.8,0l0,0 c-0.2-0.2-0.2-0.6,0-0.8l0,0C17.7,17.4,18.1,17.4,18.3,17.6z"/><path d="M17.8,16.9c-0.2,0-0.4-0.2-0.4-0.4v-2.3c0-0.2,0.2-0.4,0.4-0.4c0.2,0,0.4,0.2,0.4,0.4l0,0v2.3 C18.2,16.7,18,16.9,17.8,16.9L17.8,16.9z"/><path d="M20.8,21.5c-0.1,0-0.2,0-0.3-0.1l-2.1-2.1c-0.2-0.1-0.2-0.4,0-0.5s0.4-0.2,0.5,0c0,0,0,0,0,0l2.1,2.1 c0.2,0.1,0.2,0.4,0,0.6C21,21.4,20.9,21.5,20.8,21.5z"/><path d="M15.7,10.2L15.7,10.2L15.7,10.2z"/><path d="M26.9,18c0,4.6-3.7,8.4-8.4,8.4s-8.4-3.7-8.4-8.4c0,0,0-0.1,0-0.1h0.4h0.6c0,0.1,0,0.1,0,0.2 c0,4.1,3.3,7.4,7.4,7.4s7.4-3.3,7.4-7.4s-3.3-7.3-7.4-7.3c-0.2,0-0.4,0-0.6,0v1.7L16.2,11l-0.3-0.3l-0.5-0.4l0.3-0.2l0,0l2.3-1.7 v1.3h0.6C23.1,9.7,26.8,13.4,26.9,18z"/></svg>