<svg width="40" height="40" xmlns="http://www.w3.org/2000/svg" xmlns:svg="http://www.w3.org/2000/svg"><path d="m27.549727,0c-6.887432,0 -12.522603,5.635171 -12.522603,12.522603c0,1.627938 0.375678,3.130651 0.876582,4.508137l-15.15235,15.15235c-0.500904,0.500904 -0.751356,0.876582 -0.751356,1.502712l0,3.756781c0,1.377486 1.127034,2.504521 2.504521,2.504521l3.756781,0c0.62613,0 1.127034,-0.250452 1.502712,-0.751356l1.753164,-1.753164l2.880199,0c1.377486,0 2.504521,-1.127034 2.504521,-2.504521l0,-2.504521l2.504521,0c1.377486,0 2.504521,-1.127034 2.504521,-2.504521l0,-2.880199l3.005425,-3.005425c1.377486,0.500904 2.880199,0.876582 4.508137,0.876582c6.887432,0 12.522603,-5.635171 12.522603,-12.522603s-5.509945,-12.397377 -12.397377,-12.397377zm0,22.540686c-1.87839,0 -3.631555,-0.500904 -5.009041,-1.377486l-0.375678,0.375678l-1.377486,1.377486l-2.379295,2.379295c-0.500904,0.500904 -0.751356,1.127034 -0.751356,1.753164l0,2.880199l-2.504521,0c-1.377486,0 -2.504521,1.127034 -2.504521,2.504521l0,2.504521l-2.880199,0c-0.62613,0 -1.25226,0.250452 -1.753164,0.751356l-1.753164,1.753164l-3.506329,0l0,-3.631555l14.651446,-14.52622c0,0 0,0 0,0l1.87839,-1.87839c-0.876582,-1.502712 -1.377486,-3.255877 -1.377486,-5.009041c0,-5.509945 4.508137,-10.018083 10.018083,-10.018083c5.509945,0 10.018083,4.508137 10.018083,10.018083s-4.883815,10.143309 -10.393761,10.143309z"/><path d="m34.812837,10.268535c-1.377486,-2.003617 -3.130651,-3.631555 -5.134267,-5.134267c-0.375678,-0.250452 -0.751356,-0.250452 -1.127034,-0.125226c-1.753164,0.62613 -2.880199,1.753164 -3.506329,3.506329c0,0.125226 -0.125226,0.250452 -0.125226,0.375678c0,0.250452 0.125226,0.500904 0.250452,0.751356c1.377486,2.003617 3.130651,3.631555 5.134267,5.134267c0.375678,0.250452 0.751356,0.250452 1.127034,0.125226c1.753164,-0.62613 2.880199,-1.753164 3.506329,-3.506329c0,-0.125226 0.125226,-0.250452 0.125226,-0.375678c0,-0.250452 -0.125226,-0.500904 -0.250452,-0.751356zm-3.756781,3.506329c-1.87839,-1.377486 -3.506329,-3.005425 -4.758589,-4.758589c0.500904,-1.377486 1.377486,-2.254069 2.754973,-2.754973c1.87839,1.377486 3.506329,2.880199 4.758589,4.758589c-0.500904,1.377486 -1.377486,2.254069 -2.754973,2.754973z"/></svg>