<svg width="1868" height="2048" xmlns="http://www.w3.org/2000/svg" xmlns:svg="http://www.w3.org/2000/svg"><path d="m1867.780029,433.59201c0,-13.341003 -9.02002,-24.128021 -20.01001,-33.352997l-446.930054,-380.227015c-14.569946,-12.319529 -33.359985,-20.011999 -46.699951,-20.011999l-1307.445415,0c-26.6826,0 -46.694599,20.011999 -46.694599,46.694599l0,1954.505352c0,20.01001 20.011999,46.690063 46.694599,46.690063l1774.395367,0c20.01001,0 46.690063,-20.01001 46.690063,-46.690063l0,-1567.607941zm-1781.061531,1514.237946l0,-1867.782158l1240.741463,0l0,353.544212c0,20.011993 20.01001,46.694977 46.690063,46.694977l400.23999,0l0,1467.542969l-1687.671516,0zm847.172493,-1120.668945c60.036011,-246.814026 18.845032,-292.247009 6.671021,-313.520996c-12.174011,-21.274017 -53.174011,-31.253021 -73.377014,-26.682007c-20.203003,4.570984 -30.549011,10.023987 -53.36499,53.36499c-22.815979,43.341003 13.341003,193.448975 53.36499,293.507996c-33.354004,146.755005 -100.059998,326.858948 -160.096008,473.618958c-160.096008,73.369995 -246.813995,153.420044 -253.484985,220.130005c-6.670013,26.680054 31.274994,85.730103 44.617004,92.400024c13.34198,6.680054 10.498993,8.75 40.789001,11.050049c30.291992,2.299927 68.018982,-23.400024 114.713989,-83.440063c33.353027,-46.689941 66.705994,-106.72998 100.059998,-186.779907c113.401001,-53.360107 253.486023,-100.060059 373.555969,-126.740112c66.710083,66.710083 126.73999,100.060059 180.109985,100.060059c40.02002,0 73.380005,-20.01001 93.390015,-53.359985c26.680054,-33.359985 33.349976,-66.709961 20.01001,-93.390015c-20.01001,-33.359985 -60.039917,-46.699951 -126.73999,-46.699951c-40.030029,0 -86.719971,6.669922 -140.089966,20.009888c-86.719971,-93.389893 -166.763,-213.45697 -220.129028,-333.528931zm-400.239014,733.769043c-20.011963,-20.01001 -20.011963,-26.680054 -20.011963,-33.350098c6.670959,-20.01001 40.023987,-66.709961 126.742981,-120.069946c-66.70697,140.079956 -106.731018,153.420044 -106.731018,153.420044zm333.53302,-993.924072c7.628052,-8.413391 6.485168,-6.879944 12.714233,-8.342407l7.297791,1.671448c6.669983,6.670959 13.341003,46.69397 0,140.083984c-26.683044,-60.036011 -27.640076,-124.999634 -20.012024,-133.413025zm-73.377014,693.744019l113.401001,-333.528992c46.694031,86.718994 106.731018,173.439026 160.091064,246.809021c-93.385071,20.02002 -186.774048,53.369995 -273.492065,86.719971zm500.302002,-46.689941c33.349976,0 53.599976,2.549927 60.030029,6.669922c6.429932,4.119995 2.290039,9.330078 -5.700073,20.97998c-7.98999,11.640015 -27.649902,19.040039 -34.319946,19.040039c-20.01001,0 -53.369995,-13.339966 -86.719971,-46.689941l66.709961,0z"/></svg>