<svg width="1151" height="2048" xmlns="http://www.w3.org/2000/svg" xmlns:svg="http://www.w3.org/2000/svg"><path d="m448.587128,65.012634c0,591.61499 -448.587128,968.688293 -448.587128,968.688293l253.54924,695.63501l643.625015,0l253.549255,-695.63501s-448.587158,-377.073425 -448.587158,-968.688293c0,-32.506317 -65.012634,-65.012634 -65.012634,-65.012634l0,1085.71106c45.508789,13.002441 52.010071,39.007568 52.010071,91.017578c0,65.012573 -52.010071,104.02002 -117.022766,104.02002s-117.022675,-39.007446 -117.022675,-104.02002c0,-52.01001 6.501312,-71.513916 52.010132,-91.017578l0,-1085.71106c6.501251,0 -58.511414,32.506317 -58.511414,65.012634l0.000061,0zm-383.574493,1729.335876l0,253.549316l1027.199524,0l0,-253.549316l-1027.199524,0z"/></svg>