<svg width="2284" height="2048" xmlns="http://www.w3.org/2000/svg" xmlns:svg="http://www.w3.org/2000/svg"><path d="m2216.177246,0l-2148.414787,0c-37.524006,0 -67.762459,29.142195 -67.762459,65.38723l0,1286.961403c0,36.039551 30.215612,65.273071 67.762459,65.273071l2148.414787,0c37.500977,0 67.693848,-29.233521 67.693848,-65.273071l0,-1286.961403c0,-36.245035 -30.192871,-65.38723 -67.693848,-65.38723zm-89.802002,1260.103027l-1968.856659,0l0,-1102.584427l1968.856659,0l0,1102.584427z"/><rect height="78.725036" width="472.510087" y="945.088691" x="1181.332315"/><rect height="78.770713" width="708.799389" y="787.570103" x="1181.332315"/><rect height="157.518588" width="708.799389" y="315.014338" x="1181.332315"/><rect height="78.747875" width="708.799389" y="630.051514" x="1181.332315"/><path d="m630.051514,945.088684c173.962402,0 314.991516,-141.051819 314.991516,-315.014282c0,-173.985321 -141.029114,-315.037231 -314.991516,-315.037231s-315.014343,141.05191 -315.014343,315.037231c-0.022827,173.939636 141.05188,315.014282 315.014343,315.014282zm22.838684,-292.198425l268.446228,0c-11.099609,142.924622 -125.521545,257.346558 -268.446228,268.446167l0,-268.446167z"/><polygon points="1013.559182863668,1496.3694277942996 619.8197705977655,2047.6730660373287 777.3155180795729,2047.6730660373287 1102.5844503209519,1592.3147695578227 1102.5844503209519,2047.6730660373287 1260.0801978027594,2047.6730660373287 1260.0801978027594,1592.3147695578227 1585.326303879032,2047.6730660373287 1742.8447904031782,2047.6730660373287 1349.082639094937,1496.3694277942996 "/></svg>