<svg xmlns="http://www.w3.org/2000/svg" viewBox="0 0 2593.3191 2048" height="2048" width="2593.319" preserveAspectRatio="xMidYMid"><path  d="M2511.84 2048H414.285c-40.67 0-71.243-25.112-81.342-65.51L1.978 425.256c-5.05-20.2 0-45.31 10.236-60.46 9.963-20.473 30.3-30.436 55.957-35.485L1946.68 1.897c20.472-5.05 45.857 0 61.143 15.013 20.473 10.235 30.573 30.297 35.76 50.496l85.708 479.044h327.55c45.86 0 136.48 91.168 136.48 136.48v1289.733c0 40.125-35.484 75.337-81.477 75.337zM1895.91 178.228L185.408 475.89l300.255 1411.2h40.944V571.016c-.137-44.63-26.478-24.566 19.516-24.566H1961.01l-65.102-368.086zM682.603 682.93l6.824 1203.75H2430.5l26.34-1203.75H682.602zM2234.65 1776.405H900.697c-45.038 0-79.704-30.435-79.704-69.604 0-39.306 34.803-69.877 79.704-69.877h1338.867c45.038 0 79.704 30.57 79.704 69.605 0 39.58-39.852 69.877-84.618 69.877zm8.735-275.69H1576c-42.31 0-75.065-29.75-75.065-67.83 0-37.94 32.756-67.557 75.064-67.557h667.385c42.31 0 75.064 29.616 75.064 67.558 0 38.214-32.756 67.694-75.065 67.694zm0-272.958H1576c-42.31 0-75.065-29.48-75.065-67.42 0-38.216 32.756-67.56 75.064-67.56h667.385c42.31 0 75.064 29.48 75.064 67.56 0 37.94-32.756 67.556-75.065 67.556zm0-236.11H1576c-42.31 0-75.065-38.214-75.065-86.8 0-48.725 32.756-86.53 75.064-86.53h667.385c42.31 0 75.064 37.805 75.064 86.53 0 48.722-32.756 86.663-75.065 86.663zm-954.812 509.206H897.286c-43.4 0-77.248-37.67-77.248-85.983V904.3c0-48.45 33.847-85.982 77.248-85.982h391.287c43.264 0 76.975 37.532 76.975 85.982v510.707c0 48.314-33.71 85.982-77.112 85.982zm-60.46-544.554h-270.23v411.348h270.23v-411.35z"/></svg>