<svg width="2834" height="2048" xmlns="http://www.w3.org/2000/svg" xmlns:svg="http://www.w3.org/2000/svg" preserveAspectRatio="xMidYMid"><path d="m2456.201172,2048.356445c0,0 -2037.333679,-1.259766 -2037.333679,-1.259766c-295.726753,0 -402.648188,-219.82666 -417.922679,-336.038818c0,0 -0.944814,-6.298706 -0.944814,-6.298706c0,0 0.157469,-6.141235 0.157469,-6.141235c0,0 0.787345,-1223.848938 0.787345,-1223.848938c0,0 629.875926,0 629.875926,0c0,0 0,-472.406947 0,-472.406947c0,0 2203.306213,-2.362035 2203.306213,-2.362035c0,0 0,1685.390503 0,1685.390503c0.157227,145.973755 -100.465332,362.965942 -377.925781,362.965942zm-1825.380432,-471.304565c0,0 -157.468964,0 -157.468964,0c0,0 0,-157.468994 0,-157.468994c0,0 157.468964,0 157.468964,0c0,0 0,-314.937988 0,-314.937988c0,0 -157.468964,0 -157.468964,0c0,0 0,-157.468994 0,-157.468994c0,0 157.468964,0 157.468964,0c0,0 0,-314.937927 0,-314.937927c0,0 -472.406952,0 -472.406952,0c0,0 0,1102.282898 0,1102.282898c6.771164,35.587891 83.458557,119.046387 260.453705,119.046387c60.310608,0 103.142151,-13.699707 127.392395,-40.312012c35.115601,-38.737305 29.919128,-100.465088 29.761597,-100.9375c0,0 54.799255,22.203125 54.799255,22.203125c0,0 0,-157.468994 0,-157.468994zm2047.096741,-1417.220871c0,0 -1889.627808,0 -1889.627808,0c0,0 0,1732.158737 0,1732.158737c0,0 1732.158813,0 1732.158813,0c171.168945,0 172.27124,-88.340088 172.27124,-116.684448c0,0 -14.802246,-1615.474289 -14.802246,-1615.474289zm-1732.631165,1259.436935c0,0 1576.579651,0 1576.579651,0c0,0 0,156.209229 0,156.209229c0,0 -1576.579651,0 -1576.579651,0c0,0 0,-156.209229 0,-156.209229zm0,-315.095459c0,0 1576.579651,0 1576.579651,0c0,0 0,156.366699 0,156.366699c0,0 -1576.579651,0 -1576.579651,0c0,0 0,-156.366699 0,-156.366699zm0,-314.780457c0,0 1576.579651,0 1576.579651,0c0,0 0,156.209167 0,156.209167c0,0 -1576.579651,0 -1576.579651,0c0,0 0,-156.209167 0,-156.209167zm0,-315.095459c0,0 1576.579651,0 1576.579651,0c0,0 0,156.366699 0,156.366699c0,0 -1576.579651,0 -1576.579651,0c0,0 0,-156.366699 0,-156.366699z"/></svg>