<svg width="1478" height="2048" xmlns="http://www.w3.org/2000/svg" xmlns:svg="http://www.w3.org/2000/svg"><path d="m971.934082,1599.891602l0,383.974121q0,25.598267 -19.198608,44.796875t-44.796997,19.19873l-383.973877,0q-25.598267,0 -44.796997,-19.19873t-19.19873,-44.796875l0,-383.974121q0,-25.598267 19.19873,-44.796997t44.796997,-19.198608l383.973877,0q25.598389,0 44.796997,19.198608t19.198608,44.796997zm505.565918,-959.934937q0,86.394104 -24.79834,161.58905t-55.996216,122.391663t-87.994019,95.193542t-91.993896,69.595398t-97.593384,56.796143q-65.595459,36.797485 -109.592407,103.99292t-43.99707,107.192627q0,27.198242 -19.19873,51.996582t-44.796875,24.79834l-383.97406,0q-23.998413,0 -40.797302,-29.598022t-16.798828,-59.995972l0,-71.995117q0,-132.790894 103.99292,-250.383057t228.784546,-173.588257q94.393555,-43.197021 134.390869,-89.593872t39.997314,-121.591736q0,-67.195496 -74.39502,-118.392029t-171.988342,-51.196503q-103.99292,0 -172.788208,46.396881q-55.996277,39.997192 -171.188416,183.987427q-20.798645,25.598328 -49.59668,25.598328q-19.19873,0 -39.997314,-12.799072l-262.382233,-199.986511q-20.798584,-15.998932 -24.798309,-39.997314t8.799408,-44.796936q255.982697,-425.571167 742.349762,-425.571167q127.991211,0 257.58252,49.596645t233.584106,132.791004t169.588501,203.98616t65.595703,253.582855z"/></svg>