<svg width="2520" height="2048" xmlns="http://www.w3.org/2000/svg" xmlns:svg="http://www.w3.org/2000/svg" preserveAspectRatio="xMidYMid"><path d="m2360.547363,410.540253c-130.887939,47.724426 -223.029053,119.311005 -300.601318,214.759918c-72.688843,85.998352 -135.691162,191.370178 -169.555054,320.210266l630.025024,0l0,854.156799c0,138.447876 -111.435547,248.230225 -252.01001,248.230225l-850.533813,0.157471l0,-866.285034c0,-367.619751 123.484741,-561.194885 302.80542,-771.229645c179.321167,-210.034714 397.467163,-343.757568 799.738403,-410.540253l0,186.172485c0,100.252838 -63.002441,190.897675 -159.868652,224.446564l0,-0.078796zm-1415.430725,4.803955c-130.730103,47.803162 -222.871277,119.389801 -300.521973,210.034698c-72.531738,85.919617 -137.89682,191.291443 -171.760681,320.131531l630.025391,0l0,866.284607c0,138.448242 -104.426758,236.102417 -244.922363,236.102417l-857.937012,0l0,-773.356201c0,-367.541321 130.730225,-658.770325 310.287476,-863.922211c179.084686,-210.11351 397.230774,-348.719067 794.776978,-405.972612l0,186.172472c0,100.252808 -63.160156,190.97641 -160.105225,224.446564l0.15741,0.078735z"/></svg>