<svg width="2168" height="2048" xmlns="http://www.w3.org/2000/svg" xmlns:svg="http://www.w3.org/2000/svg"><path d="m635.475525,1800.51355c218.885864,0 381.285217,-169.460083 381.285217,-381.285034s-162.399353,-388.346191 -381.285217,-388.346191s-381.28537,169.460205 -381.28537,381.285156s176.520935,388.346069 381.28537,388.346069zm1468.654114,-1023.821411l-1722.84436,0l423.65033,-190.642639l0,-14.121582l571.927795,-240.068604l-14.121582,-28.243378l0,14.121735l522.501831,-218.885948c14.121948,14.121696 28.24353,28.24337 49.426025,28.24337s49.425903,-28.24337 49.425903,-63.54755s-28.243408,-63.547543 -49.425903,-63.547543s-49.426025,28.243351 -49.426025,63.547543l-522.501831,218.885899l0,-14.121643l-571.927979,254.190094l14.121765,28.243408l-28.243347,-28.243408l-550.745438,240.068542l-162.399284,0c-28.243351,0 -63.547539,14.121643 -63.547539,35.304199l0,1200.342407c0,35.304321 35.304188,49.425659 63.547539,49.425659l2040.5821,0c28.243408,0 63.547363,-14.121338 63.547363,-49.425659l0,-1179.159851c0,-28.243347 -21.182129,-42.365051 -63.547363,-42.365051zm-1977.034538,642.536377c0,-282.433716 233.007652,-508.38031 508.380302,-508.38031s508.380432,233.007629 508.380432,508.38031s-233.007751,508.380249 -508.380432,508.380249s-508.380302,-233.007568 -508.380302,-508.380249zm1278.011711,-127.095093l381.285278,0l0,127.095093l-381.285278,0l0,-127.095093zm0,254.189941l381.285278,0l0,127.095093l-381.285278,0l0,-127.095093zm741.388062,-720.205261c0,-28.243408 -14.121826,-35.30426 -35.304443,-35.30426c21.182617,0 35.304443,14.121704 35.304443,35.30426z"/></svg>