<svg width="526.8" height="509.29" xmlns="http://www.w3.org/2000/svg"><path d="M218.84 71.96V7.9c-24.53 6.5-47.55 16.64-68.45 29.53l44.83 44.68c7.66-3.62 15.34-7.3 23.6-10.12zM0 43.18l72.34 72.32c-23.6 37.4-37.4 81.86-37.4 129.65 0 67.7 27.95 128.68 72.3 172.8l-72.3 72.3h183.9v-183.9L150.17 375c-33.17-33.36-53.9-79-53.9-129.85 0-30.68 7.67-59.45 20.73-84.8L364.6 407.8c-7.7 4.03-15.35 7.7-23.6 10.4v64.06c24.55-6.38 47.55-16.52 68.3-29.38l72.33 72.3 38.9-38.93-481.2-482L0 43.2zM525.15 0H341.4v183.77l68.53-68.53c33.15 33.37 54.02 79 54.02 129.9 0 30.64-7.68 59.42-20.88 84.78l44.7 44.85c23.6-37.4 37.4-81.85 37.4-129.64 0-67.73-27.83-128.7-72.3-172.82L525.17 0z"/></svg>