<svg xmlns="http://www.w3.org/2000/svg" viewBox="0 0 91.41 112.81"><path d="M321.63,203.58H249.49a3,3,0,0,1-3-3V106.63a3,3,0,0,1,6,0v90.93h69.13A3,3,0,1,1,321.63,203.58Z" transform="translate(-246.48 -90.78)"/><path d="M333.73,190.74H263.89a4.17,4.17,0,0,1-4.16-4.16V94.94a4.17,4.17,0,0,1,4.16-4.16H310.7a4.17,4.17,0,0,1,4.16,4.16V113.8h18.87a4.17,4.17,0,0,1,4.16,4.16v68.62A4.17,4.17,0,0,1,333.73,190.74Zm-68-6h66.12V119.82H313a4.17,4.17,0,0,1-4.16-4.16V96.8H265.75v87.92Zm45-87.92h0Z" transform="translate(-246.48 -90.78)"/><path d="M334.88,119.82a3,3,0,0,1-2.13-.88l-23-23A3,3,0,1,1,314,91.66l23,23A3,3,0,0,1,334.88,119.82Z" transform="translate(-246.48 -90.78)"/></svg>