<svg width="2022" height="2048" xmlns="http://www.w3.org/2000/svg" xmlns:svg="http://www.w3.org/2000/svg"><path d="m2002.383057,1858.426147l-536.441406,-539.335205c15.126343,-20.5448 25.716797,-34.973267 33.105469,-45.112183l0.903076,-1.231445c6.03418,-7.942993 11.863159,-15.92688 17.527832,-24.075073l0.513184,-0.697754l-0.020508,0c210.147339,-302.034241 163.618896,-729.20459 -114.320068,-1007.122925c-155.306641,-155.327179 -361.800659,-240.851563 -581.40979,-240.851563s-426.062012,85.524384 -581.389267,240.831085c-155.306671,155.306702 -240.851578,361.800812 -240.851578,581.450897c0,219.629517 85.524391,426.144043 240.851578,581.430176c154.875687,154.896362 360.856674,240.194946 579.97319,240.194946c0,0 0,0 0,0c131.35498,0 262.237732,-31.792114 379.328308,-92.338379c13.156128,-7.409302 52.172485,-30.068115 83.492432,-55.394775l544.815186,532.315796c3.263428,3.263428 20.852661,19.580078 46.425781,19.580078c11.206299,0 27.953979,-3.304321 44.147583,-19.046509l27.21521,-26.270874c20.790894,-20.011108 42.649292,-41.06897 58.309082,-56.708374c30.437622,-30.458008 15.680542,-68.756226 -2.175293,-87.61792zm-1183.939148,-1637.154678c331.014465,0 600.292053,269.298233 600.292053,600.312637c0,330.973389 -269.27771,600.291992 -600.292053,600.291992s-600.312668,-269.318604 -600.312668,-600.291992c0,-331.014435 269.298172,-600.312637 600.312668,-600.312637z"/></svg>