<svg width="98" height="98" xmlns="http://www.w3.org/2000/svg" xmlns:svg="http://www.w3.org/2000/svg"><path d="m49,0a49,49 0 1 0 49,49a49.060001,49.060001 0 0 0 -49,-49zm44.199997,49a44.200001,44.200001 0 1 1 -44.199997,-44.2a44.25,44.25 0 0 1 44.199997,44.2z"/><path d="m73.889999,62.380001a2.4,2.4 0 0 0 -3.339996,0.639996c-0.790001,1.18 -8.120003,11.440002 -21.550003,11.440002s-20.76,-10.260002 -21.549999,-11.459999a2.4,2.4 0 0 0 -4,2.690002c0.959999,1.419998 9.649998,13.57 25.549999,13.57s24.589996,-12.150002 25.529999,-13.540001a2.4,2.4 0 0 0 -0.639999,-3.330002l0,-0.009998z"/><circle r="5.759999" cy="35.55" cx="36.52"/><circle r="5.759999" cy="35.55" cx="61.48"/></svg>