<?xml version="1.0" encoding="UTF-8"?>
<svg width="1902" height="2048" xmlns="http://www.w3.org/2000/svg" xmlns:svg="http://www.w3.org/2000/svg" preserveAspectRatio="xMidYMid">

 <g>
  <title>Layer 1</title>
  <path fill="black" d="m1660.423462,866.684937c-73.534546,42.803772 -157.190918,65.364197 -242.310913,65.364197c-44.022949,0 -87.802246,-5.975525 -129.996582,-17.560547c0,0 -163.776001,95.485352 -163.776001,95.485352c0,0 189.019531,119.265198 189.019531,119.265198c37.31604,-8.902344 75.485596,-13.536377 113.777344,-13.536377c91.095215,0 179.751587,25.487305 256.334961,73.778687c221.213867,139.630493 284.992432,428.769409 142.435425,644.73938c-88.290405,133.7771 -238.408447,213.531128 -401.697144,213.531128c-91.82666,0 -181.214844,-25.730957 -258.407837,-74.266357c-110.484985,-69.632324 -184.995239,-180.727051 -209.018982,-304.748413c0,0 -368.161255,-231.945068 -368.161255,-231.945068c-37.194092,8.780273 -75.363953,13.292358 -113.655548,13.292358c-91.217194,0 -179.751495,-25.487305 -256.456833,-73.778687c-221.21379,-139.386475 -285.114578,-428.647339 -142.435333,-644.617371c88.534286,-133.777039 238.652359,-213.531067 401.818893,-213.531067c54.998596,0 109.143494,9.146118 160.239746,27.07251c0,0 313.162659,-182.434357 313.162659,-182.434357c28.535828,-123.045593 106.948547,-231.213531 219.750427,-297.065491c74.022461,-43.169617 158.288574,-65.730011 244.140137,-65.730011c167.434692,0 324.869629,87.070923 410.599121,227.311203c134.630615,221.091843 60.364258,507.791702 -165.361572,639.373734l-0.000244,0zm4.024292,-545.351776c-81.949097,-133.898972 -260.115234,-177.678329 -397.184814,-98.046249c-93.046509,54.266891 -142.435425,151.825363 -139.874512,250.725235c0,0 -482.548462,280.968323 -482.548462,280.968323c-3.658386,-2.560852 -6.585205,-5.731506 -10.365601,-8.170471c-134.264771,-84.632019 -313.772369,-46.828064 -400.477448,84.266113c-86.58313,131.094177 -47.803635,306.455383 86.461212,391.087341c90.973236,57.315674 202.311829,57.193726 291.821655,11.097534c0,0 524.620605,330.601074 524.620605,330.601074c-6.219238,98.655884 39.633179,197.921631 130.606445,255.237305c134.386841,84.509888 313.894409,46.828125 400.477417,-84.266113c86.583252,-131.09436 47.925537,-306.455566 -86.339233,-391.209473c-90.973267,-57.315552 -202.31189,-57.193604 -291.943604,-10.975342c0,0 -521.571899,-328.893799 -521.571899,-328.893799c0,0 503.645508,-293.407227 503.645508,-293.407227c87.924683,49.023071 199.141113,53.047363 292.1875,-1.097534c137.069824,-79.875977 182.190552,-253.774078 100.485229,-387.91684l0,0.000122zm-199.872803,225.360016c-45.242798,26.340759 -104.143799,11.828979 -131.216187,-32.438171c-26.950562,-44.267151 -12.19458,-101.948578 33.169922,-128.411316c45.486572,-26.462738 104.387451,-11.828979 131.460083,32.316223c27.07251,44.511047 11.950684,102.070496 -33.413818,128.533264zm-1039.119537,516.450134c-44.389099,-28.048096 -57.315613,-86.095337 -28.657806,-129.50885c28.657806,-43.413574 88.168457,-55.730286 132.679443,-27.926147c44.26709,28.048035 57.193665,86.095337 28.41394,129.50885c-28.657837,43.413452 -88.046509,55.730225 -132.435577,27.926147zm1051.192291,439.622803c44.38916,27.925903 57.193726,85.973389 28.657837,129.508545c-28.779785,43.169678 -88.290405,55.730469 -132.679321,27.804321c-44.389038,-28.047974 -57.193848,-86.095337 -28.535889,-129.508789c28.535889,-43.291626 88.168457,-55.852173 132.557495,-27.804077l-0.000122,0z" id="path-1" class="cls-2" fill-rule="evenodd"/>
 </g>
</svg>