<svg width="1878" height="2048" xmlns="http://www.w3.org/2000/svg" xmlns:svg="http://www.w3.org/2000/svg"><path d="m682.807373,810.83374l0,768.158203q0,18.670654 -12.002502,30.672974t-30.672974,12.002563l-85.350952,0q-18.670532,0 -30.672974,-12.002563t-12.002441,-30.672974l0,-768.158203q0,-18.670532 12.002441,-30.672974t30.672974,-12.002563l85.350952,0q18.670532,0 30.672974,12.002563t12.002502,30.672974zm341.403687,0l0,768.158203q0,18.670654 -12.002502,30.672974t-30.672974,12.002563l-85.350952,0q-18.670532,0 -30.672974,-12.002563t-12.002502,-30.672974l0,-768.158203q0,-18.670532 12.002502,-30.672974t30.672974,-12.002563l85.350952,0q18.670532,0 30.672974,12.002563t12.002502,30.672974zm341.403687,0l0,768.158203q0,18.670654 -12.002563,30.672974t-30.672974,12.002563l-85.350952,0q-18.67041,0 -30.672974,-12.002563t-12.002319,-30.672974l0,-768.158203q0,-18.670532 12.002319,-30.672974t30.672974,-12.002563l85.350952,0q18.670532,0 30.672974,12.002563t12.002563,30.672974zm170.70166,965.532227l0,-1264.260437l-1194.91272,0l0,1264.260437q0,29.339355 9.335236,54.011108t19.337311,36.007446t14.002869,11.335693l1109.562012,0q4.000732,0 14.00293,-11.335693t19.337158,-36.007446t9.335205,-54.011108zm-896.184509,-1434.96228l597.45636,0l-64.013062,-156.032166q-9.335327,-12.002472 -22.671387,-14.669678l-422.753784,0q-13.336121,2.667206 -22.671326,14.669678l-65.346802,156.032166zm1237.588318,42.675415l0,85.350952q0,18.670502 -12.002441,30.673004t-30.672974,12.002472l-128.026489,0l0,1264.260437q0,110.689575 -62.679443,191.372681t-150.697754,80.683472l-1109.562012,0q-88.018097,0 -150.697693,-78.016113t-62.679565,-188.705566l0,-1269.59491l-128.026382,0q-18.670517,0 -30.672989,-12.002472t-12.002472,-30.673004l0,-85.350952q0,-18.670471 12.002472,-30.672974t30.672989,-12.002441l412.084915,0l93.352539,-222.71257q20.00415,-49.343498 72.014832,-84.017307t105.355042,-34.673809l426.754639,0q53.34436,0 105.35498,34.673809t72.014893,84.017307l93.352539,222.71257l412.084961,0q18.67041,0 30.672974,12.002441t12.002441,30.672974z"/></svg>
