<svg width="2048" height="2048" xmlns="http://www.w3.org/2000/svg" xmlns:svg="http://www.w3.org/2000/svg"><path d="m2047.949707,389.862946q-87.063965,127.347015 -210.512573,217.009735q1.299683,18.192505 1.299683,54.577332q0,168.929749 -49.379761,337.209778t-150.087524,322.915649t-239.750244,273.536255t-335.260498,189.721191t-419.725525,70.820435q-352.153534,0 -644.531975,-188.421631q45.481083,5.197998 101.357865,5.197998q292.378395,0 521.083229,-179.325562q-136.443176,-2.598877 -244.29837,-83.815063t-148.138367,-207.263916q42.882172,6.497314 79.267059,6.497314q55.876709,0 110.453949,-14.293945q-145.539398,-29.887695 -241.049667,-144.889771t-95.510262,-267.039001l0,-5.197754q88.363213,49.379456 189.721092,53.277771q-85.764343,-57.176208 -136.443253,-149.437866t-50.678955,-200.11673q0,-114.352448 57.176254,-211.81192q157.234589,193.619446 382.690826,309.921082t482.749329,129.296204q-10.395813,-49.379333 -10.395813,-96.159912q0,-174.127563 122.798828,-296.926514t296.926758,-122.79892q181.924316,0 306.672363,132.544891q141.641235,-27.288635 266.389282,-101.357864q-48.079956,149.437881 -184.523315,231.303818q120.849731,-12.994598 241.699585,-64.972992l0,-0.000061l0,-0.000031z"/></svg>