<svg width="40" height="40" xmlns="http://www.w3.org/2000/svg" xmlns:svg="http://www.w3.org/2000/svg"><path d="m38.886476,35.420034c-0.25125,-0.16625 -4.810005,-3.156253 -11.591261,-4.623754c2.487502,-3.151253 4.085004,-7.390007 4.763755,-10.21126c0.942501,-3.910004 0.576251,-11.560011 -3.178753,-16.327516c-2.195002,-2.786253 -5.266255,-4.257504 -8.881258,-4.257504c-3.615003,0 -6.686256,1.472501 -8.880008,4.257504c-3.755004,4.766255 -4.120004,12.416262 -3.178753,16.326266c0.678751,2.821253 2.275002,7.060007 4.763755,10.21126c-6.781256,1.467501 -11.340011,4.457504 -11.590011,4.623754c-0.916251,0.610001 -1.326251,1.750002 -1.006251,2.802503c0.3175,1.056251 1.291251,1.778752 2.391252,1.778752l35.000033,0c1.101251,0 2.072502,-0.722501 2.392502,-1.777502c0.32125,-1.052501 -0.08875,-2.192502 -1.005001,-2.802503zm-13.553763,-6.172506l-0.4075,0.5175c-2.981253,3.425003 -6.868757,3.425003 -9.848759,0l-0.40875,-0.5175c-3.481253,-4.411254 -5.208755,-10.24626 -4.465004,-15.812515c0.681251,-5.348755 3.746254,-10.93501 9.796259,-10.93501c6.050006,0 9.116259,5.587505 9.797509,10.93626c0.741251,5.568755 -0.980001,11.397511 -4.463754,15.811265zm-22.833772,8.252508c0.1725,-0.115 4.407504,-2.892503 10.73251,-4.260004l3.105003,-0.671251c1.108751,0.727501 2.325002,1.181251 3.662503,1.181251c1.338751,0 2.553752,-0.45375 3.662503,-1.181251l3.105003,0.671251c6.275006,1.357501 10.49501,4.103754 10.73251,4.260004l-35.000033,0z"/></svg>