<svg width="1932" height="2048" xmlns="http://www.w3.org/2000/svg" xmlns:svg="http://www.w3.org/2000/svg"><path d="m949.559937,0.23666c10.88269,0 21.765442,0 32.648315,0c595.941528,-15.38101 504.816284,847.26157 311.102539,1243.395176c-36.275879,74.293335 -80.822754,145.829468 -73.712646,212.141846c28.150269,258.720337 543.123901,195.164917 654.998901,346.943604c79.807129,108.247559 32.358154,32.503174 57.315918,244.064575c-641.359131,-6.529663 -1304.338623,12.769409 -1931.912954,-9.722046c25.39318,-207.498413 -21.330269,-127.691162 57.316041,-234.342529c122.902988,-166.869629 635.555042,-81.548584 654.853809,-356.665405c4.353149,-61.959473 -36.711243,-126.820923 -73.712708,-202.420044c-205.322083,-420.075806 -272.650238,-1259.791906 311.102783,-1243.395176z"/></svg>