<svg width="100" height="100" xmlns="http://www.w3.org/2000/svg" xmlns:svg="http://www.w3.org/2000/svg"><path d="m67.273951,5.979286l0,88.041425l23.403415,0l0,-88.041425l-23.403415,0zm20.060067,84.698077l-16.716724,0l0,-81.354732l16.716724,0l0,81.354732z"/><path d="m38.298292,94.020712l23.403415,0l0,-44.577936l-23.403415,0l0,44.577936zm3.343345,-41.234596l16.716722,0l0,37.891248l-16.716722,0l0,-37.891248z"/><path d="m9.322632,94.020712l23.403415,0l0,-75.782492l-23.403415,0l0,75.782492zm3.343345,-72.439147l16.716726,0l0,69.095799l-16.716726,0l0,-69.095799z"/></svg>