<svg width="2481" height="2048" xmlns="http://www.w3.org/2000/svg" xmlns:svg="http://www.w3.org/2000/svg"><path d="m1240.422241,0l-1240.422241,2047.945557l2480.844482,0l-1240.422241,-2047.945557zm138.749756,718.723389l-41.624878,776.998413l-194.249634,0l-41.624878,-776.998413l277.49939,0zm-138.749756,1187.69751c-44.39978,0 -80.474854,-11.099976 -102.674683,-36.075073c-24.974976,-24.974854 -36.074951,-58.274658 -36.074951,-99.899658c0,-44.39978 11.099976,-77.699829 36.074951,-102.674927c24.974854,-22.199707 58.274902,-33.299805 105.449707,-33.299805c44.400024,0 77.699829,11.100098 102.674805,36.074951s36.074829,58.274902 36.074829,99.89978c0,41.625 -11.099854,74.924805 -36.074829,99.899658c-27.75,22.200195 -61.049927,36.075073 -105.449829,36.075073z"/></svg>