<svg width="2835" height="2048" xmlns="http://www.w3.org/2000/svg" xmlns:svg="http://www.w3.org/2000/svg" preserveAspectRatio="xMidYMid"><path d="m2805.589111,1993.605713c-30.859375,34.795776 -81.400146,54.791748 -138.553955,54.791748c0,0 -2498.855774,0 -2498.855774,0c-57.31105,0 -107.85183,-19.995972 -138.554173,-54.791748c-30.859793,-34.796265 -37.944949,-172.720581 -19.680991,-216.64856c0,0 271.282771,-434.39856 271.282771,-434.39856c14.95755,-36.213135 45.817322,-68.0177 84.707001,-91.005005c-34.953461,-24.56189 -57.625916,-60.459961 -57.625916,-100.924194c0,0 0,-1016.64122 0,-1016.64122c0,-74.000519 74.157928,-133.988174 165.162842,-133.988174c0,0 1888.115265,0 1888.115265,0c91.004883,0 165.162842,59.987656 165.005371,133.988174c0,0 0,1016.64122 0,1016.64122c0,40.464233 -22.515137,76.204834 -57.468506,100.766724c38.889404,23.144775 69.749512,54.949341 84.864502,91.162476c0,0 271.125244,434.39856 271.125244,434.39856c18.264404,43.927979 11.178955,181.852417 -19.523926,216.64856l0.000244,0zm-70.221436,-192.086548c0,0 -271.125488,-434.241455 -271.125488,-434.241455c-17.791504,-42.668457 -77.464111,-77.464355 -132.885986,-77.464355c0,0 -1827.655304,0 -1827.655304,0c-55.421661,0 -115.094391,34.953491 -132.886017,77.464355c0,0 -271.125343,434.241455 -271.125343,434.241455c-17.791618,42.510986 13.068176,77.307007 68.489845,77.307007c0,0 2498.856018,0 2498.856018,0c55.264404,0 86.124023,-34.796021 68.33252,-77.307007l-0.000244,0zm-970.19397,-5.51062c0,0 -695.290161,0 -695.290161,0c-13.697876,0 -26.608643,-4.251343 -35.425659,-11.493774c-8.817139,-7.400024 -12.753296,-17.319458 -11.021362,-27.395874c0,0 48.021606,-162.958862 48.021606,-162.958862c3.306396,-19.523438 26.923584,-34.795898 53.532349,-34.795898c0,0 585.076294,0 585.076294,0c26.451416,0 50.068481,15.272461 53.532349,34.795898c0,0 47.864136,162.958862 47.864136,162.958862c1.889404,10.076416 -2.046753,19.99585 -10.86377,27.395874c-8.817261,7.242432 -21.727905,11.493774 -35.425659,11.493774l-0.000122,0z"/></svg>