<svg width="100" height="100" xmlns="http://www.w3.org/2000/svg" xmlns:svg="http://www.w3.org/2000/svg"><path d="m38.893763,46.971031l8.221499,0l-14.712154,-40.530544l-6.202183,0l-14.712155,40.530544l8.221499,0l2.452024,-7.211839l14.423684,0l2.307785,7.211839l0,0zm-14.567918,-13.84673l5.048292,-14.712153l4.904047,14.712153l-9.952339,0z"/><path d="m54.615579,74.664489c1.875073,-0.865413 4.471339,-3.461685 4.471339,-7.644538c0,-6.346423 -4.182864,-10.240825 -11.394706,-10.240825l-14.712157,0l0,36.780389l15.433341,0c6.490657,0 11.250467,-3.750157 11.250467,-10.529282c0,-5.048288 -2.884734,-7.356076 -5.048285,-8.365744l0,0zm-14.423681,-11.538929l7.067605,0c3.028973,0 4.759812,1.730837 4.759812,4.182869s-1.73084,4.182859 -4.759812,4.182859l-7.067605,0l0,-8.365728l0,0zm7.50031,23.943308l-7.500315,0l0,-9.086923l7.500315,0c3.317446,0 4.759812,2.01932 4.759812,4.471347c0.000005,2.596256 -1.586603,4.615576 -4.759812,4.615576z"/><path d="m76.828048,37.884113l-5.625233,0c-0.576946,2.452027 -2.163554,4.03863 -4.75982,4.03863c-1.586598,0 -2.740495,-0.432709 -3.605918,-1.442369c-1.153891,-1.298128 -1.442364,-2.596261 -1.442364,-8.077258s0.288473,-6.779131 1.442364,-8.077264c0.865424,-1.009654 2.01932,-1.442368 3.605918,-1.442368c2.74051,0 4.182874,1.586607 4.75982,4.038634l5.625233,0c-1.009647,-5.769475 -5.048288,-9.086921 -10.529287,-9.086921c-3.028973,0 -5.625233,1.009659 -7.644543,3.17321c-1.298136,1.298132 -2.019326,2.59626 -2.307798,4.327103c-0.288468,1.586607 -0.432707,4.03863 -0.432707,7.067605s0.144239,5.480997 0.432707,7.0676c0.288473,1.586608 1.153897,3.028975 2.307798,4.327103c2.01931,2.019318 4.615571,3.173212 7.644543,3.173212c5.480994,0 9.663859,-3.173212 10.529287,-9.086918l0,0z"/><path d="m85.48226,59.231158c-1.730837,-1.730837 -4.327103,-2.596256 -7.067603,-2.596256l-9.663864,0l0,26.539564l9.663864,0c2.7405,0 5.336766,-0.721185 7.067603,-2.596256c3.028973,-3.028983 2.7405,-6.923369 2.7405,-10.81776c-0.00001,-3.894402 0.288473,-7.50032 -2.7405,-10.529293zm-3.605918,17.885368c-0.865424,1.153897 -2.01932,1.586603 -3.894391,1.586603l-3.894402,0l0,-17.308423l3.894402,0c1.730832,0 3.028967,0.576951 3.894391,1.586608c1.009647,1.153897 1.153897,2.884734 1.153897,6.923369s-0.144249,5.913706 -1.153897,7.211842l0,0z"/></svg>