<svg width="100" height="100" xmlns="http://www.w3.org/2000/svg" xmlns:svg="http://www.w3.org/2000/svg"><polygon points="32.8120002746582,55.0004997253418 29.642000198364258,52.647499084472656 24.93600082397461,52.175498962402344 24.236000061035156,53.317501068115234 23.283000946044922,53.00149917602539 22.81599998474121,51.23749923706055 21.406999588012695,51.13949966430664 21.993000030517578,49.47050094604492 20.81800079345703,49.352500915527344 19.639999389648438,50.298500061035156 18.816999435424805,49.11650085449219 19.523000717163086,47.11949920654297 22.701000213623047,46.647499084472656 23.283000946044922,48.29349899291992 24.11199951171875,48.178497314453125 24.11199951171875,46.647499084472656 26.344999313354492,43.589500427246094 29.167999267578125,42.05949783325195 32.8120002746582,40.41749954223633 30.224000930786133,34.649497985839844 29.048999786376953,35.355499267578125 28.11199951171875,32.769500732421875 25.871999740600586,32.886497497558594 25.292999267578125,37.4744987487793 24.466999053955078,37.59349822998047 21.052000045776367,33.945499420166016 21.757999420166016,32.0625 25.292999267578125,31.35849952697754 25.292999267578125,26.886499404907227 16.46500015258789,27.829498291015625 11.883000373840332,25.123498916625977 9.763999938964844,27.122499465942383 3.996000051498413,23.945499420166016 0.8240000009536743,25.827499389648438 1.999000072479248,27.59549903869629 0.703000009059906,27.59549903869629 0.35200005769729614,28.88749885559082 2.115000009536743,29.122499465942383 0.35200005769729614,30.533498764038086 0.9380001425743103,32.53249740600586 2.4679999351501465,32.886497497558594 0,34.886497497558594 3.88100004196167,33.00550079345703 5.995999813079834,31.824499130249023 9.407999992370605,33.945499420166016 12.114999771118164,38.53249740600586 12.114999771118164,42.649497985839844 13.76200008392334,45.708499908447266 16.46500015258789,49.942501068115234 19.76099967956543,51.114498138427734 21.172000885009766,51.8224983215332 22.81599998474121,53.93949890136719 23.96500015258789,53.761497497558594 22.701000213623047,55.824501037597656 23.756999969482422,60.054500579833984 25.993999481201172,62.05249786376953 23.283000946044922,72.99750137329102 24.229999542236328,75.3494987487793 26.93400001525879,76.05450057983398 25.292999267578125,74.28850173950195 27.52199935913086,70.05550003051758 32.345001220703125,65.93849563598633 32.696998596191406,64.05649948120117 35.051998138427734,63.701499938964844 37.404998779296875,58.88050079345703 33.28799819946289,56.88349914550781"/><polygon points="88.9990005493164,55.82749938964844 88.74700164794922,57.82550048828125 87.0530014038086,57.21049880981445 87.36599731445312,56.12849807739258 85.51399993896484,55.97850036621094 83.11399841308594,58.214500427246094 80.56800079345703,59.136497497558594 81.19100189208984,62.60049819946289 80.95600128173828,63.28849792480469 81.88700103759766,63.82849884033203 85.66200256347656,62.894500732421875 87.12200164794922,63.743499755859375 87.81700134277344,63.35649871826172 88.27999877929688,64.75749588012695 90.2040023803711,65.29849624633789 91.59500122070312,64.4474983215332 92.36499786376953,60.29349899291992 90.28500366210938,58.214500427246094"/><polygon points="79.6449966430664,53.89849853515625 81.64900207519531,54.28249740600586 82.5770034790039,51.43149948120117 82.03399658203125,50.96549987792969 79.33799743652344,52.66349792480469"/><polygon points="91.28299713134766,55.97850036621094 90.59300231933594,54.51250076293945 87.43299865722656,52.9744987487793 85.81400299072266,53.1254997253418 87.89299774169922,55.28450012207031 89.08699798583984,55.368499755859375 89.58999633789062,54.897499084472656"/><polygon points="89.58999633789062,35.62649917602539 89.05400085449219,35.62649917602539 88.9739990234375,38.40049743652344 87.58799743652344,41.329498291015625 85.81400299072266,42.643497467041016 85.73600006103516,43.7964973449707 88.9739990234375,41.87049865722656 89.12699890136719,39.86650085449219 90.2040023803711,38.864498138427734 89.36199951171875,38.1714973449707 89.81800079345703,36.55550003051758"/><polygon points="97.91600036621094,63.608497619628906 98.14900207519531,65.76749801635742 95.75900268554688,68.00549697875977 97.3030014038086,68.15849685668945 98.68499755859375,66.07449722290039 99.76599884033203,64.61249923706055 99.072998046875,64.53850173950195"/><polygon points="46.391998291015625,31.169498443603516 46.391998291015625,33.41349792480469 47.94900131225586,32.730499267578125 48.38800048828125,32.04050064086914 46.70100021362305,28.796499252319336 45.70800018310547,29.485498428344727 45.76900100708008,30.35649871826172 44.83100128173828,31.485498428344727 44.76599884033203,32.66749954223633 45.893001556396484,32.66749954223633"/><polygon points="60.492000579833984,57.61750030517578 60.42900085449219,60.11650085449219 61.43299865722656,60.54949951171875 62.42900085449219,57.55550003051758 62.176998138427734,56.30949783325195"/><path d="m97.223,31.003499l2.777,-1.544l-0.771,-2.156l-20.451,-2.885c0,0 -12.392,1.311 -19.226,2.03l-5.921,-1.091l-2.375,1.309l-0.934,2.308l-1.126,0.877l-0.062,1.934l0.625,0.371l1.309,-0.746l0.63,1.994l1.119,-0.436l0.751,-1.998l-0.751,-0.809l0.689,-1.497l0.805,-1.001l0.494,0.078l-0.461,1.171l-0.527,0.377l0.192,0.475l-0.036,0.08l0.069,0.007l0.459,1.119l1.312,-0.371l0.451,0.529l-1.451,0.471l0.316,1.186l-0.942,-0.318l-0.682,1.75l-2.438,-0.062l-0.437,-1.248l-0.56,0.748l0.188,0.812l-0.876,0.064l-1.06,1.434l-1.934,0.624l0.501,1.062l0.805,1.309l-2.554,-0.188l0.124,2.499l1.998,0.312l1.309,-2.062l1.876,-0.937l0.807,0.937l1.121,1.502l0.816,-0.942l-1.562,-1.056l-0.064,-1l0.749,0.373l1.251,1.002l-0.062,0.992l0.934,1.19l0.438,-1.502l0.5,0.252l0.684,1.187l2.115,0.352l-0.344,1.156l-0.795,0.476l-3.064,-0.784l-0.771,1.078l-2.002,-1.311l-0.31,-1.305l-4.932,0.844l-2.546,3.084l-0.465,4.161l2.626,2.546l4.703,-0.31l1.384,4.318l-0.535,2.465l2.232,5.396l2.546,-0.463l2.541,-4.78l1.387,-1.079l-0.382,-3.311l2.467,-2.237l0.771,-2.699l-2.469,1.157l-2.52,-5.772l0.515,-0.088l2.47,4.856l4.781,-2.851l-1.624,-1.232l-1.232,0.616l-0.772,-1.852l0.541,-0.305l1.077,0.922l3.706,0.694l1.536,1.852l1.389,3.467l1.083,-1.076l0,-1.311l3.003,-2.086l1.079,2.317l0.894,-0.226l0.185,2.305l0.927,1.695l-2.005,-1.003l1.467,2.079l1.619,1.546l3.853,0.692l-2.08,-0.846l-1.547,-0.541l-0.536,-2.468l-1.236,-1.392l0.047,-1.391l1.42,1.471l1.387,-1.156l-1.307,-1.928l0.613,-1.002l2.854,-0.154l1.309,-2.387l-0.922,-2.617l1.156,-1.234l0.852,1.156l0.308,1.463l1.001,-0.535l-0.385,-1.621l0.847,-1.233l1.389,-0.229l1.616,-4.473l-1.386,-1.002l1.925,-1.852l2.546,0.153l2.083,-1.693l1.617,-0.234l-2.619,3.163l0.076,2.773l2.006,-2.467l-0.078,-1.775l2.079,-0.458zm-37.728,9.2l-1.368,-0.37l-1.877,0.311l-0.436,-0.808l0.997,-1.749l3.247,1.688l-0.563,0.928zm2.25,1.067l0.306,-1.189l-0.684,-1.744l1.937,-1.06l0,0.934l-0.751,0.312l0.629,0.938l0.304,1.935l-1.741,-0.126z"/><polygon points="35.53499984741211,26.228498458862305 33.79800033569336,25.7554988861084 31.652000427246094,28.04749870300293 34.41299819946289,35.234500885009766 35.71900177001953,35.55550003051758 35.82500076293945,33.22050094604492 36.707000732421875,32.675498962402344 36.757999420166016,31.78849983215332 37.667999267578125,30.077499389648438 37.034000396728516,28.778499603271484"/></svg>