<?xml version="1.0" encoding="utf-8"?>
<!-- Generator: Adobe Illustrator 22.1.0, SVG Export Plug-In . SVG Version: 6.00 Build 0)  -->
<svg version="1.1" id="Layer_1" xmlns="http://www.w3.org/2000/svg" xmlns:xlink="http://www.w3.org/1999/xlink" x="0px" y="0px"
	 viewBox="0 0 2297 2048" style="enable-background:new 0 0 2297 2048;" xml:space="preserve">
<style type="text/css">
	.st0{fill:#333131;}
</style>
<g>
	<path class="st0" d="M2216.6,502c-30.6-30.6-78.8-30.6-109.4,0l-960.8,962.9L183.5,502c-30.6-30.6-78.8-30.6-109.4,0
		s-30.6,78.8,0,109.4l1015.5,1015.5c15.3,15.3,35,21.9,54.7,21.9c19.7,0,39.4-6.6,54.7-21.9L2214.5,611.4
		C2247.3,580.7,2247.3,530.4,2216.6,502z"/>
</g>
<g>
	<path class="st0" d="M1781.1,348.8c-17.5-17.5-48.1-17.5-65.7,0l-584.3,586.5L544.6,348.8c-17.5-17.5-48.1-17.5-65.7,0
		s-17.5,48.1,0,65.7l617.2,617.2c8.8,8.8,19.7,13.1,32.8,13.1c10.9,0,24.1-4.4,32.8-13.1l617.2-617.2
		C1800.8,396.9,1800.8,366.3,1781.1,348.8z"/>
</g>
</svg>
