<?xml version="1.0" encoding="utf-8"?>
<!-- Generator: Adobe Illustrator 22.1.0, SVG Export Plug-In . SVG Version: 6.00 Build 0)  -->
<svg version="1.1" id="Layer_1" xmlns="http://www.w3.org/2000/svg" xmlns:xlink="http://www.w3.org/1999/xlink" x="0px" y="0px"
	 viewBox="0 0 2297 2048" style="enable-background:new 0 0 2297 2048;" xml:space="preserve">
<style type="text/css">
	.st0{fill:#333131;}
	.st1{fill:#FFFFFF;}
</style>
<rect x="238.6" class="st0" width="1916.9" height="2048"/>
<g>
	<g>
		<path class="st1" d="M1666.1,970.8c-20.5-12.3-47.1-24.6-75.8-34.8c114.7-57.3,172-143.4,172-260.1c0-98.3-36.9-178.2-110.6-233.5
			c-71.7-53.2-172-81.9-299-81.9c-65.5,0-127,2-186.4,8.2c-84,6.1-149.5,10.2-194.6,10.2c-43,0-75.8-2-100.4-6.1l-90.1-12.3h-26.6
			c-92.2,0-106.5,53.2-106.5,86c0,51.2,28.7,79.9,77.8,79.9c12.3,0,30.7-2,53.2-6.1c14.3-2,24.6-4.1,34.8-4.1
			c18.4,0,69.6,0,69.6,114.7v731.1c0,112.6-51.2,112.6-69.6,112.6c-8.2,0-20.5-2-34.8-4.1c-24.6-4.1-41-6.1-53.2-6.1
			c-49.2,0-77.8,28.7-77.8,79.9c0,32.8,12.3,86,100.4,88.1h12.3h4.1c6.1-2,8.2-2,8.2-2l88.1-10.2c28.7-4.1,59.4-6.1,90.1-6.1
			c36.9,0,96.3,2,174.1,8.2c79.9,6.1,147.5,8.2,200.7,8.2c149.5,0,270.3-34.8,358.4-104.4c92.2-69.6,137.2-165.9,137.2-284.7
			C1823.8,1124.4,1770.5,1032.2,1666.1,970.8z M1256.5,872.4h-102.4c-65.5,0-75.8-12.3-77.8-14.3c-2-4.1-12.3-22.5-12.3-106.5V639
			c0-55.3,10.2-90.1,30.7-102.4c14.3-8.2,61.4-20.5,217.1-20.5c243.7,0,243.7,127,243.7,167.9C1557.6,811,1459.2,872.4,1256.5,872.4
			z M1064,1122.3c0-36.9,4.1-55.3,6.1-63.5c6.1-18.4,38.9-28.7,92.2-28.7h151.6c204.8,0,305.2,69.6,305.2,213
			c0,155.6-104.4,233.5-317.4,233.5c-149.5,0-192.5-14.3-204.8-22.5c-12.3-8.2-30.7-34.8-30.7-127L1064,1122.3L1064,1122.3
			L1064,1122.3z"/>
	</g>
</g>
</svg>
