<?xml version="1.0" encoding="utf-8"?>
<!-- Generator: Adobe Illustrator 22.1.0, SVG Export Plug-In . SVG Version: 6.00 Build 0)  -->
<svg version="1.1" id="Layer_1" xmlns="http://www.w3.org/2000/svg" xmlns:xlink="http://www.w3.org/1999/xlink" x="0px" y="0px"
	 viewBox="0 0 2297 2048" style="enable-background:new 0 0 2297 2048;" xml:space="preserve">
<g>
	<path d="M391,1447.5C288.6,1298,228.1,1118.9,228.1,923.7C228.1,413.4,641.4,0,1151.7,0s923.7,413.4,923.7,923.7
		c0,193.9-60.6,374.3-162.9,523.8c63.3-119.8,99.6-255.8,99.6-399.9c0-474-385.1-860.4-860.4-860.4s-860.4,385.1-860.4,860.4
		C291.3,1191.6,327.7,1327.6,391,1447.5L391,1447.5z M1656.7,950.6c0-278.7-226.2-504.9-504.9-504.9S646.8,671.9,646.8,950.6
		c0,83.5,21.5,161.6,57.9,230.2c-12.1-41.7-21.5-86.2-21.5-133.3C683.2,789,893.2,579,1151.7,579c258.5,0,468.6,210.1,468.6,468.6
		c0,47.1-9.4,90.2-21.5,133.3C1635.1,1110.8,1656.7,1034.1,1656.7,950.6L1656.7,950.6z M1151.7,797.1
		c-84.8,0-153.5,68.7-153.5,153.5s68.7,153.5,153.5,153.5c84.8,0,153.5-68.7,153.5-153.5C1305.2,865.8,1236.6,797.1,1151.7,797.1
		L1151.7,797.1z M794.9,2048l181.8-868.5h351.4l181.8,868.5h-99.6l-29.6-146.8H925.5L895.9,2048H794.9z M1014.4,1475.7h276
		l-41.7-199.3h-192.5L1014.4,1475.7z M944.4,1804.3h413.4l-48.5-230.2H991.5L944.4,1804.3z"/>
</g>
</svg>
