<svg width="2156" height="2048" viewBox="0 0 2156 2048" xmlns="http://www.w3.org/2000/svg"><path d="m2155.951904,431.190338l-2155.951904,0l0,-431.190338l2155.951904,0l0,431.190338zm-2155.951904,1191.190399l425.713623,0l0,425.816284l-425.713623,0l0,-425.816284zm0,-532.030884l425.713623,0l0,425.679443l-425.713623,0l0,-425.679443zm0,-532.133423l425.713623,0l0,425.713684l-425.713623,0l0,-425.713684zm576.666199,1064.198486l425.747925,0l0,425.747681l-425.816345,0l0.06842,-425.747681zm0,-532.064941l425.747925,0l0,425.679321l-425.816345,0l0.06842,-425.679321zm0,-532.133545l425.747925,0l0,425.713684l-425.816345,0l0.06842,-425.713684zm576.905823,1064.198608l425.645264,0l0,425.747559l-425.679443,0l0.03418,-425.747559zm0,-532.065063l425.645264,0l0,425.679321l-425.679443,0l0.03418,-425.679321zm0,-532.133484l425.645264,0l0,425.713684l-425.679443,0l0.03418,-425.713684zm576.768677,1064.198547l425.645386,0l0,425.747803l-425.679443,0l0.034058,-425.747803zm0,-532.065063l425.645386,0l0,425.679321l-425.679443,0l0.034058,-425.679321zm0,-532.133484l425.645386,0l0,425.713684l-425.679443,0l0.034058,-425.713684z"/></svg>