<?xml version="1.0" encoding="utf-8"?>
<!-- Generator: Adobe Illustrator 22.1.0, SVG Export Plug-In . SVG Version: 6.00 Build 0)  -->
<svg version="1.1" id="Layer_1" xmlns="http://www.w3.org/2000/svg" xmlns:xlink="http://www.w3.org/1999/xlink" x="0px" y="0px"
	 viewBox="0 0 2297 2048" style="enable-background:new 0 0 2297 2048;" xml:space="preserve">
<style type="text/css">
	.st0{fill:#333131;}
</style>
<g>
	<g>
		<path class="st0" d="M1866.3,271.9h-59.8v-65.9c0-82.4-65.9-150.4-146.3-150.4c-80.4,0-146.3,68-146.3,150.4v65.9h-150.4v-65.9
			c0-82.4-65.9-150.4-146.3-150.4c-80.4,0-146.3,68-146.3,150.4v65.9H920.6v-65.9c0-82.4-65.9-150.4-146.3-150.4
			S628,123.5,628,205.9v65.9h-76.2C424,271.9,318.9,377,318.9,504.7v1310.5c0,127.7,105.1,232.8,232.8,232.8h1310.5
			c127.7,0,232.8-105.1,232.8-232.8V504.7C2099.1,374.9,1994.1,271.9,1866.3,271.9z M1596.4,205.9c0-37.1,28.8-68,63.9-68
			c35,0,63.9,30.9,63.9,68v267.9c0,37.1-28.8,68-63.9,68c-35,0-63.9-30.9-63.9-68V205.9z M1155.4,205.9c0-37.1,28.8-68,63.9-68
			c35,0,63.9,30.9,63.9,68v267.9c0,37.1-28.8,68-63.9,68c-35,0-63.9-30.9-63.9-68V205.9z M714.5,205.9c0-37.1,28.8-68,63.9-68
			c35,0,63.9,30.9,63.9,68v267.9c0,37.1-28.8,68-63.9,68c-35,0-63.9-30.9-63.9-68V205.9z M1963.1,1813.1c0,53.6-43.3,94.8-94.8,94.8
			H557.9c-53.6,0-94.8-43.3-94.8-94.8V611.9h1500V1813.1z"/>
		<rect x="584.7" y="852.9" class="st0" width="251.4" height="222.5"/>
		<rect x="918.5" y="852.9" class="st0" width="251.4" height="222.5"/>
		<rect x="1254.3" y="852.9" class="st0" width="251.4" height="222.5"/>
		<rect x="1588.1" y="852.9" class="st0" width="251.4" height="222.5"/>
		<rect x="584.7" y="1151.7" class="st0" width="251.4" height="222.5"/>
		<rect x="918.5" y="1151.7" class="st0" width="251.4" height="222.5"/>
		<rect x="1254.3" y="1151.7" class="st0" width="251.4" height="222.5"/>
		<rect x="1588.1" y="1151.7" class="st0" width="251.4" height="222.5"/>
		<rect x="584.7" y="1450.5" class="st0" width="251.4" height="222.5"/>
		<rect x="918.5" y="1450.5" class="st0" width="251.4" height="222.5"/>
		<rect x="1254.3" y="1450.5" class="st0" width="251.4" height="222.5"/>
		<rect x="1588.1" y="1450.5" class="st0" width="251.4" height="222.5"/>
	</g>
</g>
</svg>
