<?xml version="1.0" encoding="utf-8"?>
<!-- Generator: Adobe Illustrator 22.1.0, SVG Export Plug-In . SVG Version: 6.00 Build 0)  -->
<svg version="1.1" id="Layer_1" xmlns="http://www.w3.org/2000/svg" xmlns:xlink="http://www.w3.org/1999/xlink" x="0px" y="0px"
	 viewBox="0 0 2297 2048" style="enable-background:new 0 0 2297 2048;" xml:space="preserve">
<style type="text/css">
	.st0{fill:#333131;}
</style>
<g>
	<path class="st0" d="M1553.9,462.5h-178V273.1c0-63.9-50.2-114.1-114.1-114.1H45.9c-20.5,0-38.8,16-38.8,38.8s16,38.8,38.8,38.8
		h1216c20.5,0,38.8,16,38.8,38.8v189.4H132.6c-68.4,0-125.5,57-125.5,125.5v965c0,68.4,57,125.5,125.5,125.5h1421.3
		c68.4,0,125.5-57,125.5-125.5v-965C1679.4,519.5,1622.3,462.5,1553.9,462.5z"/>
	<path class="st0" d="M2144.8,446.5c-20.5,0-41.1,4.6-59.3,13.7L1756.9,629v885.2l328.5,168.8c18.3,9.1,38.8,13.7,59.3,13.7
		c79.8,0,143.7-63.9,143.7-143.7v-965C2288.5,510.4,2222.3,446.5,2144.8,446.5z"/>
</g>
</svg>
