<?xml version="1.0" encoding="utf-8"?>
<!-- Generator: Adobe Illustrator 22.1.0, SVG Export Plug-In . SVG Version: 6.00 Build 0)  -->
<svg version="1.1" id="Layer_1" xmlns="http://www.w3.org/2000/svg" xmlns:xlink="http://www.w3.org/1999/xlink" x="0px" y="0px"
	 viewBox="0 0 2297 2048" style="enable-background:new 0 0 2297 2048;" xml:space="preserve">
<style type="text/css">
	.st0{fill:#333131;}
</style>
<g>
	<path class="st0" d="M2145.7,445c-101.6-124.2-237.1-221.3-411-293.6S1373.3,43,1167.8,43c-153.6,0-298.1,20.3-438.1,63.2
		c-140,42.9-259.7,99.4-361.4,171.6C266.7,350.1,187.6,436,126.6,535.3c-58.7,99.4-90.3,203.3-90.3,313.9
		c0,126.5,38.4,243.9,112.9,354.6c76.8,110.7,180.7,203.3,311.7,277.8c-9,33.9-20.3,65.5-33.9,94.9s-24.8,54.2-33.9,74.5
		c-9,20.3-24.8,40.7-40.7,63.2c-18.1,22.6-29.4,40.7-38.4,49.7c-9,9-22.6,24.8-42.9,47.4c-20.3,22.6-33.9,36.1-38.4,42.9
		c0,0-4.5,4.5-9,11.3c-6.8,6.8-9,11.3-9,11.3l-6.8,11.3c-4.5,6.8-6.8,11.3-6.8,11.3c0,2.3,0,6.8-2.3,13.6c-2.3,6.8-2.3,11.3,0,15.8
		v2.3c2.3,15.8,11.3,27.1,22.6,36.1s24.8,13.6,38.4,11.3c54.2-6.8,101.6-15.8,144.5-27.1c219.1-56.5,413.3-158.1,580.4-304.9
		c63.2,6.8,124.2,9,182.9,9c205.5,0,393-36.1,566.9-108.4s309.4-169.4,411-293.6c101.6-124.2,151.3-259.7,151.3-404.3
		C2297,704.7,2247.3,569.2,2145.7,445z"/>
</g>
</svg>
