<?xml version="1.0" encoding="utf-8"?>
<!-- Generator: Adobe Illustrator 22.1.0, SVG Export Plug-In . SVG Version: 6.00 Build 0)  -->
<svg version="1.1" id="Layer_1" xmlns="http://www.w3.org/2000/svg" xmlns:xlink="http://www.w3.org/1999/xlink" x="0px" y="0px"
	 viewBox="0 0 2297 2048" style="enable-background:new 0 0 2297 2048;" xml:space="preserve">
<g>
	<g>
		<g>
			<path d="M2157.1,225.4L1971.8,40.2c-19.1-19.1-44.3-28.7-69.4-28.7c-25.2,0-50.3,9.5-69.4,28.7l-148.3,147.9l324.2,323.6
				l148.3-147.8C2195.5,325.6,2195.5,263.5,2157.1,225.4z"/>
			<polygon points="722.1,1148.8 1046.4,1472.5 1939.5,581 1615.2,257.4 			"/>
			<polygon points="652.2,1218 582.9,1610.7 976.4,1541.6 			"/>
			<path d="M1548.4,1785.6H326V563.2h862.7L1401.3,351H251c-75.5,0-137.2,61.7-137.2,137.2v1372.4c0,75.5,61.7,137.2,137.2,137.2
				h1372.4c75.4,0,137.2-61.7,137.2-137.2V879.4l-212.2,211.8L1548.4,1785.6L1548.4,1785.6z"/>
		</g>
	</g>
</g>
</svg>
