<?xml version="1.0" encoding="utf-8"?>
<!-- Generator: Adobe Illustrator 22.1.0, SVG Export Plug-In . SVG Version: 6.00 Build 0)  -->
<svg version="1.1" id="Layer_1" xmlns="http://www.w3.org/2000/svg" xmlns:xlink="http://www.w3.org/1999/xlink" x="0px" y="0px"
	 viewBox="0 0 2297 2048" style="enable-background:new 0 0 2297 2048;" xml:space="preserve">
<g>
	<g>
		<g>
			<path d="M2253.4,1287.1l-228.3-228.3c59.2-140.8,40.5-306.9-56.3-431.6V366.8c0-24.8-20.1-44.9-44.9-44.9h-111.1v-68
				c0-24.8-20.1-44.9-44.9-44.9H1180c-80.5,0-151.9,39.8-195.6,100.7C940.8,248.8,869.4,209,788.8,209h-588
				c-24.8,0-44.9,20.1-44.9,44.9v68H44.9C20.1,321.9,0,342,0,366.8v1496.7c0,24.8,20.1,44.9,44.9,44.9h1879
				c24.8,0,44.9-20.1,44.9-44.9v-436.9l72.6,72.6c29,29,67.1,43.5,105.3,43.5c38.1,0,76.3-14.5,105.3-43.6l1.4-1.4
				c28.1-28.1,43.6-65.5,43.6-105.3S2281.5,1315.2,2253.4,1287.1z M1812.8,411.6h66.2v129c-21-15.1-43.1-28.2-66.2-39.1V411.6z
				 M1869.4,649.8L1869.4,649.8c133.1,133.1,133.1,349.5,0,482.6c-19.3,19.3-40.6,36.1-63.3,50c-1.2,0.6-2.3,1.3-3.5,2.1
				c-52.2,31.2-112.1,47.8-174.5,47.8c-91.1,0-176.8-35.5-241.3-99.9c-133.1-133.1-133.1-349.5,0-482.6
				c64.5-64.5,150.1-100,241.3-100C1719.2,549.9,1804.9,585.4,1869.4,649.8z M939.5,1818.5H89.7V411.6H156v1235.3
				c0,24.8,20.1,44.9,44.9,44.9h738.7V1818.5z M939.5,1602.1H245.7v-114.6h543.2c56.8,0,109.6,20.4,150.7,57.7V1602.1z
				 M788.9,1397.7H245.7V298.7h543.2c83.1,0,150.7,67.6,150.7,150.7v683.1c0,24.8,20.1,44.9,44.9,44.9c24.8,0,44.9-20.1,44.9-44.9
				V449.4c0-83.1,67.6-150.7,150.7-150.7h543.1v171.9c-30.8-6.9-62.6-10.4-95-10.4c-115.1,0-223.3,44.8-304.7,126.2
				c-168,168-168,441.5,0,609.5c81.4,81.4,189.6,126.2,304.7,126.2c32.4,0,64.2-3.5,95-10.4v86H1180c-71.3,0-140.5,24.4-195.6,68
				C929.4,1422.1,860.2,1397.7,788.9,1397.7z M1723.1,1487.4v114.6h-693.8v-56.9c41.1-37.4,93.9-57.8,150.7-57.8H1723.1z
				 M1879,1818.5h-849.8v-126.8h738.7c24.8,0,44.9-20.1,44.9-44.9v-366.2c2.3-1.1,4.6-2.2,6.9-3.3l59.4,59.4V1818.5z M2189.9,1434.2
				l-1.4,1.4c-23.1,23.1-60.6,23.1-83.7,0l-207.7-207.7c12.4-10,24.4-20.6,35.8-32.1c17.5-17.5,33.1-36.1,46.9-55.6l210.2,210.2
				c11.2,11.2,17.3,26,17.3,41.8C2207.3,1408.1,2201.1,1423,2189.9,1434.2z"/>
		</g>
	</g>
	<g>
		<g>
			<path d="M1914.4,891.1c0-76.6-29.8-148.5-83.8-202.5c-54-54-125.9-83.8-202.5-83.8c-76.6,0-148.5,29.7-202.5,83.8
				c-54,54-83.8,125.9-83.8,202.5s29.8,148.5,83.8,202.5c54,54,125.9,83.8,202.5,83.8c76.6,0,148.5-29.7,202.5-83.8v0
				C1884.6,1039.6,1914.4,967.7,1914.4,891.1z M1767.1,1030.2C1767.1,1030.2,1767.1,1030.2,1767.1,1030.2
				c-37.1,37.1-86.5,57.5-139.1,57.5c-52.6,0-102-20.4-139.1-57.5c-37.1-37.1-57.5-86.5-57.5-139.1s20.4-102,57.5-139.1
				c37.1-37.1,86.5-57.5,139.1-57.5c52.6,0,102,20.4,139.1,57.5c37.1,37.1,57.5,86.5,57.5,139.1S1804.2,993.1,1767.1,1030.2z"/>
		</g>
	</g>
	<g>
		<g>
			<path d="M1028.4,1274.2c-0.6-2.8-1.4-5.7-2.6-8.4c-1.1-2.7-2.5-5.3-4.1-7.7c-1.7-2.5-3.5-4.8-5.6-6.8c-2.1-2.1-4.4-3.9-6.8-5.6
				c-2.5-1.6-5.1-3-7.8-4.1c-2.7-1.1-5.5-2-8.4-2.6c-5.8-1.2-11.8-1.2-17.5,0c-2.9,0.6-5.7,1.5-8.4,2.6c-2.7,1.1-5.3,2.5-7.8,4.1
				c-2.4,1.7-4.8,3.5-6.8,5.6c-2.1,2.1-3.9,4.4-5.6,6.8c-1.6,2.4-3,5-4.1,7.7c-1.1,2.7-2,5.6-2.6,8.4c-0.6,2.9-0.9,5.9-0.9,8.8
				c0,2.9,0.3,5.9,0.9,8.7c0.6,2.9,1.4,5.7,2.6,8.4c1.1,2.7,2.5,5.3,4.1,7.8c1.6,2.5,3.5,4.8,5.6,6.8c2.1,2.1,4.4,3.9,6.8,5.6
				c2.5,1.6,5.1,3,7.8,4.1s5.5,2,8.4,2.6c2.9,0.6,5.8,0.9,8.7,0.9c3,0,5.9-0.3,8.8-0.9c2.9-0.5,5.7-1.4,8.4-2.6
				c2.7-1.1,5.3-2.5,7.8-4.1c2.4-1.6,4.7-3.5,6.8-5.6c2.1-2.1,3.9-4.4,5.6-6.8c1.6-2.4,3-5,4.1-7.8c1.1-2.7,2-5.5,2.6-8.4
				c0.6-2.9,0.9-5.8,0.9-8.7S1029,1277.1,1028.4,1274.2z"/>
		</g>
	</g>
</g>
</svg>
