<?xml version="1.0" encoding="utf-8"?>
<!-- Generator: Adobe Illustrator 22.1.0, SVG Export Plug-In . SVG Version: 6.00 Build 0)  -->
<svg version="1.1" id="Layer_1" xmlns="http://www.w3.org/2000/svg" xmlns:xlink="http://www.w3.org/1999/xlink" x="0px" y="0px"
	 viewBox="0 0 2297 2048" style="enable-background:new 0 0 2297 2048;" xml:space="preserve">
<g>
	<path d="M1183.1,26.6c-559.4,0-1008.7,449.3-1008.7,1008.7S623.7,2044,1183.1,2044s1008.7-449.3,1008.7-1008.7
		S1742.4,26.6,1183.1,26.6z M1458.2,1539.6c0,27.5-18.3,45.9-45.9,45.9H678.7c-27.5,0-45.9-18.3-45.9-45.9V806
		c0-27.5,18.3-45.9,45.9-45.9h733.6c27.5,0,45.9,18.3,45.9,45.9V1539.6z M1733.3,1264.5c0,27.5-18.3,45.9-45.9,45.9h-91.7
		c-27.5,0-45.9-18.3-45.9-45.9V691.4c0-13.8-9.2-22.9-22.9-22.9H953.8c-27.5,0-45.9-18.3-45.9-45.9v-91.7
		c0-27.5,18.3-45.9,45.9-45.9h733.6c27.5,0,45.9,18.3,45.9,45.9V1264.5z"/>
	<path d="M1251.8,943.6H839.2c-13.8,0-22.9,9.2-22.9,22.9v412.7c0,13.8,9.2,22.9,22.9,22.9h412.7c13.8,0,22.9-9.2,22.9-22.9V966.5
		C1274.8,952.7,1265.6,943.6,1251.8,943.6z"/>
</g>
</svg>
