<?xml version="1.0" encoding="utf-8"?>
<!-- Generator: Adobe Illustrator 22.1.0, SVG Export Plug-In . SVG Version: 6.00 Build 0)  -->
<svg version="1.1" id="Layer_1" xmlns="http://www.w3.org/2000/svg" xmlns:xlink="http://www.w3.org/1999/xlink" x="0px" y="0px"
	 viewBox="0 0 2297 2048" style="enable-background:new 0 0 2297 2048;" xml:space="preserve">
<g>
	<g>
		<g>
			<path d="M76,346.2c308.7,261.4,850.3,721.3,1009.5,864.7c21.4,19.4,44.3,29.2,68.1,29.2c23.7,0,46.6-9.7,68-29
				c159.3-143.5,701-603.5,1009.7-864.9c19.2-16.2,22.1-44.8,6.6-64.7c-36-45.9-89.6-72.2-147.1-72.2H216.4
				c-57.5,0-111.1,26.3-147.1,72.2C53.8,301.4,56.7,329.9,76,346.2z"/>
			<path d="M2251,487.9c-16.6-7.7-36.1-5-50,6.8c-202.2,171.4-468.5,397.8-669.4,570.6c-10.6,9.1-16.5,22.4-16.3,36.3
				c0.2,13.9,6.7,27,17.6,35.7c186.7,149.5,467.9,355.1,671.1,501.3c8.1,5.9,17.7,8.8,27.4,8.8c7.3,0,14.6-1.7,21.4-5.2
				c15.7-8,25.5-24.1,25.5-41.7V530.4C2278.1,512.1,2267.5,495.5,2251,487.9z"/>
			<path d="M103.2,1638.6c203.2-146.2,484.5-351.8,671.1-501.3c10.9-8.7,17.3-21.8,17.6-35.7c0.2-14-5.7-27.3-16.3-36.3
				C574.7,892.4,308.3,666,106.2,494.6c-13.9-11.8-33.5-14.4-50-6.8C39.6,495.5,29,512.1,29,530.4v1070.2c0,17.6,9.8,33.7,25.5,41.7
				c6.7,3.5,14,5.2,21.4,5.2C85.5,1647.4,95.1,1644.4,103.2,1638.6z"/>
			<path d="M2220.7,1766c-196.2-140.3-557.5-402-773.2-577.1c-17.6-14.3-43-13.9-60.3,1.1c-42.3,36.9-77.7,68-102.9,90.6
				c-77.2,69.6-184.2,69.6-261.6-0.1c-25-22.6-60.4-53.8-102.8-90.6c-17.2-15-42.6-15.5-60.3-1.1C644.7,1363.5,283,1625.4,86.5,1766
				c-10.9,7.9-18,20-19.4,33.4c-1.3,13.4,3.1,26.7,12.3,36.6c35.5,38.2,85.4,60.1,137,60.1h1874.3c51.6,0,101.5-21.9,137-60.1
				c9.2-9.8,13.6-23.2,12.3-36.6C2238.7,1786.1,2231.6,1773.9,2220.7,1766z"/>
		</g>
	</g>
</g>
</svg>
