<?xml version="1.0" encoding="utf-8"?>
<!-- Generator: Adobe Illustrator 22.1.0, SVG Export Plug-In . SVG Version: 6.00 Build 0)  -->
<svg version="1.1" id="Layer_1" xmlns="http://www.w3.org/2000/svg" xmlns:xlink="http://www.w3.org/1999/xlink" x="0px" y="0px"
	 viewBox="0 0 2297 2048" style="enable-background:new 0 0 2297 2048;" xml:space="preserve">
<g>
	<g>
		<path d="M1870.9,1513.7c120.1-160.2,107.4-389.1-38.2-534.8c-34.1-34.1-72.7-60.9-114-80.4v-360l-502-502h-1026v1995.8h1528
			v-394.2c24.2-11.4,47.5-25.4,69.5-41.8l313.9,317.3l83.1-82.2L1870.9,1513.7z M1250.9,236.2l268.1,268.1h-268.1V236.2
			L1250.9,236.2z M1601.8,1915.4H307.6V153.5H1134v467.8h467.8v242.1c-123.3-17.7-253.2,20.9-347.9,115.5
			c-159.6,159.6-159.6,419.2,0,578.8c93.6,93.6,223,133.4,347.9,115.5V1915.4z M1750,1475.1c-114,114-299.5,114-413.4,0
			c-114-114-114-299.5,0-413.4c114-114,299.5-114,413.4,0C1864,1175.6,1864,1361.1,1750,1475.1z"/>
	</g>
</g>
<g>
	<g>
		<rect x="424.6" y="742.1" width="826.4" height="116.9"/>
	</g>
</g>
<g>
	<g>
		<rect x="424.6" y="976" width="592.5" height="116.9"/>
	</g>
</g>
<g>
	<g>
		<rect x="424.6" y="1443.7" width="592.5" height="116.9"/>
	</g>
</g>
<g>
	<g>
		<rect x="424.6" y="1209.9" width="592.5" height="116.9"/>
	</g>
</g>
</svg>
