<?xml version="1.0" encoding="utf-8"?>
<!-- Generator: Adobe Illustrator 22.1.0, SVG Export Plug-In . SVG Version: 6.00 Build 0)  -->
<svg version="1.1" id="Layer_1" xmlns="http://www.w3.org/2000/svg" xmlns:xlink="http://www.w3.org/1999/xlink" x="0px" y="0px"
	 viewBox="0 0 2297 2048" style="enable-background:new 0 0 2297 2048;" xml:space="preserve">
<path d="M2125.7,925.8c41.2-40.1,55.7-99.1,38-153.8c-17.8-54.8-64.2-93.9-121.2-102.2l-506.7-73.6c-21.6-3.1-40.2-16.7-49.9-36.2
	l-226.5-459.1c-25.4-51.6-77.1-83.6-134.6-83.6c-57.5,0-109.1,32.1-134.6,83.6L763.7,560c-9.6,19.6-28.3,33.1-49.9,36.2L207,669.8
	c-56.9,8.3-103.4,47.4-121.2,102.2c-17.8,54.8-3.2,113.7,38,153.8l366.6,357.4c15.6,15.3,22.8,37.2,19.1,58.7L423,1846.5
	c-7.7,44.4,4,87.6,32.7,121.7c44.7,53.1,122.7,69.3,185,36.5l453.2-238.3c18.9-9.9,42.8-9.8,61.7,0l453.2,238.3
	c22,11.6,45.6,17.5,69.8,17.5c44.3,0,86.3-19.7,115.2-54c28.8-34.1,40.4-77.4,32.7-121.7l-86.5-504.6c-3.7-21.5,3.5-43.4,19.1-58.7
	L2125.7,925.8z"/>
</svg>
