<?xml version="1.0" encoding="utf-8"?>
<!-- Generator: Adobe Illustrator 22.1.0, SVG Export Plug-In . SVG Version: 6.00 Build 0)  -->
<svg version="1.1" id="Layer_1" xmlns="http://www.w3.org/2000/svg" xmlns:xlink="http://www.w3.org/1999/xlink" x="0px" y="0px"
	 viewBox="0 0 2297 2048" style="enable-background:new 0 0 2297 2048;" xml:space="preserve">
<path d="M1916.4,565.3h-809.5c-49.7,194.5-228.4,339.2-438.7,339.2c-251,0-452.3-203.5-452.3-452.3S419.4,0,668.1,0
	c210.3,0,388.9,144.7,438.7,339.2h807.3c63.3,0,113.1,49.7,113.1,113.1S1979.7,565.3,1916.4,565.3z M670.4,223.9
	C546,223.9,444.3,325.6,444.3,450S546,676.1,670.4,676.1S896.5,574.4,896.5,450S794.8,223.9,670.4,223.9z M328.9,1469.8h807.3
	c49.7-194.5,228.4-339.2,438.7-339.2c251,0,452.3,203.5,452.3,452.3s-203.5,452.3-452.3,452.3c-210.3,0-388.9-144.7-438.7-339.2
	H328.9c-63.3,0-113.1-49.7-113.1-113.1S265.6,1469.8,328.9,1469.8z M1574.9,1811.3c124.4,0,226.1-101.8,226.1-226.1
	S1699.3,1359,1574.9,1359s-226.1,101.8-226.1,226.1S1450.6,1811.3,1574.9,1811.3z"/>
</svg>
