<svg width="2118" height="2048" xmlns="http://www.w3.org/2000/svg" xmlns:svg="http://www.w3.org/2000/svg"><path d="m2099.36792,817.836792c-24.706543,-24.847656 -64.6604,-24.847656 -89.366943,0l-360.714233,363.537964l-703.569519,-709.216614l360.714417,-363.537964c24.706543,-24.706459 24.706543,-64.942696 0,-89.931519c-24.706543,-24.91823 -64.589844,-24.91823 -89.296143,0l-405.327271,408.433136l0,0.141174l-143.579895,144.356293c-0.705872,0.705933 -1.058838,1.411804 -1.623535,2.117676c-2.470642,2.682434 -4.80011,5.435425 -6.635437,8.329651c-0.705933,0.917664 -0.98822,1.976501 -1.552979,2.964722c-1.623535,2.823608 -3.176575,5.788452 -4.376587,8.753235c0,0.282288 -0.282349,0.49408 -0.352966,0.705811l-184.874878,500.199951l-215.087402,216.852173c-24.706451,24.918091 -24.706451,65.225098 0,90.072754l46.942261,47.295288l-282.359528,284.618408c-14.117978,14.118042 -20.753428,34.306641 -17.92983,54.142456c3.035365,19.976807 15.035647,37.412476 32.612532,46.871582l376.95002,205.416626c9.459015,5.223633 19.765167,7.764893 30.000702,7.764893c16.235687,0 32.471344,-6.494385 44.683411,-18.706421l195.816315,-197.298584l48.001099,48.424561c12.35321,12.423828 28.518311,18.635742 44.683411,18.635742c16.235718,0 32.3302,-6.211914 44.683411,-18.635742l215.157959,-216.922729l495.117554,-187.486694c0.211792,0 0.353027,-0.211792 0.564697,-0.282349c3.529541,-1.411865 6.776611,-3.106079 10.023804,-5.08252l1.623535,-0.705933c3.529419,-2.399902 7.059082,-5.223633 10.306152,-8.470703l143.509277,-144.568115l405.397705,-408.574219c24.706299,-24.988831 24.706299,-65.225098 0,-90.072754l-0.141113,-0.141235zm-539.165649,453.751831l-54.213013,54.56604l-703.781311,-709.35791l54.142456,-54.565918l703.640076,709.216553l0.211792,0.141235zm-584.343201,277.418213c-8.470764,3.106079 -16.094482,8.047363 -22.447571,14.541504l-180.215942,181.627808l-385.420837,-388.385498l180.286621,-181.627808c6.494263,-6.494263 11.435547,-14.259155 14.612061,-22.800537l155.297791,-420.292175l654.085938,659.309509l-416.127441,157.627197l-0.070618,0z"/></svg>