<?xml version="1.0" encoding="utf-8"?>
<!-- Generator: Adobe Illustrator 22.1.0, SVG Export Plug-In . SVG Version: 6.00 Build 0)  -->
<svg version="1.1" id="Layer_1" xmlns="http://www.w3.org/2000/svg" xmlns:xlink="http://www.w3.org/1999/xlink" x="0px" y="0px"
	 viewBox="0 0 2297 2048" style="enable-background:new 0 0 2297 2048;" xml:space="preserve">
<g>
	<g>
		<g>
			<path d="M2161.8,923.7l-319.1-319.1V236c0-66.6-54-120.7-120.7-120.7c-66.6,0-120.6,54-120.6,120.7v127.2l-237.6-237.6
				C1246.4,8.3,1042.1,8.5,925,125.9L127.1,923.7c-47.1,47.2-47.1,123.5,0,170.7c47.1,47.2,123.6,47.2,170.7,0l797.7-797.8
				c26-25.9,71.8-25.9,97.6-0.1l797.9,797.9c23.7,23.6,54.5,35.3,85.3,35.3c30.9,0,61.8-11.7,85.4-35.3
				C2208.9,1047.2,2208.9,970.9,2161.8,923.7z"/>
			<path d="M1186.4,525.5c-23.2-23.2-60.7-23.2-83.8,0l-701.8,701.5c-11.1,11.1-17.4,26.2-17.4,42v511.7
				c0,120.1,97.4,217.4,217.4,217.4h347.4v-538.1h392.3v538.1H1688c120.1,0,217.4-97.4,217.4-217.4v-511.7c0-15.8-6.2-30.9-17.4-42
				L1186.4,525.5z"/>
		</g>
	</g>
</g>
</svg>
