<svg width="100" height="100" xmlns="http://www.w3.org/2000/svg" xmlns:svg="http://www.w3.org/2000/svg"><path d="m5.793583,67.34683l0,23.50213l88.412837,0l0,-23.50213l-88.412837,0zm85.055362,20.144689l-81.697914,0l0,-16.787248l81.697914,0l0,16.787248z"/><path d="m50.559568,38.248936l-44.765985,0l0,23.502144l44.765985,0l0,-23.502144zm-3.357451,20.144689l-38.051086,0l0,-16.787243l38.051086,0l0,16.787243z"/><path d="m81.895765,9.151043l-76.102182,0l0,23.502144l76.102182,0l0,-23.502144zm-3.357455,20.144692l-69.387278,0l0,-16.787244l69.387278,0l0,16.787244z"/></svg>