<svg width="2048" height="2048" xmlns="http://www.w3.org/2000/svg" xmlns:svg="http://www.w3.org/2000/svg"><path d="m426.645203,0l0,2048.07373l1194.709534,0l0,-2048.07373l-1194.709534,0zm1109.373352,1962.737305l-1024.036957,0l0,-1877.400902l1024.036957,0l0,1877.400902z"/><rect height="85.336403" width="597.35482" y="213.341007" x="703.988512"/><rect height="85.336403" width="768.027626" y="981.368633" x="639.98621"/><polygon points="1237.3410034179688,1194.7095947265625 810.6590270996094,1194.7095947265625 810.6590270996094,1192.618896484375 1024.0213623046875,1322.7142333984375 1237.3410034179688,1192.618896484375 "/><rect height="170.672806" width="170.672806" y="1450.718849" x="639.98621"/><rect height="170.672806" width="170.672806" y="1450.718849" x="938.66362"/><rect height="170.672806" width="170.672806" y="1450.718849" x="1237.34103"/><path d="m1090.775757,487.825531c-83.736328,-83.736328 -219.527893,-83.736328 -303.264221,0c-83.757751,83.757721 -83.757751,219.527863 0,303.264313c76.376038,76.397339 196.039063,83.07489 280.031433,20.096619l-150.064087,-150.064026l173.296875,-173.296906z"/><path d="m1215.366943,791.089844c83.736328,-83.73645 84.227051,-220.65863 0.490723,-304.416321l-173.787598,174.448914l150.063965,150.064026c8.085693,-6.058899 15.872559,-12.73645 23.23291,-20.096619z"/><rect height="85.336403" width="768.027626" y="1749.396259" x="639.98621"/></svg>