<?xml version="1.0" encoding="utf-8"?>
<!-- Generator: Adobe Illustrator 22.1.0, SVG Export Plug-In . SVG Version: 6.00 Build 0)  -->
<svg version="1.1" id="Layer_1" xmlns="http://www.w3.org/2000/svg" xmlns:xlink="http://www.w3.org/1999/xlink" x="0px" y="0px"
	 viewBox="0 0 2297 2048" style="enable-background:new 0 0 2297 2048;" xml:space="preserve">
<style type="text/css">
	.st0{fill:#030104;}
</style>
<g>
	<path class="st0" d="M1158.7,0c-565.5,0-1024,458.5-1024,1024s458.5,1024,1024,1024s1024-458.6,1024-1024S1724.2,0,1158.7,0z
		 M1371.9,1587c-52.7,20.8-94.7,36.6-126.1,47.5c-31.4,10.9-67.9,16.4-109.4,16.4c-63.8,0-113.5-15.6-148.8-46.7
		c-35.4-31.1-53-70.6-53-118.5c0-18.6,1.3-37.7,3.9-57.1c2.7-19.4,6.9-41.3,12.7-65.8l66-233c5.8-22.4,10.8-43.6,14.8-63.4
		c4-19.9,5.9-38.2,5.9-54.9c0-29.6-6.2-50.5-18.4-62.2c-12.4-11.7-35.7-17.4-70.5-17.4c-17,0-34.5,2.5-52.4,7.8
		c-17.8,5.5-33.2,10.4-45.9,15.3l17.4-71.8c43.2-17.6,84.5-32.7,124-45.2c39.4-12.7,76.7-18.9,111.8-18.9
		c63.4,0,112.3,15.4,146.7,45.9c34.2,30.6,51.5,70.4,51.5,119.3c0,10.1-1.2,28-3.6,53.5c-2.3,25.6-6.8,48.9-13.2,70.3l-65.6,232.3
		c-5.4,18.6-10.1,40-14.5,63.8c-4.2,23.8-6.3,42-6.3,54.3c0,30.9,6.8,51.9,20.7,63.1c13.7,11.2,37.7,16.8,71.7,16.8
		c16,0,34-2.9,54.3-8.4c20.1-5.5,34.7-10.5,43.9-14.7L1371.9,1587z M1360.3,644c-30.6,28.4-67.4,42.7-110.5,42.7
		c-43,0-80.1-14.2-111-42.7c-30.7-28.4-46.2-63-46.2-103.4c0-40.3,15.6-75,46.2-103.7c30.9-28.8,68-43.1,111-43.1
		c43.1,0,80,14.3,110.5,43.1c30.6,28.7,45.9,63.4,45.9,103.7C1406.2,581.1,1390.9,615.6,1360.3,644z"/>
</g>
</svg>
