<?xml version="1.0" encoding="utf-8"?>
<!-- Generator: Adobe Illustrator 22.1.0, SVG Export Plug-In . SVG Version: 6.00 Build 0)  -->
<svg version="1.1" id="Layer_1" xmlns="http://www.w3.org/2000/svg" xmlns:xlink="http://www.w3.org/1999/xlink" x="0px" y="0px"
	 viewBox="0 0 2297 2048" style="enable-background:new 0 0 2297 2048;" xml:space="preserve">
<g>
	<path d="M1916.8,1681.2c158.5-177.9,254.3-412.8,254.3-669.4c0-266.9-103.8-509.8-273.7-691.1l0,0
		C1720.6,132.5,1473.2,12.8,1197.2,2.5h-19.4c-4.6,0-10.3,0-14.8,0c-4.6,0-10.3,0-14.8,0h-19.4c-276,9.1-523.4,130-700.2,318.2l0,0
		l0,0c-169.9,180.2-273.7,424.2-273.7,691.1c0,256.6,96.9,491.5,254.3,669.4v1.1c1.1,1.1,1.1,1.1,2.3,2.3
		c177.9,198.4,433.4,327.3,717.3,336.4l19.4,1.1c4.6,0,10.3,0,14.8,0c4.6,0,10.3,0,14.8,0h19.4l0,0
		c285.1-10.3,540.5-138,718.5-337.6C1914.5,1683.5,1915.6,1683.5,1916.8,1681.2C1916.8,1682.3,1916.8,1682.3,1916.8,1681.2
		L1916.8,1681.2z M222.1,1047.1h418.5c3.4,147.1,33.1,290.8,84.4,425.4c-99.2,35.4-193.9,84.4-282.8,143.7
		C311.1,1461.1,230.1,1263.8,222.1,1047.1L222.1,1047.1z M460.5,386.8c86.7,55.9,179,101.5,274.8,135.7
		c-59.3,142.5-91.2,297.6-95.8,456.2H221C230.1,750.6,319.1,544.2,460.5,386.8L460.5,386.8z M2100.4,977.6h-418.5
		c-4.6-158.5-36.5-312.5-95.8-456.2c95.8-34.2,188.2-78.7,274.8-135.7C2003.4,544.2,2092.4,750.6,2100.4,977.6L2100.4,977.6z
		 M1126.5,523.7c-100.4-2.3-199.6-18.2-295.4-44.5c70.7-144.8,169.9-276,295.4-384.3V523.7z M1126.5,593.2v384.3H710.2
		c4.6-151.7,36.5-298.8,92.4-434.5C906.4,573.9,1015.9,589.8,1126.5,593.2L1126.5,593.2z M1196,593.2c110.6-3.4,219-19.4,323.9-50.2
		c57,135.7,89,282.8,92.4,434.5h-417.4V593.2H1196z M1196,523.7V94.9c124.3,108.3,224.7,239.5,295.4,384.3
		C1395.6,505.4,1296.4,520.3,1196,523.7L1196,523.7z M1558.7,457.5c-67.3-140.3-159.7-268-274.8-377.5
		c204.1,26.2,387.7,118.6,529.1,255.4C1732,385.7,1647.6,426.7,1558.7,457.5L1558.7,457.5z M763.8,457.5
		c-89-30.8-174.5-71.8-254.3-122c141.4-135.7,325-228.1,529.1-255.4C923.5,189.5,831.1,317.3,763.8,457.5L763.8,457.5z
		 M709.1,1047.1h416.2v350.1c-115.2,3.4-228.1,20.5-336.4,53.6C741,1323.1,713.7,1187.4,709.1,1047.1L709.1,1047.1z M1126.5,1466.8
		v464.1c-133.4-116.3-238.3-257.7-309-415.1C916.6,1486.2,1020.4,1469.1,1126.5,1466.8L1126.5,1466.8z M1196,1929.8v-464.1
		c106.1,3.4,209.8,19.4,309,49C1434.4,1672.1,1329.5,1813.5,1196,1929.8L1196,1929.8z M1196,1397.2v-350.1h417.4
		c-3.4,140.3-31.9,276-81,403.7C1424.1,1417.8,1311.2,1399.5,1196,1397.2L1196,1397.2z M1683,1047.1h418.5
		c-8,216.7-89,414-220.1,569.1c-89-60.4-183.6-108.3-282.8-143.7C1649.9,1337.9,1678.4,1194.2,1683,1047.1L1683,1047.1z M489,1668.6
		c82.1-54.7,169.9-99.2,261.2-131.1c67.3,151.7,165.4,289.7,288.5,407.1C824.3,1916.1,632.7,1815.8,489,1668.6L489,1668.6z
		 M1283.9,1944.6c123.2-117.5,220.1-255.4,288.5-407.1c91.2,33.1,179,76.4,262.3,131.1C1689.8,1815.8,1498.3,1916.1,1283.9,1944.6
		L1283.9,1944.6z"/>
</g>
</svg>
