<?xml version="1.0" encoding="utf-8"?>
<!-- Generator: Adobe Illustrator 22.1.0, SVG Export Plug-In . SVG Version: 6.00 Build 0)  -->
<svg version="1.1" id="Layer_1" xmlns="http://www.w3.org/2000/svg" xmlns:xlink="http://www.w3.org/1999/xlink" x="0px" y="0px"
	 viewBox="0 0 2297 2048" style="enable-background:new 0 0 2297 2048;" xml:space="preserve">
<g>
	<g>
		<path d="M168.7,1575.3v367.9c0,22.4,18.2,41,41,41h284.4c22.4,0,41-18.2,41-41V1296l-206.6,206.6
			C284.8,1545.9,228.9,1571.1,168.7,1575.3z"/>
		<path d="M677,1291.3v651.9c0,22.4,18.2,41,41,41h284.4c22.4,0,41-18.2,41-41v-383.8c-64.8-1.4-125.4-27-171.1-72.7L677,1291.3z"/>
		<path d="M1185.2,1518.8v424.3c0,22.4,18.2,41,41,41h284.4c22.4,0,41-18.2,41-41v-782.9l-325.9,325.9
			C1213.2,1498.8,1199.7,1509.5,1185.2,1518.8z"/>
		<path d="M2032.5,679.1l-339,339v925.1c0,22.4,18.2,41,41,41h284.4c22.4,0,41-18.2,41-41V704.7c-9.3-7.9-16.3-14.9-21.4-19.6
			L2032.5,679.1z"/>
		<path d="M2265.1,78.5c-13.5-14.5-34-21.9-60.2-21.9c-2.3,0-5.1,0-7.5,0c-132.4,6.1-264.4,12.6-396.8,18.7
			c-17.7,0.9-42,1.9-61.1,21c-6.1,6.1-10.7,13.1-14.5,21.4c-19.6,42.4,7.9,69.9,21,83l33.1,33.6c22.8,23.3,46.2,46.6,69.5,69.5
			l-800.2,800.6L689.1,744.8c-21.4-21.4-50.4-33.6-81.1-33.6s-59.2,12.1-80.7,33.6L48.4,1223.2c-44.8,44.8-44.8,117,0,161.8
			l21.4,21.4c21.4,21.4,50.4,33.6,81.1,33.6s59.2-12.1,80.7-33.6L608,1030.2l359.5,359.5c21.4,21.4,50.4,33.6,81.1,33.6
			c30.8,0,59.2-12.1,81.1-33.6l902.7-902.7l102.1,101.7c12.1,12.1,28.9,28.9,54.6,28.9c10.7,0,21.4-2.8,32.6-8.9
			c7.5-4.2,14-8.9,19.6-14.5c20.1-20.1,23.8-45.7,24.7-65.7c3.7-85.8,7.9-171.6,12.1-257.9l6.1-129.2
			C2285.7,114.4,2279.6,93.4,2265.1,78.5z"/>
	</g>
</g>
</svg>
