<svg xmlns="http://www.w3.org/2000/svg" height="511pt" version="1.1" viewBox="0 -8 511.99797 511" width="511pt">
<g id="surface1">
<path d="M 404.832031 270.144531 L 306.03125 261.109375 L 262.898438 351.472656 L 247.355469 279.90625 L 241.574219 253.277344 L 214.222656 249.542969 L 142.773438 239.785156 L 227.957031 188.816406 L 210.609375 90.019531 L 284.828125 156.527344 L 371.9375 108.695312 L 333.261719 200.988281 Z M 404.832031 270.144531 " style=" stroke:none;fill-rule:nonzero;fill:rgb(46.666667%,96.862745%,66.666667%);fill-opacity:1;" />
<path d="M 241.574219 253.277344 L 247.355469 279.90625 L 121.808594 405.332031 L 121.691406 405.210938 L 90.125 373.644531 L 214.222656 249.542969 Z M 241.574219 253.277344 " style=" stroke:none;fill-rule:nonzero;fill:rgb(46.666667%,96.862745%,66.666667%);fill-opacity:1;" />
<path d="M 121.808594 405.332031 L 50.363281 476.898438 C 41.566406 485.574219 27.351562 485.574219 18.675781 476.660156 C 10 467.863281 10 453.886719 18.675781 445.09375 L 90.125 373.644531 L 121.691406 405.210938 Z M 121.808594 405.332031 " style=" stroke:none;fill-rule:nonzero;fill:rgb(87.058824%,100%,90.980392%);fill-opacity:1;" />
<path d="M 347.480469 198.097656 L 383.023438 113.394531 C 385.554688 107.25 382.660156 100.140625 376.515625 97.609375 C 373.144531 96.164062 369.289062 96.40625 366.035156 98.214844 L 286.394531 141.949219 L 218.558594 80.984375 C 213.621094 76.527344 206.03125 77.007812 201.570312 81.949219 C 199.160156 84.71875 198.078125 88.453125 198.679688 92.070312 L 214.703125 182.675781 L 136.628906 229.421875 C 130.964844 232.796875 129.039062 240.265625 132.53125 245.929688 C 134.460938 249.0625 137.59375 251.230469 141.207031 251.710938 L 188.558594 258.21875 L 10.121094 436.539062 C -3.375 450.03125 -3.375 471.839844 10.121094 485.335938 C 23.613281 498.828125 45.421875 498.828125 58.917969 485.335938 L 240.25 304.003906 L 251.09375 353.882812 C 252.539062 360.390625 258.925781 364.484375 265.429688 363.039062 C 269.046875 362.195312 272.179688 359.789062 273.746094 356.414062 L 313.382812 273.640625 L 403.746094 281.953125 C 410.375 282.554688 416.277344 277.734375 416.878906 271.109375 C 417.242188 267.496094 415.917969 263.878906 413.265625 261.351562 Z M 41.808594 468.34375 C 37.710938 472.441406 31.203125 472.441406 27.109375 468.34375 C 23.011719 464.25 23.011719 457.742188 27.109375 453.644531 L 90.003906 390.753906 L 104.699219 405.453125 Z M 121.808594 388.34375 L 107.109375 373.644531 L 218.441406 262.3125 L 231.453125 264.121094 L 234.105469 276.050781 Z M 307.238281 249.0625 C 302.179688 248.578125 297.480469 251.351562 295.308594 255.808594 L 267.238281 314.484375 L 253.378906 250.75 C 252.296875 245.808594 248.199219 242.074219 243.257812 241.351562 L 215.910156 237.617188 L 178.4375 232.433594 L 234.222656 199.0625 C 238.5625 196.53125 240.730469 191.589844 239.886719 186.652344 L 228.558594 122.191406 L 276.875 165.445312 C 280.730469 168.820312 286.273438 169.542969 290.730469 167.011719 L 347.601562 135.804688 L 322.179688 196.289062 C 320.25 200.867188 321.335938 206.167969 324.949219 209.664062 L 371.9375 254.964844 Z M 307.238281 249.0625 " style=" stroke:none;fill-rule:nonzero;fill:rgb(14.117647%,70.196078%,38.039216%);fill-opacity:1;" />
<path d="M 355.433594 329.0625 C 351.699219 323.523438 344.226562 322.078125 338.683594 325.8125 C 333.140625 329.546875 331.695312 337.015625 335.433594 342.558594 L 335.550781 342.679688 L 369.167969 391.71875 C 372.902344 397.261719 380.371094 398.707031 385.914062 394.96875 C 391.457031 391.234375 392.902344 383.765625 389.167969 378.222656 L 389.046875 378.101562 Z M 355.433594 329.0625 " style=" stroke:none;fill-rule:nonzero;fill:rgb(14.117647%,70.196078%,38.039216%);fill-opacity:1;" />
<path d="M 298.082031 82.671875 C 304.707031 82.671875 310.128906 77.25 310.128906 70.621094 L 310.128906 12.546875 C 310.128906 5.921875 304.707031 0.5 298.082031 0.5 C 291.453125 0.5 286.03125 5.921875 286.03125 12.546875 L 286.03125 70.621094 C 286.03125 77.25 291.453125 82.671875 298.082031 82.671875 Z M 298.082031 82.671875 " style=" stroke:none;fill-rule:nonzero;fill:rgb(14.117647%,70.196078%,38.039216%);fill-opacity:1;" />
<path d="M 496.882812 147.972656 L 419.410156 167.371094 C 412.902344 168.816406 408.925781 175.324219 410.375 181.828125 C 411.820312 188.335938 418.324219 192.3125 424.832031 190.867188 C 424.953125 190.867188 425.074219 190.746094 425.191406 190.746094 L 502.664062 171.347656 C 509.171875 169.902344 513.148438 163.394531 511.703125 156.890625 C 510.253906 150.382812 503.75 146.40625 497.242188 147.855469 C 497.125 147.972656 497.003906 147.972656 496.882812 147.972656 Z M 496.882812 147.972656 " style=" stroke:none;fill-rule:nonzero;fill:rgb(14.117647%,70.196078%,38.039216%);fill-opacity:1;" />
<path d="M 77.472656 154.839844 L 134.945312 164.480469 C 141.449219 165.5625 147.714844 161.105469 148.800781 154.601562 C 149.882812 148.09375 145.425781 141.949219 138.921875 140.742188 L 81.449219 131.105469 C 74.941406 130.019531 68.675781 134.480469 67.589844 140.984375 C 66.507812 147.492188 70.964844 153.757812 77.472656 154.839844 Z M 77.472656 154.839844 " style=" stroke:none;fill-rule:nonzero;fill:rgb(14.117647%,70.196078%,38.039216%);fill-opacity:1;" />
</g>
</svg>