<svg xmlns="http://www.w3.org/2000/svg" width="3755" height="2048"><path d="m3626.485352,1682.819458c0,0 -2111.344849,-187.927856 -2111.344849,-187.927856c-60.064209,-169.612915 -216.594971,-293.154053 -404.636719,-304.074707c-3.185181,-166.768921 -77.582764,-314.995483 -192.591919,-419.31134c0,0 68.823425,-771.505554 68.823425,-771.505554c0,0 2768.068909,246.28566 2768.068909,246.28566c0,0 -128.318848,1436.533798 -128.318848,1436.533798zm-1912.496216,-1426.181854c0,0 -94.419067,1055.900238 -94.419067,1055.900238c0,0 1833.093506,163.242432 1833.093506,163.242432c0,0 94.418945,-1056.013916 94.418945,-1056.013916c0,0 -1833.093384,-163.128754 -1833.093384,-163.128754zm-27.415649,1000.158905c0,0 83.384399,-933.155548 83.384399,-933.155548c0,0 1710.121216,152.094238 1710.121216,152.094238c0,0 -83.384277,933.269318 -83.384277,933.269318c0,0 -1710.121338,-152.208008 -1710.121338,-152.208008zm-1158.509644,472.208496c-291.675095,0 -528.063843,-236.047241 -528.063843,-526.926147c0,-291.220032 236.388748,-527.153687 527.950073,-527.153687c291.561279,0.11377 528.063721,236.047424 528.063721,527.153687c0,290.878906 -236.388672,526.926147 -527.949951,526.926147zm579.027222,-483.015625c211.362061,12.172241 379.609985,185.65271 379.723633,399.858765c0,222.055298 -180.4198,402.133911 -403.043945,402.133911c-183.832581,0 -337.178101,-123.654785 -385.525269,-291.675171c225.012939,-68.823486 390.41687,-268.013428 408.845581,-510.317505z" /></svg>
