<?xml version="1.0" encoding="utf-8"?>
<!-- Generator: Adobe Illustrator 22.1.0, SVG Export Plug-In . SVG Version: 6.00 Build 0)  -->
<svg version="1.1" id="Layer_1" xmlns="http://www.w3.org/2000/svg" xmlns:xlink="http://www.w3.org/1999/xlink" x="0px" y="0px"
	 viewBox="0 0 2297 2048" style="enable-background:new 0 0 2297 2048;" xml:space="preserve">
<g>
	<path d="M2079.6,397.6c-12.4-163.4-149.7-293.2-316.6-293.2H391.6c-175.1,0-318,142.8-318,318V1655c0,175.1,142.8,318,318,318
		h1537.6c175.1,0,318-142.8,318-318V677.1C2247.1,556.2,2179.2,451.1,2079.6,397.6L2079.6,397.6z M1908.6,1654.3
		c0,80.3-65.2,145.6-145.6,145.6H391.6c-80.3,0-145.6-65.2-145.6-145.6v-1232c0-80.3,65.2-145.6,145.6-145.6H1763
		c80.3,0,145.6,65.2,145.6,145.6V1654.3z"/>
	<path d="M419,749.2h3.4c24.7,0,44.6-19.9,44.6-44.6v-158l133.9,184c8.2,11.7,22,18.5,36.4,18.5h4.1c0,0,0,0,0.7,0h0.7h3.4
		c24.7,0,44.6-19.9,44.6-44.6V409.9c0-24.7-19.9-44.6-44.6-44.6h-3.4c-24.7,0-44.6,19.9-44.6,44.6v158l-133.9-184
		c-8.2-11.7-22-18.5-36.4-18.5h-4.1c0,0,0,0-0.7,0h-0.7H419c-24.7,0-44.6,19.9-44.6,44.6v294.6C374.4,729.3,394.3,749.2,419,749.2
		L419,749.2z"/>
	<path d="M965.7,659.2H825.6v-60.4h114c24.7,0,44.6-19.9,44.6-44.6v-3.4c0-24.7-19.9-44.6-44.6-44.6h-114v-47.4h133.9
		c24.7,0,44.6-19.9,44.6-44.6v-3.4c0-24.7-19.9-44.6-44.6-44.6h-182c-24.7,0-44.6,19.9-44.6,44.6v294.6c0,24.7,19.9,44.6,44.6,44.6
		h188.2c24.7,0,44.6-19.9,44.6-44.6C1011,679.8,990.4,659.2,965.7,659.2L965.7,659.2z"/>
	<path d="M1166.9,749.2h2.7l0,0l0,0h2.1c19.2,0,36.4-12.4,42.6-30.2l56.3-166.2l55.6,166.2c6.2,18.5,23.3,30.2,42.6,30.2h2.7l0,0
		l0,0h2.1c19.2,0,36.4-12.4,42.6-30.2l99.6-294.6c4.8-13.7,2.1-28.8-6.2-40.5c-8.2-11.7-22-18.5-36.4-18.5h-4.8
		c-19.2,0-36.4,12.4-42.6,30.9l-54.9,166.9l-55.6-166.9c-6.2-18.5-23.3-30.9-42.6-30.9h-6.2c-19.2,0-36.4,12.4-42.6,30.9
		l-55.6,166.9l-55.6-166.9c-6.2-18.5-23.3-30.9-42.6-30.9h-4.8c-14.4,0-28.2,6.9-36.4,18.5c-8.2,11.7-11,26.8-6.2,40.5l99.6,294.6
		C1130.5,736.8,1147.7,749.2,1166.9,749.2L1166.9,749.2z"/>
	<path d="M1664.1,749.2c99.6,0,143.5-57.7,143.5-114.7c0.7-88.6-76.9-111.9-122.9-126.4c-51.5-15.8-56.3-22-56.3-34.3
		c0-7.6,17.9-15.8,44.6-15.8c17.9,0,39.1,5.5,51.5,13c21.3,12.4,48.1,6.2,61.1-14.4l1.4-2.7c6.2-10.3,8.2-22.7,5.5-34.3
		c-2.7-11.7-10.3-22-20.6-28.2c-27.5-16.5-64.6-26.8-99.6-26.8c-95.5,0-138,54.3-138,108.5c0,86.5,73.5,108.5,121.6,123.6
		c52.9,15.8,57.7,22.7,57,37.1c0,15.1-26.1,22-50.8,22c-24,0-49.4-10.3-64.6-25.4c-8.2-8.2-19.9-13-31.6-13l0,0
		c-11.7,0-23.3,4.8-31.6,13l-2.7,2.7c-8.2,8.2-13,19.9-13,32.3c0,11.7,4.8,23.3,13.7,31.6C1567.3,729.3,1616.7,749.2,1664.1,749.2
		L1664.1,749.2z"/>
	<path d="M883.3,879.7H456.8c-47.4,0-85.8,38.5-85.8,85.8s38.5,85.8,85.8,85.8h426.5c47.4,0,85.8-38.5,85.8-85.8
		S930.6,879.7,883.3,879.7L883.3,879.7z"/>
	<path d="M883.3,1166.1H456.8c-47.4,0-85.8,38.5-85.8,85.8c0,47.4,38.5,85.8,85.8,85.8h426.5c47.4,0,85.8-38.5,85.8-85.8
		C969.1,1205.2,930.6,1166.1,883.3,1166.1L883.3,1166.1z"/>
	<path d="M883.3,1453.1H456.8c-47.4,0-85.8,38.5-85.8,85.8s38.5,85.8,85.8,85.8h426.5c47.4,0,85.8-38.5,85.8-85.8
		S930.6,1453.1,883.3,1453.1L883.3,1453.1z"/>
	<path d="M1758.2,867.3H1101c-27.5,0-50.1,22.7-50.1,50.1v670.3c0,27.5,22,50.1,50.1,50.1h657.2c27.5,0,50.1-22,50.1-50.1V917.5
		C1807.6,890,1785.6,867.3,1758.2,867.3L1758.2,867.3z"/>
</g>
</svg>
