<?xml version="1.0" encoding="utf-8"?>
<!-- Generator: Adobe Illustrator 22.1.0, SVG Export Plug-In . SVG Version: 6.00 Build 0)  -->
<svg version="1.1" id="Layer_1" xmlns="http://www.w3.org/2000/svg" xmlns:xlink="http://www.w3.org/1999/xlink" x="0px" y="0px"
	 viewBox="0 0 2297 2048" style="enable-background:new 0 0 2297 2048;" xml:space="preserve">
<g>
	<g>
		<path d="M1170.3,1523.7c-23.6,0-38.9,2.1-47.9,4.2v306.4c9.1,2.1,23.6,2.1,36.8,2.1c95.9,0.7,158.4-52.1,158.4-164
			C1318.2,1575.1,1261.3,1523.7,1170.3,1523.7z"/>
		<path d="M761,1522.3c-21.5,0-36.1,2.1-43.8,4.1v138.3c9,2.1,20.2,2.8,35.4,2.8c56.3,0,91-28.5,91-76.4
			C843.7,1548,813.8,1522.3,761,1522.3z"/>
		<path d="M1912.8,513.2c-0.1-9-3-17.9-9.2-25L1524.1,54.7c-0.1-0.1-0.2-0.2-0.3-0.3c-2.3-2.5-4.9-4.6-7.7-6.4
			c-0.8-0.5-1.7-1-2.6-1.5c-2.4-1.3-4.9-2.4-7.6-3.2c-0.7-0.2-1.4-0.5-2.1-0.7c-2.9-0.7-5.8-1.1-8.8-1.1H562.1
			c-42.6,0-77.2,34.6-77.2,77.2V1933c0,42.6,34.6,77.2,77.2,77.2H1836c42.6,0,77.2-34.6,77.2-77.2V517.5
			C1913.2,516.1,1913,514.7,1912.8,513.2z M905.5,1699.5c-36.1,34-89.6,49.3-152.2,49.3c-13.9,0-26.4-0.7-36.1-2.1v167.4H612.3v-462
			c32.6-5.5,78.5-9.7,143.1-9.7c65.3,0,111.8,12.5,143.1,37.5c29.9,23.6,50,62.5,50,108.4C948.5,1634.2,933.3,1673.1,905.5,1699.5z
			 M1352.2,1858.6c-49.3,41-124.3,60.4-216,60.4c-54.9,0-93.8-3.5-120.2-6.9v-459.9c38.9-6.2,89.7-9.7,143.1-9.7
			c88.9,0,146.6,16,191.7,50c48.6,36.1,79.2,93.8,79.2,176.5C1430.1,1758.5,1397.4,1820.4,1352.2,1858.6z M1785.9,1532.7h-180v107
			H1774v86.2h-168.1v188.3h-106.3v-468.2h286.2V1532.7z M562.1,1352.3V118.7h894.3v395c0,21.3,17.3,38.6,38.6,38.6h341l0,800.1
			H562.1z"/>
		<path d="M1595.1,871.2c-2.3-0.2-56.7-5.2-140.2-5.2c-26.2,0-52.5,0.5-78.5,1.5c-164.9-123.7-299.9-247.6-372.3-317
			c1.3-7.6,2.2-13.7,2.6-18.3c9.5-100.7-1.1-168.6-31.4-202c-19.9-21.8-49-29.1-79.5-20.8c-18.9,5-53.9,23.3-65.1,60.6
			c-12.4,41.2,7.5,91.3,59.7,149.3c0.8,0.9,18.5,19.4,50.7,50.9c-20.9,99.8-75.7,315.1-102.3,418.5
			c-62.4,33.4-114.4,73.5-154.7,119.6l-2.6,3l-1.7,3.6c-4.1,8.7-24,53.9-9.1,90.2c6.8,16.5,19.5,28.6,36.8,34.9l4.6,1.2
			c0,0,4.2,0.9,11.5,0.9c32.2,0,111.7-16.9,154.3-174l10.3-39.8c148.8-72.3,334.9-95.7,469.7-102.2
			c69.4,51.4,138.4,98.7,205.3,140.5l2.2,1.3c3.2,1.7,32.6,16.1,66.9,16.2l0,0c49.1,0,84.9-30.1,98.3-82.6l0.7-3.6
			c3.7-30-3.8-57-21.8-78.2C1672,875.3,1601.4,871.4,1595.1,871.2z M725.2,1184.3c-0.3-0.4-0.4-0.7-0.6-1.1
			c-3.2-7.7,0.6-26.4,6.3-40.1c24.3-27.1,53.4-52.1,87-74.5C785.2,1174.6,737.5,1183.8,725.2,1184.3z M933.1,480L933.1,480
			c-50.3-56-49.5-83.7-46.8-93.1c4.4-15.6,24.5-21.5,24.6-21.6c10.1-2.7,16.2-2.2,21.7,3.8c12.3,13.6,22.9,54.4,18.7,129.5
			C939.4,486.6,933.1,480,933.1,480z M907.1,956.7l0.9-3.3l-0.1,0c25.2-98.6,61.5-243,82.4-335.8l0.8,0.7l0.1-0.4
			c67.6,63.6,171.1,156.7,295.2,253.4l-1.4,0.1l2.1,1.5C1170,882.8,1030.5,905.9,907.1,956.7z M1674.4,989.1
			c-8.9,32.7-26,37.2-41.7,37.2l0,0c-18.2,0-35.7-7.6-39.7-9.4c-45.5-28.5-92.1-59.6-139.1-92.9c0.4,0,0.7,0,1.1,0
			c80.6,0,134.3,4.9,136.4,5c13.5,0.5,56.1,6.8,74.4,28.4C1673,965.8,1675.7,975.9,1674.4,989.1z"/>
	</g>
</g>
</svg>
