<svg width="100" height="100" xmlns="http://www.w3.org/2000/svg" xmlns:svg="http://www.w3.org/2000/svg"><path d="m50,3.973808c-25.373413,0 -46.026192,20.652779 -46.026192,46.026192c0,25.373418 20.652779,46.026192 46.026192,46.026192s46.026192,-20.652774 46.026192,-46.026192c0,-25.373413 -20.652774,-46.026192 -46.026192,-46.026192zm37.411033,26.199529l-16.640241,7.907062c-3.894525,-6.726909 -10.857463,-11.329527 -18.882539,-11.919607l0,-18.410476c15.342068,0.59008 28.677862,9.559286 35.52278,22.423021l0,0zm-35.52278,43.665869c3.186428,-0.236034 6.136827,-1.062144 8.851188,-2.478337l9.441281,15.814137c-5.546751,2.950399 -11.683568,4.838644 -18.292469,5.074677l0,-18.410477l0,0zm-1.888253,-3.540481c-11.21151,0 -20.298732,-9.087222 -20.298732,-20.298729c0,-11.211508 9.087222,-20.298732 20.298732,-20.298732c11.211514,0 20.298729,9.087224 20.298729,20.298732s-9.087216,20.298729 -20.298729,20.298729zm-1.888249,-62.548409l0,18.410476c-12.273658,0.944128 -22.068972,11.211508 -22.068972,23.839208c0,3.068411 0.590078,5.900791 1.652219,8.615162l-16.640239,7.907058c-2.124286,-5.074672 -3.304445,-10.621428 -3.304445,-16.522219c-0.118016,-22.777064 17.938413,-41.305557 40.361435,-42.249684l0.000001,-0.000001zm-35.522784,62.076362l16.640242,-7.907074c3.894525,6.726904 10.857457,11.32953 18.882542,11.919613l0,18.410477c-15.342068,-0.590088 -28.677861,-9.559295 -35.522784,-22.423015l0,0l0,-0.000001zm60.778183,15.460072l-9.44127,-15.814131c6.136827,-4.366581 10.149366,-11.447533 10.149366,-19.472613c0,-3.068414 -0.590088,-5.900796 -1.652232,-8.615164l16.640241,-7.907062c2.124294,5.074685 3.304453,10.621428 3.304453,16.522222c0,14.751984 -7.553026,27.733729 -19.000559,35.286749l0,0l0.000001,0z"/></svg>