<svg width="2048" height="2048" xmlns="http://www.w3.org/2000/svg" xmlns:svg="http://www.w3.org/2000/svg"><path d="m1621.333252,1109.258667l0,-170.65509q0,-34.664368 -25.333374,-59.995972t-60,-25.331604l-341.333374,0l0,-341.310425q0,-34.664337 -25.333252,-59.995972t-60,-25.331604l-170.666626,0q-34.666687,0 -60,25.331604t-25.333374,59.995972l0,341.310425l-341.333252,0q-34.666687,0 -60.000031,25.331604t-25.333344,59.995972l0,170.65509q0,34.664429 25.333344,59.995972t60.000031,25.331787l341.333252,0l0,341.310303q0,34.664429 25.333374,59.995972t60,25.331543l170.666626,0q34.666748,0 60,-25.331543t25.333252,-59.995972l0,-341.310303l341.333374,0q34.666626,0 60,-25.331787t25.333374,-59.995972zm426.666748,-85.327515q0,278.647949 -137.333496,513.965454t-372.666626,372.641724t-513.999878,137.323975t-514.000031,-137.323975t-372.666641,-372.641724t-137.333328,-513.965454t137.333328,-513.965424t372.666641,-372.641632t514.000031,-137.324097t513.999878,137.324097t372.666626,372.641632t137.333496,513.965424z"/></svg>
