<svg height="2048" width="2048" xmlns="http://www.w3.org/2000/svg" xmlns:svg="http://www.w3.org/2000/svg"><path d="M1024.128 0C459.578 0 0 459.577 0 1023.872 0 1588.68 459.577 2048 1024.128 2048 1588.678 2048 2048 1588.294 2048 1023.744 2048 459.577 1588.423.128 1024.128.128zm792.42 1439.54h-211.739c31.234-106.51 52.87-225.308 58.886-353.068h253.216c-8.962 127.12-43.782 246.047-100.365 353.324zm-724.828 476.476V1563.97l336.042.002c-65.544 156.82-142.353 271.393-185.88 329.257-48.645 12.288-98.57 19.2-150.162 23.042zm-280.61-21.123c-43.27-57.223-120.848-172.566-187.16-330.92h343.083v353.323c-53.255-3.457-105.485-10.242-155.924-22.403zM231.452 1439.54c-56.327-107.277-91.403-226.204-100.365-353.324h256.928c6.017 127.632 27.524 246.56 58.888 353.068h-215.45zm5.89-842.345H451c-39.43 126.735-57.863 248.095-62.727 363.95H130.96c9.346-131.6 46.47-254.24 106.254-364.334zm729.69-466.747v342.57H631.63c47.367-105.74 110.095-214.042 192.665-324.135 46.342-10.626 94.348-15.362 142.994-18.435zm261.41 19.843c81.93 109.582 144.4 217.628 191.51 322.6h-328.232V131.73c46.598 3.585 92.428 8.45 136.722 18.82zm240.03 447.417c43.012 126.736 63.623 248.35 69.127 363.95h-445.88v-363.95h376.752zm-501.312 0v363.95H513.985c5.505-115.47 26.116-237.086 69.385-363.95h383.663zm-453.176 488.51H967.16v353.067H577.993c-33.54-105.357-57.607-223.772-64.008-353.068zm577.737 353.067v-353.068h445.88c-6.4 129.296-30.34 247.71-64.008 353.068H1091.72zm571.464-477.5c-4.61-115.982-23.043-237.47-62.728-364.077h210.202c59.784 110.093 97.036 232.605 106.254 364.205h-253.728zm66.184-488.765h-175.126c-33.284-81.163-73.48-163.605-125.07-247.456 117.773 60.168 219.546 144.274 300.324 247.455zM624.974 222.363c-52.486 85.002-93.836 168.47-127.376 250.655H318.504c82.314-104.974 186.263-190.49 306.342-250.656zm-314.92 1341.608h178.71c38.406 99.596 81.93 184.727 122.384 254.11-118.414-61.96-221.21-148.113-301.35-254.11zm1132.046 250.91c40.197-68.744 83.21-152.722 120.72-250.91h175.38c-78.985 104.46-179.86 189.463-296.228 250.91z"/></svg>