<?xml version="1.0" encoding="utf-8"?>
<!-- Generator: Adobe Illustrator 22.1.0, SVG Export Plug-In . SVG Version: 6.00 Build 0)  -->
<svg version="1.1" id="Layer_1" xmlns="http://www.w3.org/2000/svg" xmlns:xlink="http://www.w3.org/1999/xlink" x="0px" y="0px"
	 viewBox="0 0 2297 2048" style="enable-background:new 0 0 2297 2048;" xml:space="preserve">
<g>
	<g id="refresh">
		<path d="M1815.7,334.6c-174.1-195.2-426.4-315.6-706.8-321.8C548.1,0.2,79.1,448.7,66.5,1009.5s436,1029.8,996.7,1042.3
			c471.5,10.6,874-311.9,998.4-742.7l-267.6-6c-108.5,290.8-393.7,501.2-725.1,493.8c-420.5-9.4-756.9-361.2-747.5-781.7
			c9.4-420.5,361.2-756.9,781.7-747.5c216.6,4.8,393.1,98,530.1,241.4l-416.9,398.7l892.1,20l20-892.1L1815.7,334.6z"/>
	</g>
</g>
</svg>
