<svg width="2048" height="2048" xmlns="http://www.w3.org/2000/svg" xmlns:xlink="http://www.w3.org/1999/xlink"><path d="m 1340.6637,50.326605 141.7433,715.584905 156.9005,-137.2569 c 193.3604,300.1548 143.7913,703.31049 -134.2326,945.88919 -186.3964,163.8536 -433.9689,214.8898 -658.7368,159.4983 l -70.32536,283.9074 c 313.66466,77.7694 660.64846,5.1883 922.01296,-224.7066 C 2097.1732,1444.25 2159.988,855.40911 1860.2519,432.46981 L 2029.3058,284.03071 1340.6637,50.326605 Z M 410.18446,1419.8379 C 216.82392,1119.683 266.25648,716.11781 542.50533,473.81211 729.85746,309.95851 976.47409,258.78581 1201.3786,314.17731 L 1271.8405,30.133405 C 957.90275,-47.636005 611.46512,24.535505 349.69099,253.61111 -48.910287,602.46751 -111.99819,1191.5815 187.46479,1614.6573 L 18.001233,1762.6868 709.10127,1997.7562 567.35816,1282.0348 410.18446,1419.8379 Z"/></svg>