<?xml version="1.0" encoding="utf-8"?>
<!-- Generator: Adobe Illustrator 22.1.0, SVG Export Plug-In . SVG Version: 6.00 Build 0)  -->
<svg version="1.1" id="Layer_1" xmlns="http://www.w3.org/2000/svg" xmlns:xlink="http://www.w3.org/1999/xlink" x="0px" y="0px"
	 viewBox="0 0 2297 2048" style="enable-background:new 0 0 2297 2048;" xml:space="preserve">
<g>
	<g>
		<path d="M2065.8,805.8L1925.4,782c-14.6-47.2-33.4-92.8-56.4-136.2l82.7-115.8c35.1-49.3,29.7-116.6-13.4-159.2l-124.5-124.5
			c-23.4-23.4-54.3-36.4-87.3-36.4c-25.9,0-50.6,7.9-71.5,23l-116.2,82.7c-45.1-23.8-92.4-43.5-141.3-58.1l-23.4-138.8
			c-10-59.8-61.4-103.2-122-103.2h-175.9c-60.6,0-112,43.5-122,103.2l-24.2,142.1c-46.8,14.6-92.4,33.9-135.8,57.3l-114.9-82.7
			c-20.9-15-46-23-71.9-23c-33,0-64.4,13-87.3,36.4l-125,124.5c-42.6,42.6-48.5,109.9-13.4,159.2L465.1,650
			c-23,43.9-41.4,89.4-55.6,136.7L270.8,810c-59.8,10-103.2,61.4-103.2,122V1108c0,60.6,43.5,112,103.2,122l142.1,24.2
			c14.6,46.8,33.9,92.4,57.3,135.8l-82.3,114.5c-35.1,49.3-29.7,116.6,13.4,159.2l124.5,124.5c23.4,23.4,54.3,36.4,87.3,36.4
			c25.9,0,50.6-7.9,71.5-23l117.4-83.6c42.2,22.2,86.5,40.1,132.1,54.3l23.4,140.4c10,59.8,61.4,103.2,122,103.2h176.4
			c60.6,0,112-43.5,122-103.2l23.8-140.4c47.2-14.6,92.8-33.4,136.2-56.4l115.8,82.7c20.9,15,46,23,71.9,23l0,0
			c33,0,63.9-13,87.3-36.4l124.5-124.5c42.6-42.6,48.5-109.9,13.4-159.2l-82.7-116.2c23-43.9,42.2-89.4,56.4-136.2l140.4-23.4
			c59.8-10,103.2-61.4,103.2-122V927.9C2169,867.3,2125.6,815.9,2065.8,805.8z M2056.2,1103.8c0,5.4-3.8,10-9.2,10.9l-175.5,29.3
			c-22.2,3.8-39.7,20.1-45.1,41.4c-15.9,61.4-40.1,120.4-72.7,175.1c-11.3,19.2-10.4,43,2.5,61.4l103.2,145.4
			c2.9,4.2,2.5,10.4-1.3,14.2l-124.5,124.5c-2.9,2.9-5.9,3.3-7.9,3.3c-2.5,0-4.6-0.8-6.3-2.1l-145-103.2c-18-13-42.2-13.8-61.4-2.5
			c-54.7,32.6-113.7,56.8-175.1,72.7c-21.7,5.4-38,23.4-41.4,45.1l-29.7,175.5c-0.8,5.4-5.4,9.2-10.9,9.2h-175.9
			c-5.4,0-10-3.8-10.9-9.2l-29.3-175.5c-3.8-22.2-20.1-39.7-41.4-45.1c-59.8-15.5-117.4-39.3-171.4-70.2c-8.8-5-18.8-7.5-28.4-7.5
			c-11.3,0-23,3.3-32.6,10.4l-146.3,104.1c-2.1,1.3-4.2,2.1-6.3,2.1c-1.7,0-5-0.4-7.9-3.3L481,1585.3c-3.8-3.8-4.2-9.6-1.3-14.2
			l102.8-144.2c13-18.4,13.8-42.6,2.5-61.9c-32.6-54.3-57.7-113.3-73.6-174.7c-5.9-21.3-23.4-37.6-45.1-41.4l-176.8-30.1
			c-5.4-0.8-9.2-5.4-9.2-10.9V932.1c0-5.4,3.8-10,9.2-10.9l174.3-29.3c22.2-3.8,40.1-20.1,45.6-41.8
			c15.5-61.4,39.3-120.8,71.5-175.5c11.3-19.2,10-43-2.9-61L473.9,467.3c-2.9-4.2-2.5-10.4,1.3-14.2l124.5-124.5
			c2.9-2.9,5.9-3.3,7.9-3.3c2.5,0,4.6,0.8,6.3,2.1l144.2,102.8c18.4,13,42.6,13.8,61.9,2.5c54.3-32.6,113.3-57.7,174.7-73.6
			c21.3-5.9,37.6-23.4,41.4-45.1l30.1-176.8c0.8-5.4,5.4-9.2,10.9-9.2h175.9c5.4,0,10,3.8,10.9,9.2l29.3,174.3
			c3.8,22.2,20.1,40.1,41.8,45.6c63.1,15.9,123.3,40.5,179.3,73.6c19.2,11.3,43,10.4,61.4-2.5l144.2-103.6c2.1-1.3,4.2-2.1,6.3-2.1
			c1.7,0,5,0.4,7.9,3.3l124.5,124.5c3.8,3.8,4.2,9.6,1.3,14.2l-103.2,145c-13,18-13.8,42.2-2.5,61.4
			c32.6,54.7,56.8,113.7,72.7,175.1c5.4,21.7,23.4,38,45.1,41.4l175.5,29.7c5.4,0.8,9.2,5.4,9.2,10.9v175.9H2056.2z"/>
		<path d="M1168.1,583.9c-238.2,0-431.7,193.5-431.7,431.7s193.5,431.7,431.7,431.7s431.7-193.5,431.7-431.7
			S1406.3,583.9,1168.1,583.9z M1168.1,1334.5c-175.9,0-318.9-142.9-318.9-318.9s142.9-318.9,318.9-318.9
			c175.9,0,318.9,142.9,318.9,318.9S1344,1334.5,1168.1,1334.5z"/>
	</g>
</g>
</svg>
