<?xml version="1.0" encoding="utf-8"?>
<!-- Generator: Adobe Illustrator 22.1.0, SVG Export Plug-In . SVG Version: 6.00 Build 0)  -->
<svg version="1.1" id="Layer_1" xmlns="http://www.w3.org/2000/svg" xmlns:xlink="http://www.w3.org/1999/xlink" x="0px" y="0px"
	 viewBox="0 0 2297 2048" style="enable-background:new 0 0 2297 2048;" xml:space="preserve">
<g id="surface1">
	<path d="M1774.4,1119.6l-387.9-35.5l-169.3,354.8l-61-281l-22.7-104.5l-107.4-14.7l-280.5-38.3L1080,800.3l-68.1-387.9l291.4,261.1
		l342-187.8l-151.8,362.3L1774.4,1119.6z"/>
	<path d="M1133.4,1053.4l22.7,104.5l-492.9,492.4l-0.5-0.5l-123.9-123.9l487.2-487.2L1133.4,1053.4z"/>
	<path d="M663.2,1650.3l-280.5,281c-34.5,34.1-90.3,34.1-124.4-0.9c-34.1-34.5-34.1-89.4,0-123.9l280.5-280.5l123.9,123.9
		L663.2,1650.3z"/>
	<path d="M1549.2,836.7l139.5-332.6c9.9-24.1-1.4-52-25.6-62c-13.2-5.7-28.4-4.7-41.1,2.4l-312.7,171.7l-266.3-239.4
		c-19.4-17.5-49.2-15.6-66.7,3.8c-9.5,10.9-13.7,25.5-11.3,39.7l62.9,355.7L721.4,959.7c-22.2,13.3-29.8,42.6-16.1,64.8
		c7.6,12.3,19.9,20.8,34.1,22.7l185.9,25.6l-700.6,700.1c-53,53-53,138.6,0,191.6c53,53,138.6,53,191.6,0l711.9-711.9l42.6,195.8
		c5.7,25.6,30.7,41.6,56.3,35.9c14.2-3.3,26.5-12.8,32.7-26l155.6-325l354.8,32.6c26,2.4,49.2-16.6,51.6-42.6
		c1.4-14.2-3.8-28.4-14.2-38.3L1549.2,836.7z M349.1,1897.7c-16.1,16.1-41.6,16.1-57.7,0c-16.1-16.1-16.1-41.6,0-57.7l246.9-246.9
		l57.7,57.7L349.1,1897.7z M663.2,1583.6l-57.7-57.7l437.1-437.1l51.1,7.1l10.4,46.8L663.2,1583.6z M1391.2,1036.8
		c-19.9-1.9-38.3,9-46.8,26.5l-110.2,230.4l-54.4-250.2c-4.2-19.4-20.3-34.1-39.7-36.9l-107.4-14.7l-147.1-20.4l219-131
		c17-9.9,25.6-29.3,22.2-48.7l-44.5-253.1L1272,708.5c15.1,13.3,36.9,16.1,54.4,6.1l223.3-122.5l-99.8,237.5
		c-7.6,18-3.3,38.8,10.9,52.5l184.5,177.9L1391.2,1036.8z"/>
	<path d="M1580.5,1350.9c-14.7-21.7-44-27.4-65.8-12.8c-21.8,14.7-27.4,44-12.8,65.7l0.5,0.5l132,192.5c14.7,21.8,44,27.4,65.7,12.8
		c21.8-14.7,27.4-44,12.8-65.7l-0.5-0.5L1580.5,1350.9z"/>
	<path d="M1355.3,383.5c26,0,47.3-21.3,47.3-47.3v-228c0-26-21.3-47.3-47.3-47.3c-26,0-47.3,21.3-47.3,47.3v228
		C1308,362.3,1329.3,383.5,1355.3,383.5z"/>
	<path d="M2135.8,639.9l-304.2,76.2c-25.6,5.7-41.2,31.2-35.5,56.8c5.7,25.6,31.2,41.2,56.8,35.5c0.5,0,1-0.5,1.4-0.5l304.2-76.2
		c25.6-5.7,41.2-31.2,35.5-56.8c-5.7-25.6-31.2-41.2-56.8-35.5C2136.8,639.9,2136.3,639.9,2135.8,639.9z"/>
	<path d="M489.2,666.9l225.6,37.8c25.5,4.2,50.1-13.3,54.4-38.8c4.2-25.6-13.3-49.7-38.8-54.4l-225.6-37.8
		c-25.6-4.3-50.1,13.3-54.4,38.8C446.1,638,463.6,662.6,489.2,666.9z"/>
</g>
</svg>
