<?xml version="1.0" encoding="utf-8"?>
<!-- Generator: Adobe Illustrator 22.1.0, SVG Export Plug-In . SVG Version: 6.00 Build 0)  -->
<svg version="1.1" id="Layer_1" xmlns="http://www.w3.org/2000/svg" xmlns:xlink="http://www.w3.org/1999/xlink" x="0px" y="0px"
	 viewBox="0 0 2297 2048" style="enable-background:new 0 0 2297 2048;" xml:space="preserve">
<g>
	<path d="M2244,682.4L1621.3,59.7c-15.4-15.4-33.6-23.1-54.7-23.1c-21.1,0-39.3,7.7-54.7,23.1c-15.4,15.4-23.1,33.7-23.1,54.7v311.4
		h-272.5c-578.2,0-932.9,163.4-1064.3,490.2c-43,108.6-64.4,243.7-64.4,405c0,134.6,51.5,317.4,154.5,548.6
		c2.4,5.7,6.7,15.4,12.8,29.2c6.1,13.8,11.6,25.9,16.4,36.5c4.9,10.5,10.2,19.4,15.8,26.7c9.7,13.8,21.1,20.7,34.1,20.7
		c12.2,0,21.7-4.1,28.6-12.2c6.9-8.1,10.3-18.3,10.3-30.4c0-7.3-1-18-3-32.2c-2-14.2-3-23.7-3-28.6c-4.1-55.1-6.1-105-6.1-149.6
		c0-81.9,7.1-155.3,21.3-220.1c14.2-64.9,33.9-121,59-168.5c25.1-47.5,57.6-88.4,97.3-122.8c39.7-34.5,82.5-62.6,128.3-84.5
		c45.8-21.9,99.7-39.1,161.8-51.7c62-12.6,124.5-21.3,187.3-26.2s134-7.3,213.5-7.3h272.5V1360c0,21.1,7.7,39.3,23.1,54.7
		c15.4,15.4,33.7,23.1,54.7,23.1c21.1,0,39.3-7.7,54.8-23.1L2244,791.9c15.4-15.4,23.1-33.6,23.1-54.7
		C2267.1,716.1,2259.4,697.9,2244,682.4z"/>
</g>
</svg>
