<svg width="2111" height="2048" xmlns="http://www.w3.org/2000/svg" xmlns:svg="http://www.w3.org/2000/svg"><path d="m324.503845,267.27655c0,0 1786.334045,195.607605 1786.334045,195.607605c0,0 0,-0.646637 0,-0.646637c0,0 -170.927734,938.916656 -170.927734,938.916656c0,0 -1293.273376,0 -1293.273376,0c0,0 -81.907349,239.039917 -81.907349,239.039917c0,0 0,0 0,0c47.743347,22.955688 137.410339,93.654663 81.907349,192.051025c0,0 0,0 0,0c0,0 969.955139,0 969.955139,0c0,0 14.441406,-25.32666 14.441406,-25.32666c49.467896,-175.022949 135.578369,-182.351318 214.467896,-182.351318c99.474365,0 180.196045,94.732056 180.196045,211.665649c0,116.825806 -80.72168,211.557983 -180.196045,211.557983c-87.727051,0 -212.743408,-10.346313 -228.909302,-107.772827c0,0 0,0 0,0c0,0 -969.955139,0 -969.955139,0c0,0 0,0 0,0c-16.165955,97.534546 -62.292786,107.772827 -149.911987,107.772827c-99.582031,0 -180.196075,-94.732178 -180.196075,-211.557983c0,-99.043091 57.873962,-182.135986 136.009216,-205.199341c0,0 53.886383,-134.069336 53.886383,-134.069336c0,0 -314.480972,-1376.366348 -314.480972,-1376.366348c0,0 -191.943344,0 -191.943344,0c0,0 0,-120.597763 0,-120.597763c0,0 261.672363,0 261.672363,0c0,0 62.831482,267.27655 62.831482,267.27655z"/></svg>