<svg width="2393" height="2048" xmlns="http://www.w3.org/2000/svg" xmlns:svg="http://www.w3.org/2000/svg"><path d="m2308.549072,0l-2224.183502,0c-46.017578,0 -84.36557,53.687195 -84.36557,99.704781l0,1472.56292c0,53.687256 30.678391,99.704956 84.36557,99.704956l1027.726227,0l0,207.079102l-406.488708,0c-53.687134,0 -84.365662,30.678345 -84.365662,84.365479s30.678528,84.365845 84.365662,84.365845l989.378113,0c53.687378,0 84.365601,-30.678467 84.365601,-84.365845s-30.678223,-84.365479 -84.365601,-84.365479l-414.158447,0l0,-222.418457l1027.726318,0c53.687256,0 84.365723,-53.687134 84.365723,-99.704712l0,-1457.223808c0,-46.017586 -30.678467,-99.704781 -84.365723,-99.704781zm-69.026367,1533.9198l-2086.130737,0l0,-1365.188629l2070.791626,0l0,1365.188385l15.339111,0l0,0.000244z"/></svg>