<?xml version="1.0" encoding="utf-8"?>
<!-- Generator: Adobe Illustrator 22.1.0, SVG Export Plug-In . SVG Version: 6.00 Build 0)  -->
<svg version="1.1" id="Layer_1" xmlns="http://www.w3.org/2000/svg" xmlns:xlink="http://www.w3.org/1999/xlink" x="0px" y="0px"
	 viewBox="0 0 2297 2048" style="enable-background:new 0 0 2297 2048;" xml:space="preserve">
<g>
	<path d="M2056.1,1601.7l-345.8-172.9c-32.4-16.2-52.6-49.5-52.6-86v-122.4c8.1-10.1,17.2-22.2,26.3-34.4
		c44.5-63.7,80.9-133.5,107.2-210.3c51.6-23.3,83.9-73.8,83.9-130.4V700.8c0-34.4-13.1-68.8-36.4-95.1V412.6
		c2-20.2,10.1-138.5-75.8-236.6c-74.8-84.9-195.2-127.4-359-127.4S1119.8,91,1044.9,176c-86,98.1-77.9,216.4-75.8,236.6v193.1
		c-23.3,26.3-36.4,59.7-36.4,95.1v144.6c0,44.5,20.2,84.9,54.6,112.2c33.4,131.5,102.1,230.6,126.4,261.9v120.3
		c0,35.4-19.2,66.7-49.5,83.9l-323.6,175.9c-105.2,57.6-169.9,166.8-169.9,287.2v153.7h1666.4V1894
		C2237.1,1769.6,2168.4,1657.4,2056.1,1601.7L2056.1,1601.7z"/>
	<path d="M715.3,1552.2l322.6-175.9c13.1-7.1,21.2-21.2,21.2-36.4v-102.1c-32.4-44.5-89-134.5-120.3-249.8
		c-38.4-37.4-60.7-88-60.7-142.6V700.8c0-40.4,13.1-79.9,36.4-113.3V416.6c-1-14.2-3-45.5,3-87c-49.5-17.2-105.2-26.3-166.8-26.3
		c-376.2,0-398.4,320.5-398.4,325.6v165.8c-23.3,25.3-36.4,54.6-36.4,83.9v125.4c0,39.4,17.2,75.8,47.5,100.1
		c30.3,112.2,103.1,198.2,131.5,227.5v99.1c0,28.3-15.2,54.6-42.5,69.8l-240.7,150.7c-92,50.6-149.7,146.6-149.7,251.8v137.5h453
		v-153.7C517.1,1747.4,592.9,1618.9,715.3,1552.2L715.3,1552.2z"/>
</g>
</svg>
