<svg width="2114" height="2048" xmlns="http://www.w3.org/2000/svg" xmlns:svg="http://www.w3.org/2000/svg" preserveAspectRatio="xMidYMid"><path d="m2114.006348,1092.677124c0,283.408936 -219.328247,348.480713 -489.65686,348.480713c-21.932739,0 -43.337158,-0.528564 -64.477173,-1.321289c-32.89917,-246.083374 -161.060913,-466.072327 -349.669678,-610.617432c60.116943,-99.754761 152.736816,-177.246216 262.136719,-214.505615c49.811279,-41.223206 23.914673,-75.972168 14.930176,-85.485229c-78.482544,-48.886353 -130.804199,-141.109863 -130.804199,-243.374939c0.065918,-155.049194 119.903687,-285.853333 267.884033,-285.853333s267.752075,115.147278 267.752075,269.800079c0,100.613434 -50.537964,217.08197 -126.37793,217.08197l2.510498,0s-47.301025,61.438385 19.026001,111.646027c190.32666,70.290649 326.746094,270.724915 326.746094,494.149048l0.000244,0zm-1184.834473,-214.571716c270.989258,100.085022 465.543701,370.809875 465.543701,688.835754c0,403.246704 -312.27832,480.936279 -697.225586,480.936279c-385.145508,0.066162 -697.48999,-77.623657 -697.48999,-480.870361c0,-324.23584 201.821533,-598.924316 480.936432,-694.318909c70.819244,-58.531555 34.154388,-106.559143 21.338257,-119.375305c-111.513855,-70.026367 -186.296814,-197.527466 -186.296814,-343.26181c0,-220.517242 170.705994,-399.282903 381.512054,-399.282903c210.47583,0 381.181702,178.76566 381.181702,399.282903c0,143.223969 -72.00824,268.875275 -180.218872,339.165924l3.831604,0.462402s-67.383972,56.946045 26.887512,128.492065l0.000122,-0.065979l-0.000122,-0.000061z"/></svg>