<?xml version="1.0" encoding="utf-8"?>
<!-- Generator: Adobe Illustrator 22.1.0, SVG Export Plug-In . SVG Version: 6.00 Build 0)  -->
<svg version="1.1" id="Layer_1" xmlns="http://www.w3.org/2000/svg" xmlns:xlink="http://www.w3.org/1999/xlink" x="0px" y="0px"
	 viewBox="0 0 2297 2048" style="enable-background:new 0 0 2297 2048;" xml:space="preserve">
<style type="text/css">
	.st0{fill:#333131;}
</style>
<path class="st0" d="M2223,1025C2223,459.2,1763.8,0,1198,0S173,459.2,173,1025c0,209.1,63.6,405.9,172.2,567.9l0,0l6.1,10.3
	c6.1,8.2,12.3,18.5,18.5,26.7c2,4.1,6.1,6.2,8.2,10.3c8.2,10.3,16.4,20.5,24.6,32.8c2,2.1,4.1,6.2,8.2,8.2
	c39,47.2,82,90.2,129.2,129.2c2,2.1,6.1,4.1,8.2,6.2c10.3,8.2,20.5,16.4,30.8,24.6c4.1,4.1,8.2,6.2,12.3,10.3
	c10.3,8.2,20.5,14.4,30.8,20.5c6.1,4.1,10.3,8.2,16.4,10.3c14.4,8.2,28.7,18.5,43.1,26.7c10.3,6.1,20.5,12.3,30.8,18.5
	c6.1,4.1,12.3,6.1,18.5,10.3c10.3,6.1,22.6,10.3,32.8,16.4c6.1,2.1,12.3,6.1,16.4,8.2c12.3,6.1,26.7,12.3,39,16.4
	c4.1,2.1,8.2,4.1,12.3,4.1c36.9,14.4,73.8,26.7,112.8,34.9c2,0,4.1,0,4.1,2.1c16.4,4.1,34.9,8.2,51.3,10.3c4.1,0,10.3,2.1,14.4,2.1
	c14.4,2.1,28.7,4.1,43.1,6.1c6.1,0,10.3,2.1,16.4,2.1c14.4,2.1,28.7,2.1,43.1,4.1c6.1,0,10.3,0,16.4,2.1c20.5,0,39,2.1,59.5,2.1
	s39,0,59.5-2.1c6.1,0,10.3,0,16.4-2.1c14.4-2.1,28.7-2.1,43.1-4.1c6.1,0,10.3-2.1,16.4-2.1c14.4-2.1,28.7-4.1,43.1-6.1
	c4.1,0,10.3-2.1,14.4-2.1c16.4-4.1,34.9-6.1,51.3-10.3c2,0,4.1,0,4.1-2.1c39-10.3,75.9-22.6,112.8-34.9c4.1-2.1,8.2-4.1,12.3-4.1
	c14.4-6.1,26.7-10.3,39-16.4c6.1-2.1,12.3-4.1,16.4-8.2c12.3-6.1,22.6-10.3,32.8-16.4c6.1-4.1,12.3-6.1,18.5-10.3
	c10.3-6.1,20.5-12.3,30.8-18.5c14.4-8.2,28.7-16.4,43.1-26.7c6.1-4.1,10.3-6.1,16.4-10.3c10.3-6.1,20.5-14.4,30.8-20.5
	c4.1-4.1,8.2-6.2,12.3-10.3c10.3-8.2,20.5-16.4,30.8-24.6c2-2.1,6.1-4.1,8.2-6.2c47.2-39,90.2-82,129.2-129.2c2-2.1,4.1-6.2,8.2-8.2
	c8.2-10.3,16.4-20.5,24.6-32.8c2-4.1,6.1-6.2,8.2-10.3c6.1-8.2,12.3-16.4,18.5-26.7l6.1-10.3l0,0
	C2159.5,1430.9,2223,1234.1,2223,1025z M2155.4,1025c0,170.2-45.1,330.1-123,467.4c-59.5-194.8-237.8-332.1-446.9-332.1h-30.8
	h-172.2c-6.1,0-12.3-6.2-12.3-12.3v-22.6c0-6.2,4.1-10.3,10.3-12.3c219.4-82,356.7-426.4,328-666.3
	c-14.4-125.1-77.9-235.8-166.1-317.8C1899.1,270.6,2155.4,617.1,2155.4,1025z M1968.8,1590.8c-2,4.1-6.1,8.2-8.2,10.3
	c-8.2,10.3-14.4,20.5-22.6,28.7l-2,2.1c-26.7,32.8-57.4,63.6-90.2,94.3c-2,2.1-4.1,4.1-6.1,6.2c-10.3,8.2-18.5,16.4-28.7,24.6
	c-4.1,2.1-6.1,4.1-10.3,8.2c-10.3,8.2-18.5,16.4-28.7,22.6c-4.1,2.1-6.1,4.1-10.3,8.2c-6.1,4.1-12.3,8.2-16.4,12.3V1638h-67.7v213.2
	c-2,0-2,2.1-4.1,2.1c-8.2,4.1-16.4,10.3-26.7,14.4c-6.1,4.1-12.3,6.1-18.5,10.3c-10.3,6.1-20.5,10.3-30.8,14.4
	c-4.1,2.1-10.3,4.1-16.4,6.1c-12.3,6.1-26.7,10.3-39,16.4c-2,2.1-6.1,2.1-8.2,4.1c-34.9,12.3-69.7,24.6-104.6,32.8
	c-2,0-6.1,2.1-8.2,2.1c-14.4,4.1-28.7,6.1-45.1,10.3c-4.1,0-8.2,2.1-14.4,2.1c-12.3,2.1-26.7,4.1-41,6.1c-6.1,0-10.3,2.1-16.4,2.1
	c-12.3,2.1-26.7,2.1-41,4.1c-4.1,0-10.3,0-14.4,2.1c-18.5,2.1-36.9,2.1-55.4,2.1c-18.5,0-36.9,0-55.4-2.1c-4.1,0-10.3,0-14.4-2.1
	c-14.4,0-26.7-2.1-41-4.1c-6.1,0-10.3-2.1-16.4-2.1c-14.4-2.1-26.7-4.1-39-6.1c-4.1,0-8.2-2.1-14.4-2.1
	c-14.4-2.1-30.8-6.1-45.1-10.3c-2,0-4.1-2.1-8.2-2.1c-34.9-8.2-69.7-20.5-104.6-32.8c-2,0-6.1-2.1-8.2-4.1
	c-14.4-6.1-26.7-10.3-39-16.4c-6.1-2.1-10.3-4.1-16.4-6.1c-10.3-4.1-20.5-10.3-30.8-14.4c-6.1-4.1-12.3-6.1-18.5-10.3
	c-8.2-4.1-18.5-10.3-26.7-14.4c-2,0-2-2.1-4.1-2.1V1638h-67.7v170.2c-6.1-4.1-12.3-8.2-16.4-12.3c-4.1-2.1-6.1-4.1-10.3-8.2
	c-10.3-8.2-18.5-14.4-28.7-22.6c-4.1-2.1-6.1-4.1-10.3-8.2c-10.3-8.2-18.5-16.4-28.7-24.6c-2-2.1-4.1-4.1-6.1-6.2
	c-30.8-28.7-61.5-59.5-88.2-94.3l-2-2.1c-8.2-10.3-16.4-20.5-22.6-28.7c-2-4.1-6.1-8.2-8.2-10.3c-4.1-6.2-8.2-10.3-12.3-16.4
	c26.7-196.8,194.8-344.4,395.7-344.4h98.4l287,287l287-287h98.4c200.9,0,369,147.6,395.7,344.4
	C1977,1580.6,1972.9,1586.7,1968.8,1590.8z M1380.5,1230h8.2L1198,1420.7L1007.3,1230h8.2c45.1,0,80-36.9,80-80v-22.6
	c0-32.8-20.5-63.6-51.3-75.9c-164-59.5-291.1-340.3-291.1-539.2c0-4.1,0-8.2,0-12.3l24.6-30.8c57.4-67.7,151.7-86.1,239.9-47.2
	c34.9,16.4,71.8,22.6,110.7,22.6c102.5,0,192.7-55.4,239.9-143.5c108.7,34.9,205,102.5,270.6,188.6
	c10.3,209.1-112.8,496.1-287,561.7c-32.8,12.3-53.3,43.1-53.3,75.9v22.6C1300.5,1193.1,1337.4,1230,1380.5,1230 M1200,67.7
	L1200,67.7c18.5,0,34.9,2.1,49.2,2.1c170.2,18.5,311.6,137.4,367,293.2c-71.8-63.6-159.9-110.7-256.3-137.4l-28.7-8.2L1319,246
	c-30.8,77.9-106.6,129.2-190.7,129.2c-28.7,0-57.4-6.2-82-18.5c-94.3-41-196.8-30.8-274.7,24.6c20.5-69.7,59.5-133.3,110.7-184.5
	C968.4,114.8,1079.1,67.7,1200,67.7z M855.6,131.2c-6.1,6.2-14.4,12.3-20.5,18.5C738.8,246,685.5,375.2,685.5,512.5
	c0,225.5,143.5,533,334.2,602.7c4.1,2.1,6.1,6.2,6.1,12.3v22.6c0,6.2-6.1,12.3-12.3,12.3H841.3h-30.8
	c-209.1,0-389.5,137.4-446.9,332.1c-77.9-139.4-123-297.3-123-467.4C240.6,617.1,496.9,270.6,855.6,131.2z"/>
</svg>
