<svg width="100" height="100" xmlns="http://www.w3.org/2000/svg" xmlns:svg="http://www.w3.org/2000/svg"><path d="m10.169951,0c-0.43111,0 -0.780998,0.353011 -0.780998,0.780999l0,49.202926l81.22387,0l0,-24.991962l-24.21096,0c-0.431114,0 -0.780998,-0.353012 -0.780998,-0.780998l0,-24.210964l-55.450913,0zm58.574906,0l0,21.867968l21.867966,0l-21.867966,-21.867968zm-51.545921,59.943222l0,3.514492l8.590988,0l-9.078331,11.227642l0,3.417648l15.326321,0l0,-3.514496l-9.568798,0l9.078333,-11.227638l0,-3.417648l-14.351637,0l0.003124,0zm17.181976,0l0,3.22084l3.027149,0l0,11.714981l-3.027149,0l0,3.22084l10.640327,0l0,-3.22084l-2.930309,0l0,-11.714981l2.930309,0l0,-3.22084l-10.640327,0zm14.545322,0l0,18.159782l4.685989,0l0,-5.954338l2.930309,0c1.324574,0 2.433594,-0.121834 3.320805,-0.487343c0.893467,-0.365501 1.715073,-0.943443 2.439842,-1.658836c0.527958,-0.527954 0.887215,-1.18087 1.171497,-1.952492c0.284283,-0.780998 0.390499,-1.530769 0.390499,-2.343002c0,-1.04966 -0.196812,-1.983734 -0.587311,-2.733494c-0.381126,-0.749763 -0.92783,-1.374557 -1.65884,-1.855659c-0.60918,-0.399864 -1.25272,-0.684155 -2.049343,-0.877834c-0.790363,-0.203064 -1.774429,-0.293663 -2.930305,-0.293663l-7.713142,0l0,-0.00312zm4.685989,3.417648l0.781002,0c0.771626,0 1.390175,-0.02499 1.855652,0c0.462349,0.015625 0.974686,0.096844 1.465153,0.293655c0.365509,0.146832 0.602928,0.40612 0.877842,0.780998c0.278038,0.365509 0.487347,0.852852 0.487347,1.368309c0,0.521713 -0.056232,0.90284 -0.196812,1.268341c-0.131214,0.359261 -0.381126,0.715401 -0.684155,0.977821c-0.349888,0.293655 -0.749763,0.487335 -1.268345,0.587311c-0.512333,0.09684 -1.252716,0.09684 -2.049339,0.09684l-1.268345,0l0,-5.370148l0,-0.003128zm-44.223271,24.11412l0,11.718109c0,0.431107 0.349888,0.780991 0.780998,0.780991l79.661874,0c0.431114,0 0.780998,-0.349884 0.780998,-0.780991l0,-11.718109l-81.22387,0z"/></svg>