<?xml version="1.0" encoding="utf-8"?>
<!-- Generator: Adobe Illustrator 22.1.0, SVG Export Plug-In . SVG Version: 6.00 Build 0)  -->
<svg version="1.1" id="Layer_1" xmlns="http://www.w3.org/2000/svg" xmlns:xlink="http://www.w3.org/1999/xlink" x="0px" y="0px"
	 viewBox="0 0 2297 2048" style="enable-background:new 0 0 2297 2048;" xml:space="preserve">
<style type="text/css">
	.st0{fill:#333131;}
</style>
<g>
	<g>
		<path class="st0" d="M2283.4,311.3c-83.4,36.1-171.3,60.8-265.9,72.1c94.7-56.3,169-148.7,202.8-254.7
			c-90.1,51.8-189.3,92.4-293,112.7c-83.4-90.1-205.1-146.5-338-146.5c-254.7,0-462,207.3-462,462c0,36.1,4.5,72.1,11.3,105.9
			C755.5,642.6,413,460,185.3,180.6c-40.6,67.6-63.1,146.5-63.1,232.1c0,160,81.1,302,205.1,385.4c-76.6-2.3-146.5-22.5-209.6-58.6
			v6.8c0,223.1,160,410.2,371.8,453c-38.3,11.3-78.9,15.8-121.7,15.8c-29.3,0-58.6-2.3-87.9-9c58.6,184.8,229.9,317.8,432.7,320
			c-157.8,123.9-358.3,198.3-574.7,198.3c-38.3,0-74.4-2.3-110.4-6.8c205.1,130.7,448.5,207.3,707.6,207.3
			c849.6,0,1316.1-705.4,1316.1-1316.1l-2.3-60.8C2143.7,484.8,2220.3,403.7,2283.4,311.3z"/>
	</g>
</g>
</svg>
