<?xml version="1.0" encoding="utf-8"?>
<!-- Generator: Adobe Illustrator 22.1.0, SVG Export Plug-In . SVG Version: 6.00 Build 0)  -->
<svg version="1.1" id="Layer_1" xmlns="http://www.w3.org/2000/svg" xmlns:xlink="http://www.w3.org/1999/xlink" x="0px" y="0px"
	 viewBox="0 0 2297 2048" style="enable-background:new 0 0 2297 2048;" xml:space="preserve">
<style type="text/css">
	.st0{fill:#333131;}
	.st1{fill:#FFFFFF;}
</style>
<g>
	<rect x="210.9" class="st0" width="1916.9" height="2048"/>
	<g>
		<g>
			<path class="st1" d="M1869.8,596c-47.1,20.5-96.3,34.8-147.5,41c53.2-32.8,94.2-81.9,112.6-143.4
				c-49.2,28.7-104.4,51.2-163.8,63.5c-47.1-51.2-114.7-81.9-188.4-81.9c-143.4,0-258,114.7-258,258c0,20.5,2,41,6.1,59.4
				c-215-10.2-405.5-112.6-532.5-270.3c-22.5,38.9-34.8,81.9-34.8,129c0,90.1,45.1,167.9,114.7,215c-43-2-81.9-12.3-116.7-32.8v4.1
				c0,124.9,90.1,229.4,206.8,254c-22.5,6.1-45.1,8.2-67.6,8.2c-16.4,0-32.8-2-49.2-4.1c32.8,102.4,129,178.2,241.7,180.2
				c-88.1,69.6-200.7,110.6-321.5,110.6c-20.5,0-41-2-61.4-4.1c114.7,73.7,249.9,116.7,395.3,116.7c475.1,0,735.2-393.2,735.2-735.2
				v-32.8C1792,694.3,1835,649.2,1869.8,596z"/>
		</g>
	</g>
	<g>
		<g>
			<path class="st1" d="M2009.1,1687.6L2009.1,1687.6h-401.4l127-127c6.1-6.1,10.2-14.3,10.2-22.5s-4.1-16.4-10.2-22.5l-20.5-20.5
				c-6.1-6.1-14.3-10.2-22.5-10.2c-8.2,0-16.4,4.1-22.5,10.2L1452,1712.1c-6.1,6.1-10.2,14.3-10.2,22.5s4.1,16.4,10.2,22.5
				l217.1,217.1c6.1,6.1,14.3,10.2,22.5,10.2c8.2,0,16.4-4.1,22.5-10.2l20.5-20.5c6.1-6.1,10.2-14.3,10.2-22.5
				c0-8.2-4.1-16.4-10.2-22.5l-127-127h403.5c18.4,0,32.8-16.4,32.8-32.8v-28.7C2041.8,1701.9,2027.5,1687.6,2009.1,1687.6z"/>
		</g>
	</g>
</g>
</svg>
